Pochaevsk-Regular.ufo
<glyph name="quotesingle" format="2">
  <advance width="212"/>
  <unicode hex="0027"/>
  <outline>
    <contour>
      <point x="129" y="347" type="line" smooth="yes"/>
      <point x="127.667" y="346.333"/>
      <point x="125" y="345.333"/>
      <point x="121" y="344" type="curve" smooth="yes"/>
      <point x="119" y="343.333"/>
      <point x="115.333" y="342.333"/>
      <point x="110" y="341" type="curve" smooth="yes"/>
      <point x="108.667" y="340.333"/>
      <point x="106.833" y="340"/>
      <point x="104.5" y="340" type="curve" smooth="yes"/>
      <point x="102.167" y="340"/>
      <point x="100.333" y="339.667"/>
      <point x="99" y="339" type="curve" smooth="yes"/>
      <point x="96.3333" y="338.333"/>
      <point x="93" y="338"/>
      <point x="89" y="338" type="curve"/>
      <point x="66" y="594" type="line" smooth="yes"/>
      <point x="66.6667" y="594.667"/>
      <point x="71.3333" y="596.333"/>
      <point x="80" y="599" type="curve" smooth="yes"/>
      <point x="82" y="599.667"/>
      <point x="85" y="600.833"/>
      <point x="89" y="602.5" type="curve" smooth="yes"/>
      <point x="93" y="604.167"/>
      <point x="96" y="605.333"/>
      <point x="98" y="606" type="curve" smooth="yes"/>
      <point x="116" y="612" type="line"/>
      <point x="123.5" y="614.5" type="line"/>
      <point x="129" y="616" type="line"/>
      <point x="146" y="607" type="line"/>
    </contour>
  </outline>
</glyph>
<glyph name="parenright" format="2">
  <advance width="251"/>
  <unicode hex="0029"/>
  <outline>
    <contour>
      <point x="-24" y="-182" type="curve"/>
      <point x="-24" y="-163" type="line"/>
      <point x="78" y="-130"/>
      <point x="101" y="98"/>
      <point x="102" y="276" type="curve" smooth="yes"/>
      <point x="102" y="286"/>
      <point x="102" y="296"/>
      <point x="102" y="307" type="curve" smooth="yes"/>
      <point x="102" y="486"/>
      <point x="84" y="698"/>
      <point x="-24" y="732" type="curve"/>
      <point x="-24" y="747" type="line"/>
      <point x="125" y="731"/>
      <point x="190" y="479"/>
      <point x="190" y="281" type="curve" smooth="yes"/>
      <point x="190" y="279"/>
      <point x="190" y="278"/>
      <point x="190" y="276" type="curve" smooth="yes"/>
      <point x="190" y="73"/>
      <point x="108" y="-170"/>
    </contour>
  </outline>
</glyph>
<glyph name="asterisk" format="2">
  <advance width="444"/>
  <unicode hex="002A"/>
  <outline>
    <contour>
      <point x="198" y="260" type="line"/>
      <point x="185" y="297" type="line"/>
      <point x="214" y="427" type="line"/>
      <point x="207" y="430" type="line"/>
      <point x="110" y="342" type="line"/>
      <point x="72" y="332" type="line"/>
      <point x="61" y="347"/>
      <point x="53" y="361"/>
      <point x="46" y="376" type="curve"/>
      <point x="73" y="404" type="line"/>
      <point x="201" y="446" type="line"/>
      <point x="200" y="453" type="line"/>
      <point x="71" y="494" type="line"/>
      <point x="47" y="521" type="line"/>
      <point x="55" y="544"/>
      <point x="57" y="547"/>
      <point x="72" y="566" type="curve"/>
      <point x="107" y="557" type="line"/>
      <point x="209" y="468" type="line" smooth="yes"/>
      <point x="212" y="469"/>
      <point x="214" y="470"/>
      <point x="215" y="472" type="curve" smooth="yes"/>
      <point x="185" y="600" type="line"/>
      <point x="196" y="637" type="line"/>
      <point x="222" y="640" type="line"/>
      <point x="249" y="637" type="line"/>
      <point x="260" y="600" type="line"/>
      <point x="230" y="472" type="line"/>
      <point x="235" y="468" type="line"/>
      <point x="337" y="557" type="line"/>
      <point x="373" y="566" type="line"/>
      <point x="381" y="556"/>
      <point x="386" y="549"/>
      <point x="388" y="545" type="curve" smooth="yes"/>
      <point x="390" y="542"/>
      <point x="393" y="534"/>
      <point x="398" y="521" type="curve"/>
      <point x="373" y="494" type="line"/>
      <point x="244" y="453" type="line"/>
      <point x="244" y="446" type="line"/>
      <point x="372" y="404" type="line"/>
      <point x="398" y="376" type="line"/>
      <point x="394" y="365"/>
      <point x="391" y="357"/>
      <point x="389" y="353" type="curve" smooth="yes"/>
      <point x="387" y="350"/>
      <point x="382" y="343"/>
      <point x="373" y="332" type="curve"/>
      <point x="335" y="342" type="line"/>
      <point x="237" y="430" type="line"/>
      <point x="230" y="427" type="line"/>
      <point x="259" y="297" type="line"/>
      <point x="247" y="260" type="line"/>
      <point x="222" y="258" type="line"/>
    </contour>
  </outline>
</glyph>
<glyph name="comma" format="2">
  <advance width="352"/>
  <unicode hex="002C"/>
  <outline>
    <contour>
      <point x="139" y="-159" type="curve"/>
      <point x="118" y="-159" type="line"/>
      <point x="183" y="-99"/>
      <point x="215" y="-55"/>
      <point x="215" y="-10" type="curve" smooth="yes"/>
      <point x="215" y="30"/>
      <point x="192" y="54"/>
      <point x="155" y="54" type="curve" smooth="yes"/>
      <point x="123" y="54"/>
      <point x="101" y="37"/>
      <point x="69" y="-14" type="curve"/>
      <point x="56" y="-14" type="line"/>
      <point x="60" y="27"/>
      <point x="75" y="63"/>
      <point x="101" y="94" type="curve" smooth="yes"/>
      <point x="127" y="125"/>
      <point x="157" y="140"/>
      <point x="192" y="140" type="curve" smooth="yes"/>
      <point x="253" y="140"/>
      <point x="294" y="97"/>
      <point x="294" y="38" type="curve" smooth="yes"/>
      <point x="294" y="5"/>
      <point x="282" y="-25"/>
      <point x="259" y="-54" type="curve" smooth="yes"/>
      <point x="236" y="-83"/>
      <point x="196" y="-118"/>
    </contour>
  </outline>
</glyph>
<glyph name="slash" format="2">
  <advance width="323"/>
  <unicode hex="002F"/>
  <outline>
    <contour>
      <point x="42" y="-149" type="line"/>
      <point x="-17" y="-149" type="line"/>
      <point x="259" y="711" type="line"/>
      <point x="318" y="711" type="line"/>
    </contour>
  </outline>
</glyph>
<glyph name="semicolon" format="2">
  <advance width="352"/>
  <unicode hex="003B"/>
  <outline>
    <contour>
      <point x="140" y="-160" type="curve"/>
      <point x="120" y="-160" type="line"/>
      <point x="191" y="-88"/>
      <point x="213" y="-48"/>
      <point x="213" y="-15" type="curve" smooth="yes"/>
      <point x="213" y="21"/>
      <point x="189" y="51"/>
      <point x="148" y="51" type="curve" smooth="yes"/>
      <point x="111" y="51"/>
      <point x="94" y="30"/>
      <point x="69" y="-15" type="curve"/>
      <point x="56" y="-15" type="line"/>
      <point x="77" y="84"/>
      <point x="124" y="138"/>
      <point x="192" y="138" type="curve" smooth="yes"/>
      <point x="251" y="138"/>
      <point x="293" y="93"/>
      <point x="293" y="37" type="curve" smooth="yes"/>
      <point x="293" y="-8"/>
      <point x="276" y="-45"/>
      <point x="242" y="-76" type="curve" smooth="yes"/>
      <point x="209" y="-107"/>
      <point x="175" y="-135"/>
    </contour>
    <contour>
      <point x="261" y="384" type="line"/>
      <point x="195" y="312" type="line"/>
      <point x="131" y="384" type="line"/>
      <point x="195" y="458" type="line"/>
    </contour>
  </outline>
</glyph>
<glyph name="bracketright" format="2">
  <advance width="352"/>
  <unicode hex="005D"/>
  <outline>
    <contour>
      <point x="19" y="-144" type="line"/>
      <point x="19" y="-103" type="line"/>
      <point x="173" y="-104" type="line" smooth="yes"/>
      <point x="209" y="-104"/>
      <point x="212" y="-102"/>
      <point x="212" y="-63" type="curve" smooth="yes"/>
      <point x="212" y="620" type="line" smooth="yes"/>
      <point x="212" y="664"/>
      <point x="210" y="669"/>
      <point x="166" y="669" type="curve" smooth="yes"/>
      <point x="20" y="667" type="line"/>
      <point x="20" y="709" type="line"/>
      <point x="294" y="713" type="line"/>
      <point x="294" y="-148" type="line"/>
    </contour>
  </outline>
</glyph>
<glyph name="guillemotleft" format="2">
  <advance width="480"/>
  <unicode hex="00AB"/>
  <outline>
    <contour>
      <point x="255" y="-5" type="line"/>
      <point x="229" y="-5" type="line"/>
      <point x="48" y="218" type="line"/>
      <point x="229" y="437" type="line"/>
      <point x="255" y="437" type="line"/>
      <point x="141" y="218" type="line"/>
    </contour>
    <contour>
      <point x="447" y="-5" type="line"/>
      <point x="419" y="-5" type="line"/>
      <point x="235" y="218" type="line"/>
      <point x="419" y="437" type="line"/>
      <point x="447" y="437" type="line"/>
      <point x="334" y="218" type="line"/>
    </contour>
  </outline>
</glyph>
<glyph name="paragraph" format="2">
  <advance width="441"/>
  <unicode hex="00B6"/>
  <outline>
    <contour>
      <point x="191" y="-146" type="line"/>
      <point x="191" y="326" type="line"/>
      <point x="148" y="327"/>
      <point x="113" y="341"/>
      <point x="87" y="368" type="curve" smooth="yes"/>
      <point x="62" y="395"/>
      <point x="47" y="424"/>
      <point x="41" y="456" type="curve" smooth="yes"/>
      <point x="41" y="462"/>
      <point x="40" y="477"/>
      <point x="40" y="485" type="curve" smooth="yes"/>
      <point x="40" y="488"/>
      <point x="40" y="490"/>
      <point x="41" y="490" type="curve" smooth="yes"/>
      <point x="41" y="490"/>
      <point x="41" y="490"/>
      <point x="41" y="489" type="curve"/>
      <point x="42" y="523"/>
      <point x="56" y="555"/>
      <point x="82" y="583" type="curve" smooth="yes"/>
      <point x="108" y="612"/>
      <point x="144" y="627"/>
      <point x="191" y="630" type="curve" smooth="yes"/>
      <point x="251" y="630" type="line"/>
      <point x="251" y="-146" type="line"/>
    </contour>
    <contour>
      <point x="312" y="-146" type="line"/>
      <point x="312" y="630" type="line"/>
      <point x="373" y="630" type="line"/>
      <point x="373" y="-146" type="line"/>
    </contour>
  </outline>
</glyph>
<glyph name="acutecomb" format="2">
  <advance width="1"/>
  <unicode hex="0301"/>
  <anchor x="-179" y="902" name="Stack"/>
  <anchor x="-209" y="623" name="_Stack"/>
  <anchor x="-213" y="622" name="_Above"/>
  <outline>
    <contour>
      <point x="-234" y="630" type="curve"/>
      <point x="-221" y="662"/>
      <point x="-204" y="690"/>
      <point x="-190" y="720" type="curve" smooth="yes"/>
      <point x="-182" y="736"/>
      <point x="-174" y="751"/>
      <point x="-166" y="767" type="curve" smooth="yes"/>
      <point x="-151" y="795" type="line" smooth="yes"/>
      <point x="-140" y="816"/>
      <point x="-113" y="813"/>
      <point x="-81" y="817" type="curve" smooth="yes"/>
      <point x="-74" y="815"/>
      <point x="-71" y="813"/>
      <point x="-71" y="810" type="curve" smooth="yes"/>
      <point x="-71" y="805"/>
      <point x="-96" y="763"/>
      <point x="-98" y="761" type="curve" smooth="yes"/>
      <point x="-144" y="687" type="line" smooth="yes"/>
      <point x="-163" y="658"/>
      <point x="-176" y="640"/>
      <point x="-183" y="633" type="curve" smooth="yes"/>
      <point x="-190" y="626"/>
      <point x="-202" y="623"/>
      <point x="-218" y="623" type="curve" smooth="yes"/>
      <point x="-229" y="623"/>
      <point x="-234" y="625"/>
    </contour>
  </outline>
</glyph>
<glyph name="uni030B" format="2">
  <advance width="1"/>
  <unicode hex="030B"/>
  <anchor x="-179" y="902" name="Stack"/>
  <anchor x="-209" y="623" name="_Stack"/>
  <anchor x="-213" y="622" name="_Above"/>
  <outline>
    <contour>
      <point x="-154" y="630" type="curve"/>
      <point x="-141.372" y="662.039"/>
      <point x="-124.326" y="689.659"/>
      <point x="-110" y="720" type="curve" smooth="yes"/>
      <point x="-102.177" y="735.843"/>
      <point x="-94.0221" y="751.355"/>
      <point x="-86" y="767" type="curve" smooth="yes"/>
      <point x="-71" y="795" type="line" smooth="yes"/>
      <point x="-60" y="816"/>
      <point x="-33" y="813"/>
      <point x="-1" y="817" type="curve" smooth="yes"/>
      <point x="6" y="815"/>
      <point x="9" y="813"/>
      <point x="9" y="810" type="curve" smooth="yes"/>
      <point x="9" y="805.368"/>
      <point x="-16.4666" y="763.3"/>
      <point x="-18" y="761" type="curve" smooth="yes"/>
      <point x="-64" y="687" type="line" smooth="yes"/>
      <point x="-83" y="658"/>
      <point x="-96" y="640"/>
      <point x="-103" y="633" type="curve" smooth="yes"/>
      <point x="-110" y="626"/>
      <point x="-122" y="623"/>
      <point x="-138" y="623" type="curve" smooth="yes"/>
      <point x="-149" y="623"/>
      <point x="-154" y="625"/>
    </contour>
    <contour>
      <point x="-314" y="630" type="curve"/>
      <point x="-301.372" y="662.039"/>
      <point x="-284.326" y="689.659"/>
      <point x="-270" y="720" type="curve" smooth="yes"/>
      <point x="-262.177" y="735.843"/>
      <point x="-254.022" y="751.355"/>
      <point x="-246" y="767" type="curve" smooth="yes"/>
      <point x="-231" y="795" type="line" smooth="yes"/>
      <point x="-220" y="816"/>
      <point x="-193" y="813"/>
      <point x="-161" y="817" type="curve" smooth="yes"/>
      <point x="-154" y="815"/>
      <point x="-151" y="813"/>
      <point x="-151" y="810" type="curve" smooth="yes"/>
      <point x="-151" y="805.368"/>
      <point x="-176.467" y="763.3"/>
      <point x="-178" y="761" type="curve" smooth="yes"/>
      <point x="-224" y="687" type="line" smooth="yes"/>
      <point x="-243" y="658"/>
      <point x="-256" y="640"/>
      <point x="-263" y="633" type="curve" smooth="yes"/>
      <point x="-270" y="626"/>
      <point x="-282" y="623"/>
      <point x="-298" y="623" type="curve" smooth="yes"/>
      <point x="-309" y="623"/>
      <point x="-314" y="625"/>
    </contour>
  </outline>
</glyph>
<glyph name="uni033E" format="2">
  <advance width="0"/>
  <unicode hex="033E"/>
  <anchor x="5" y="872" name="Stack"/>
  <anchor x="27" y="593" name="_Stack"/>
  <anchor x="31" y="597" name="_Yerik"/>
  <outline>
    <contour>
      <point x="24" y="779" type="line"/>
      <point x="24" y="791"/>
      <point x="31" y="800"/>
      <point x="44" y="807" type="curve" smooth="yes"/>
      <point x="83" y="830"/>
      <point x="127" y="853"/>
      <point x="134" y="853" type="curve" smooth="yes"/>
      <point x="143" y="853"/>
      <point x="147" y="848"/>
      <point x="147" y="838" type="curve" smooth="yes"/>
      <point x="147" y="833"/>
      <point x="145" y="830"/>
      <point x="132" y="821" type="curve" smooth="yes"/>
      <point x="122" y="816"/>
      <point x="117" y="809"/>
      <point x="117" y="801" type="curve" smooth="yes"/>
      <point x="119" y="785" type="line"/>
      <point x="125.781" y="754.732"/>
      <point x="132.597" y="724.734"/>
      <point x="139" y="694" type="curve"/>
      <point x="142" y="673" type="line"/>
      <point x="142" y="664"/>
      <point x="139" y="658"/>
      <point x="114" y="642" type="curve" smooth="yes"/>
      <point x="101" y="635"/>
      <point x="86" y="625"/>
      <point x="67" y="614" type="curve" smooth="yes"/>
      <point x="49" y="603"/>
      <point x="38" y="598"/>
      <point x="33" y="598" type="curve" smooth="yes"/>
      <point x="23" y="598"/>
      <point x="18" y="602"/>
      <point x="18" y="610" type="curve" smooth="yes"/>
      <point x="18" y="617"/>
      <point x="23" y="623"/>
      <point x="34" y="629" type="curve" smooth="yes"/>
      <point x="45" y="636"/>
      <point x="51" y="644"/>
      <point x="51" y="655" type="curve" smooth="yes"/>
      <point x="51" y="660"/>
      <point x="46" y="679"/>
      <point x="43" y="694" type="curve" smooth="yes"/>
    </contour>
  </outline>
</glyph>
<glyph name="uni0360" format="2">
  <advance width="0"/>
  <unicode hex="0360"/>
  <outline>
    <contour>
      <point x="-509" y="581" type="line"/>
      <point x="-509" y="667" type="line"/>
      <point x="-516" y="669"/>
      <point x="-521" y="671"/>
      <point x="-524" y="674" type="curve" smooth="yes"/>
      <point x="-528" y="677"/>
      <point x="-530" y="680"/>
      <point x="-530" y="685" type="curve" smooth="yes"/>
      <point x="-530" y="691"/>
      <point x="-524" y="694"/>
      <point x="-512" y="694" type="curve" smooth="yes"/>
      <point x="-492" y="694" type="line"/>
      <point x="-99" y="672" type="line"/>
      <point x="-99" y="755" type="line"/>
      <point x="-33" y="755" type="line"/>
      <point x="-33" y="667" type="line"/>
      <point x="-18" y="667"/>
      <point x="-10" y="662"/>
      <point x="-10" y="653" type="curve" smooth="yes"/>
      <point x="-10" y="645"/>
      <point x="-17" y="641"/>
      <point x="-30" y="641" type="curve" smooth="yes"/>
      <point x="-37" y="641"/>
      <point x="-43" y="641"/>
      <point x="-47" y="642" type="curve" smooth="yes"/>
      <point x="-442" y="664" type="line"/>
      <point x="-442" y="581" type="line"/>
    </contour>
  </outline>
</glyph>
<glyph name="afii10054" format="2">
  <advance width="593"/>
  <unicode hex="0405"/>
  <anchor x="478" y="680" name="Yerik"/>
  <anchor x="289" y="680" name="Above"/>
  <outline>
    <contour>
      <point x="140" y="232" type="line"/>
      <point x="322" y="369" type="line"/>
      <point x="314" y="379" type="line"/>
      <point x="293" y="372"/>
      <point x="267" y="367"/>
      <point x="239" y="367" type="curve" smooth="yes"/>
      <point x="146" y="367"/>
      <point x="95" y="426"/>
      <point x="95" y="495" type="curve" smooth="yes"/>
      <point x="95" y="530"/>
      <point x="108" y="562"/>
      <point x="134" y="592" type="curve" smooth="yes"/>
      <point x="161" y="623"/>
      <point x="203" y="638"/>
      <point x="260" y="638" type="curve" smooth="yes"/>
      <point x="288" y="638"/>
      <point x="312" y="635"/>
      <point x="331" y="628" type="curve" smooth="yes"/>
      <point x="350" y="621"/>
      <point x="375" y="610"/>
      <point x="405" y="594" type="curve"/>
      <point x="416.036" y="608.117"/>
      <point x="425.927" y="624.742"/>
      <point x="440" y="636" type="curve" smooth="yes"/>
      <point x="443" y="636"/>
      <point x="445" y="628"/>
      <point x="445" y="611" type="curve" smooth="yes"/>
      <point x="445" y="540" type="line" smooth="yes"/>
      <point x="445" y="520"/>
      <point x="444" y="511"/>
      <point x="437" y="511" type="curve" smooth="yes"/>
      <point x="433" y="511"/>
      <point x="428" y="517"/>
      <point x="423" y="529" type="curve" smooth="yes"/>
      <point x="415" y="544"/>
      <point x="401" y="559"/>
      <point x="382" y="576" type="curve" smooth="yes"/>
      <point x="363" y="593"/>
      <point x="337" y="601"/>
      <point x="304" y="601" type="curve" smooth="yes"/>
      <point x="239" y="601"/>
      <point x="198" y="552"/>
      <point x="198" y="497" type="curve" smooth="yes"/>
      <point x="198" y="438"/>
      <point x="243" y="394"/>
      <point x="306" y="394" type="curve" smooth="yes"/>
      <point x="323" y="394"/>
      <point x="341" y="397"/>
      <point x="358" y="404" type="curve" smooth="yes"/>
      <point x="375" y="411"/>
      <point x="401" y="428"/>
      <point x="434" y="456" type="curve"/>
      <point x="455" y="431" type="line"/>
      <point x="294" y="306" type="line"/>
      <point x="299" y="299" type="line"/>
      <point x="334" y="310"/>
      <point x="370" y="312"/>
      <point x="387" y="312" type="curve" smooth="yes"/>
      <point x="432" y="312"/>
      <point x="471" y="297"/>
      <point x="504" y="268" type="curve" smooth="yes"/>
      <point x="538" y="239"/>
      <point x="555" y="202"/>
      <point x="555" y="156" type="curve" smooth="yes"/>
      <point x="555" y="113"/>
      <point x="539" y="74"/>
      <point x="508" y="40" type="curve" smooth="yes"/>
      <point x="477" y="6"/>
      <point x="432" y="-11"/>
      <point x="373" y="-11" type="curve" smooth="yes"/>
      <point x="338" y="-11"/>
      <point x="309" y="-6"/>
      <point x="287" y="5" type="curve" smooth="yes"/>
      <point x="265" y="16"/>
      <point x="241" y="32"/>
      <point x="214" y="53" type="curve" smooth="yes"/>
      <point x="188" y="75"/>
      <point x="172" y="88"/>
      <point x="167" y="91" type="curve" smooth="yes"/>
      <point x="162" y="94"/>
      <point x="157" y="96"/>
      <point x="152" y="96" type="curve" smooth="yes"/>
      <point x="144" y="96"/>
      <point x="140" y="93"/>
      <point x="140" y="86" type="curve" smooth="yes"/>
      <point x="140" y="81"/>
      <point x="142" y="79"/>
      <point x="143" y="78" type="curve" smooth="yes"/>
      <point x="152" y="65" type="line" smooth="yes"/>
      <point x="156" y="60"/>
      <point x="158" y="53"/>
      <point x="158" y="44" type="curve" smooth="yes"/>
      <point x="158" y="13"/>
      <point x="131" y="-13"/>
      <point x="95" y="-13" type="curve" smooth="yes"/>
      <point x="59" y="-13"/>
      <point x="30" y="11"/>
      <point x="30" y="50" type="curve" smooth="yes"/>
      <point x="30" y="87"/>
      <point x="59" y="130"/>
      <point x="116" y="130" type="curve" smooth="yes"/>
      <point x="128" y="130"/>
      <point x="142" y="128"/>
      <point x="157" y="123" type="curve" smooth="yes"/>
      <point x="172" y="118"/>
      <point x="201" y="104"/>
      <point x="244" y="81" type="curve" smooth="yes"/>
      <point x="287" y="58"/>
      <point x="322" y="47"/>
      <point x="351" y="47" type="curve" smooth="yes"/>
      <point x="412" y="47"/>
      <point x="453" y="101"/>
      <point x="453" y="162" type="curve" smooth="yes"/>
      <point x="453" y="237"/>
      <point x="405" y="285"/>
      <point x="330" y="285" type="curve" smooth="yes"/>
      <point x="283" y="285"/>
      <point x="251" y="271"/>
      <point x="211" y="240" type="curve" smooth="yes"/>
      <point x="194.666" y="228.001"/>
      <point x="178.426" y="215.907"/>
      <point x="162" y="204" type="curve"/>
    </contour>
  </outline>
</glyph>
<glyph name="afii10055" format="2">
  <advance width="296"/>
  <unicode hex="0406"/>
  <anchor x="148" y="680" name="Yerik"/>
  <anchor x="147" y="680" name="Above"/>
  <outline>
    <contour>
      <point x="185" y="250" type="curve"/>
      <point x="185" y="199" type="line" smooth="yes"/>
      <point x="185" y="147"/>
      <point x="188" y="109"/>
      <point x="195" y="85" type="curve" smooth="yes"/>
      <point x="202" y="61"/>
      <point x="217" y="44"/>
      <point x="238" y="34" type="curve" smooth="yes"/>
      <point x="260" y="25"/>
      <point x="271" y="17"/>
      <point x="271" y="10" type="curve" smooth="yes"/>
      <point x="271" y="1"/>
      <point x="269" y="0"/>
      <point x="246" y="0" type="curve" smooth="yes"/>
      <point x="52" y="0" type="line" smooth="yes"/>
      <point x="25" y="0"/>
      <point x="24" y="1"/>
      <point x="24" y="10" type="curve" smooth="yes"/>
      <point x="24" y="16"/>
      <point x="35" y="24"/>
      <point x="56" y="34" type="curve" smooth="yes"/>
      <point x="100" y="54"/>
      <point x="111" y="100"/>
      <point x="111" y="199" type="curve" smooth="yes"/>
      <point x="111" y="250" type="line"/>
      <point x="74" y="259"/>
      <point x="59" y="288"/>
      <point x="59" y="315" type="curve" smooth="yes"/>
      <point x="59" y="352"/>
      <point x="79" y="371"/>
      <point x="111" y="379" type="curve"/>
      <point x="111" y="431" type="line" smooth="yes"/>
      <point x="111" y="482"/>
      <point x="107" y="520"/>
      <point x="100" y="544" type="curve" smooth="yes"/>
      <point x="93" y="568"/>
      <point x="79" y="585"/>
      <point x="57" y="594" type="curve" smooth="yes"/>
      <point x="35" y="604"/>
      <point x="24" y="612"/>
      <point x="24" y="619" type="curve" smooth="yes"/>
      <point x="24" y="624"/>
      <point x="25" y="626"/>
      <point x="28" y="627" type="curve" smooth="yes"/>
      <point x="58" y="628" type="line"/>
      <point x="249" y="628" type="line" smooth="yes"/>
      <point x="269" y="628"/>
      <point x="271" y="628"/>
      <point x="271" y="620" type="curve" smooth="yes"/>
      <point x="271" y="613"/>
      <point x="260" y="604"/>
      <point x="239" y="594" type="curve" smooth="yes"/>
      <point x="196" y="575"/>
      <point x="185" y="531"/>
      <point x="185" y="431" type="curve" smooth="yes"/>
      <point x="185" y="379" type="line"/>
      <point x="221" y="370"/>
      <point x="237" y="340"/>
      <point x="237" y="315" type="curve" smooth="yes"/>
      <point x="237" y="290"/>
      <point x="221" y="259"/>
    </contour>
  </outline>
</glyph>
<glyph name="afii10056" format="2">
  <advance width="296"/>
  <unicode hex="0407"/>
  <anchor x="133" y="891" name="Yerik"/>
  <anchor x="131" y="892" name="Above"/>
  <outline>
    <contour>
      <point x="131" y="714" type="line"/>
      <point x="36" y="714" type="line"/>
      <point x="17" y="831" type="line"/>
      <point x="112" y="831" type="line"/>
    </contour>
    <contour>
      <point x="181" y="250" type="curve"/>
      <point x="181" y="199" type="line" smooth="yes"/>
      <point x="181" y="147"/>
      <point x="184" y="109"/>
      <point x="191" y="85" type="curve" smooth="yes"/>
      <point x="198" y="61"/>
      <point x="213" y="44"/>
      <point x="235" y="34" type="curve" smooth="yes"/>
      <point x="257" y="25"/>
      <point x="268" y="17"/>
      <point x="268" y="10" type="curve" smooth="yes"/>
      <point x="268" y="1"/>
      <point x="266" y="0"/>
      <point x="242" y="0" type="curve" smooth="yes"/>
      <point x="48" y="0" type="line" smooth="yes"/>
      <point x="21" y="0"/>
      <point x="20" y="1"/>
      <point x="20" y="10" type="curve" smooth="yes"/>
      <point x="20" y="16"/>
      <point x="31" y="24"/>
      <point x="52" y="34" type="curve" smooth="yes"/>
      <point x="96" y="54"/>
      <point x="107" y="100"/>
      <point x="107" y="199" type="curve" smooth="yes"/>
      <point x="107" y="250" type="line"/>
      <point x="70" y="261"/>
      <point x="55" y="288"/>
      <point x="55" y="315" type="curve" smooth="yes"/>
      <point x="55" y="340"/>
      <point x="71" y="370"/>
      <point x="107" y="379" type="curve"/>
      <point x="107" y="431" type="line" smooth="yes"/>
      <point x="107" y="482"/>
      <point x="103" y="520"/>
      <point x="96" y="544" type="curve" smooth="yes"/>
      <point x="89" y="568"/>
      <point x="75" y="585"/>
      <point x="53" y="595" type="curve" smooth="yes"/>
      <point x="31" y="605"/>
      <point x="20" y="613"/>
      <point x="20" y="619" type="curve" smooth="yes"/>
      <point x="20" y="624"/>
      <point x="21" y="626"/>
      <point x="24" y="627" type="curve" smooth="yes"/>
      <point x="54" y="628" type="line"/>
      <point x="246" y="628" type="line" smooth="yes"/>
      <point x="266" y="628"/>
      <point x="268" y="628"/>
      <point x="268" y="620" type="curve" smooth="yes"/>
      <point x="268" y="613"/>
      <point x="257" y="605"/>
      <point x="235" y="595" type="curve" smooth="yes"/>
      <point x="192" y="575"/>
      <point x="181" y="531"/>
      <point x="181" y="431" type="curve" smooth="yes"/>
      <point x="181" y="379" type="line"/>
      <point x="217" y="370"/>
      <point x="233" y="340"/>
      <point x="233" y="315" type="curve" smooth="yes"/>
      <point x="233" y="290"/>
      <point x="217" y="259"/>
    </contour>
    <contour>
      <point x="282" y="714" type="line"/>
      <point x="187" y="714" type="line"/>
      <point x="168" y="831" type="line"/>
      <point x="263" y="831" type="line"/>
    </contour>
  </outline>
</glyph>
<glyph name="afii10062" format="2">
  <advance width="528"/>
  <unicode hex="040E"/>
  <anchor x="288" y="920" name="Yerik"/>
  <anchor x="289" y="920" name="Above"/>
  <outline>
    <contour>
      <point x="315" y="148" type="curve" smooth="yes"/>
      <point x="315" y="118"/>
      <point x="315" y="66"/>
      <point x="327" y="40" type="curve" smooth="yes"/>
      <point x="332" y="31"/>
      <point x="339" y="26"/>
      <point x="347" y="24" type="curve" smooth="yes"/>
      <point x="353" y="22.2"/>
      <point x="359.72" y="21.84"/>
      <point x="366.728" y="21.84" type="curve" smooth="yes"/>
      <point x="371.4" y="21.84"/>
      <point x="376.2" y="22"/>
      <point x="381" y="22" type="curve"/>
      <point x="381" y="-0" type="line"/>
      <point x="218" y="-0" type="line"/>
      <point x="218" y="21" type="line"/>
      <point x="238" y="21"/>
      <point x="254" y="21"/>
      <point x="263" y="26" type="curve" smooth="yes"/>
      <point x="274" y="33"/>
      <point x="280" y="40"/>
      <point x="283" y="52" type="curve" smooth="yes"/>
      <point x="288" y="67"/>
      <point x="287" y="91"/>
      <point x="288" y="131" type="curve" smooth="yes"/>
      <point x="288" y="162"/>
      <point x="290" y="181"/>
      <point x="292" y="224" type="curve"/>
      <point x="125" y="224" type="line"/>
      <point x="125" y="338"/>
      <point x="119" y="417"/>
      <point x="108" y="460" type="curve" smooth="yes"/>
      <point x="97" y="504"/>
      <point x="78" y="560"/>
      <point x="50" y="628" type="curve"/>
      <point x="182" y="628" type="line"/>
      <point x="197" y="574"/>
      <point x="209" y="518"/>
      <point x="218" y="463" type="curve" smooth="yes"/>
      <point x="228" y="401"/>
      <point x="234" y="339"/>
      <point x="234" y="281" type="curve" smooth="yes"/>
      <point x="234" y="248" type="line"/>
      <point x="294" y="248" type="line"/>
      <point x="302" y="335"/>
      <point x="311" y="403"/>
      <point x="320" y="451" type="curve" smooth="yes"/>
      <point x="330" y="499"/>
      <point x="346" y="537"/>
      <point x="367" y="566" type="curve" smooth="yes"/>
      <point x="410" y="625"/>
      <point x="450" y="642"/>
      <point x="499" y="642" type="curve" smooth="yes"/>
      <point x="505" y="642"/>
      <point x="508" y="640"/>
      <point x="508" y="636" type="curve" smooth="yes"/>
      <point x="508" y="633"/>
      <point x="506" y="628"/>
      <point x="503" y="623" type="curve" smooth="yes"/>
      <point x="497" y="614"/>
      <point x="485" y="584"/>
      <point x="485" y="559" type="curve" smooth="yes"/>
      <point x="485" y="538"/>
      <point x="497" y="511"/>
      <point x="502" y="491" type="curve" smooth="yes"/>
      <point x="503" y="486"/>
      <point x="501" y="482"/>
      <point x="493" y="483" type="curve" smooth="yes"/>
      <point x="479" y="485"/>
      <point x="456" y="498"/>
      <point x="439" y="498" type="curve" smooth="yes"/>
      <point x="434" y="498" type="line" smooth="yes"/>
      <point x="344" y="498"/>
      <point x="338" y="402"/>
      <point x="325" y="304" type="curve" smooth="yes"/>
      <point x="318" y="254"/>
      <point x="315" y="179"/>
    </contour>
    <contour>
      <point x="341" y="820" type="curve" smooth="yes"/>
      <point x="341" y="831"/>
      <point x="338" y="841"/>
      <point x="333" y="851" type="curve" smooth="yes"/>
      <point x="329" y="867" type="line" smooth="yes"/>
      <point x="329" y="873"/>
      <point x="332" y="876"/>
      <point x="338" y="876" type="curve" smooth="yes"/>
      <point x="345" y="876"/>
      <point x="353" y="866"/>
      <point x="362" y="847" type="curve" smooth="yes"/>
      <point x="371" y="828"/>
      <point x="376" y="809"/>
      <point x="376" y="788" type="curve" smooth="yes"/>
      <point x="376" y="758"/>
      <point x="366" y="735"/>
      <point x="345" y="718" type="curve" smooth="yes"/>
      <point x="325" y="701"/>
      <point x="303" y="693"/>
      <point x="280" y="693" type="curve" smooth="yes"/>
      <point x="233" y="693"/>
      <point x="188" y="729"/>
      <point x="188" y="782" type="curve" smooth="yes"/>
      <point x="188" y="805"/>
      <point x="193" y="827"/>
      <point x="203" y="846" type="curve" smooth="yes"/>
      <point x="214" y="865"/>
      <point x="223" y="875"/>
      <point x="231" y="875" type="curve" smooth="yes"/>
      <point x="239" y="875"/>
      <point x="243" y="871"/>
      <point x="243" y="863" type="curve" smooth="yes"/>
      <point x="243" y="863"/>
      <point x="243" y="863"/>
      <point x="243" y="862" type="curve" smooth="yes"/>
      <point x="243" y="860"/>
      <point x="232" y="853"/>
      <point x="228" y="820" type="curve" smooth="yes"/>
      <point x="228" y="783"/>
      <point x="260" y="765"/>
      <point x="287" y="765" type="curve" smooth="yes"/>
      <point x="324" y="765"/>
      <point x="341" y="793"/>
    </contour>
  </outline>
</glyph>
<glyph name="afii10145" format="2">
  <advance width="556"/>
  <unicode hex="040F"/>
  <anchor x="410" y="680" name="Yerik"/>
  <anchor x="277" y="680" name="Above"/>
  <outline>
    <contour>
      <point x="280" y="-202" type="curve"/>
      <point x="258" y="-158"/>
      <point x="238" y="-124"/>
      <point x="174" y="-103" type="curve"/>
      <point x="215" y="-79"/>
      <point x="224" y="-60"/>
      <point x="224" y="0" type="curve"/>
      <point x="31" y="0" type="line"/>
      <point x="31" y="21" type="line"/>
      <point x="86" y="21" type="line"/>
      <point x="86" y="607" type="line"/>
      <point x="31" y="607" type="line"/>
      <point x="31" y="628" type="line"/>
      <point x="255" y="628" type="line"/>
      <point x="255" y="607" type="line"/>
      <point x="200" y="607" type="line"/>
      <point x="200" y="21" type="line"/>
      <point x="355" y="21" type="line"/>
      <point x="355" y="607" type="line"/>
      <point x="300" y="607" type="line"/>
      <point x="300" y="628" type="line"/>
      <point x="525" y="628" type="line"/>
      <point x="525" y="607" type="line"/>
      <point x="469" y="607" type="line"/>
      <point x="469" y="21" type="line"/>
      <point x="525" y="21" type="line"/>
      <point x="525" y="0" type="line"/>
      <point x="336" y="0" type="line"/>
      <point x="336" y="-59"/>
      <point x="343" y="-79"/>
      <point x="386" y="-103" type="curve"/>
      <point x="333" y="-122"/>
      <point x="308" y="-142"/>
    </contour>
  </outline>
</glyph>
<glyph name="afii10017" format="2">
  <advance width="463"/>
  <unicode hex="0410"/>
  <anchor x="408" y="680" name="Yerik"/>
  <anchor x="327" y="680" name="Above"/>
  <outline>
    <contour>
      <point x="189" y="0" type="line"/>
      <point x="14" y="0" type="line"/>
      <point x="14" y="21" type="line"/>
      <point x="43" y="21"/>
      <point x="63" y="30"/>
      <point x="73" y="47" type="curve" smooth="yes"/>
      <point x="84" y="64"/>
      <point x="89" y="81"/>
      <point x="89" y="98" type="curve"/>
      <point x="61" y="105"/>
      <point x="33" y="117"/>
      <point x="33" y="157" type="curve" smooth="yes"/>
      <point x="33" y="184"/>
      <point x="47" y="214"/>
      <point x="88" y="221" type="curve"/>
      <point x="88" y="230" type="line"/>
      <point x="48" y="241"/>
      <point x="29" y="268"/>
      <point x="29" y="297" type="curve" smooth="yes"/>
      <point x="29" y="341"/>
      <point x="62" y="364"/>
      <point x="137" y="387" type="curve" smooth="yes"/>
      <point x="213" y="410"/>
      <point x="261" y="429"/>
      <point x="261" y="482" type="curve" smooth="yes"/>
      <point x="261" y="496"/>
      <point x="256" y="503"/>
      <point x="247" y="503" type="curve" smooth="yes"/>
      <point x="243" y="503"/>
      <point x="239" y="500"/>
      <point x="234" y="493" type="curve" smooth="yes"/>
      <point x="221" y="478"/>
      <point x="207" y="465"/>
      <point x="184" y="465" type="curve" smooth="yes"/>
      <point x="151" y="465"/>
      <point x="132" y="489"/>
      <point x="132" y="518" type="curve" smooth="yes"/>
      <point x="132" y="550"/>
      <point x="155" y="576"/>
      <point x="190" y="576" type="curve" smooth="yes"/>
      <point x="229" y="576"/>
      <point x="256" y="552"/>
      <point x="272" y="507" type="curve"/>
      <point x="280" y="508" type="line"/>
      <point x="275" y="542"/>
      <point x="273" y="575"/>
      <point x="273" y="607" type="curve"/>
      <point x="224" y="607" type="line"/>
      <point x="224" y="628" type="line"/>
      <point x="438" y="628" type="line"/>
      <point x="437" y="607" type="line"/>
      <point x="387" y="607" type="line"/>
      <point x="387" y="21" type="line"/>
      <point x="437" y="21" type="line"/>
      <point x="437" y="0" type="line"/>
      <point x="225" y="0" type="line"/>
      <point x="225" y="21" type="line"/>
      <point x="275" y="21" type="line"/>
      <point x="275" y="388" type="line"/>
      <point x="256" y="337"/>
      <point x="239" y="304"/>
      <point x="208" y="272" type="curve" smooth="yes"/>
      <point x="179" y="241"/>
      <point x="150" y="233"/>
      <point x="115" y="228" type="curve"/>
      <point x="115" y="221" type="line"/>
      <point x="156" y="214"/>
      <point x="170" y="184"/>
      <point x="170" y="157" type="curve" smooth="yes"/>
      <point x="170" y="126"/>
      <point x="151" y="106"/>
      <point x="114" y="98" type="curve"/>
      <point x="114" y="81"/>
      <point x="119" y="63"/>
      <point x="129" y="46" type="curve" smooth="yes"/>
      <point x="139" y="29"/>
      <point x="159" y="21"/>
      <point x="189" y="21" type="curve"/>
    </contour>
    <contour>
      <point x="85" y="287" type="curve" smooth="yes"/>
      <point x="85" y="275"/>
      <point x="102" y="258"/>
      <point x="125" y="258" type="curve" smooth="yes"/>
      <point x="163" y="258"/>
      <point x="196" y="279"/>
      <point x="224" y="322" type="curve" smooth="yes"/>
      <point x="253" y="365"/>
      <point x="267" y="398"/>
      <point x="267" y="421" type="curve" smooth="yes"/>
      <point x="267" y="429"/>
      <point x="264" y="433"/>
      <point x="258" y="433" type="curve" smooth="yes"/>
      <point x="254" y="433"/>
      <point x="251" y="431"/>
      <point x="248" y="427" type="curve" smooth="yes"/>
      <point x="240" y="416" type="line"/>
      <point x="223" y="395"/>
      <point x="197" y="375"/>
      <point x="162" y="357" type="curve" smooth="yes"/>
      <point x="127" y="339"/>
      <point x="105" y="326"/>
      <point x="97" y="319" type="curve" smooth="yes"/>
      <point x="89" y="312"/>
      <point x="85" y="301"/>
    </contour>
  </outline>
</glyph>
<glyph name="afii10018" format="2">
  <advance width="481"/>
  <unicode hex="0411"/>
  <anchor x="388" y="680" name="Yerik"/>
  <anchor x="256" y="680" name="Above"/>
  <outline>
    <contour>
      <point x="195" y="21" type="line"/>
      <point x="339" y="21" type="line"/>
      <point x="339" y="275" type="line" smooth="yes"/>
      <point x="339" y="302"/>
      <point x="338" y="313"/>
      <point x="324" y="317" type="curve" smooth="yes"/>
      <point x="306" y="323" type="line"/>
      <point x="265" y="338"/>
      <point x="231" y="357"/>
      <point x="199" y="382" type="curve"/>
      <point x="195" y="377" type="line"/>
    </contour>
    <contour>
      <point x="454" y="0" type="curve"/>
      <point x="31" y="0" type="line"/>
      <point x="31" y="21" type="line"/>
      <point x="81" y="21" type="line"/>
      <point x="81" y="607" type="line"/>
      <point x="31" y="607" type="line"/>
      <point x="31" y="628" type="line"/>
      <point x="411" y="628" type="line" smooth="yes"/>
      <point x="420" y="628"/>
      <point x="424" y="625"/>
      <point x="424" y="620" type="curve" smooth="yes"/>
      <point x="415" y="607"/>
      <point x="369" y="595"/>
      <point x="355" y="486" type="curve" smooth="yes"/>
      <point x="355" y="474"/>
      <point x="352" y="468"/>
      <point x="346" y="468" type="curve" smooth="yes"/>
      <point x="341" y="468"/>
      <point x="333" y="481"/>
      <point x="324" y="508" type="curve" smooth="yes"/>
      <point x="307" y="561"/>
      <point x="268" y="607"/>
      <point x="211" y="607" type="curve" smooth="yes"/>
      <point x="204" y="607"/>
      <point x="199" y="607"/>
      <point x="195" y="606" type="curve"/>
      <point x="195" y="544.667"/>
      <point x="195" y="483.333"/>
      <point x="195" y="422" type="curve"/>
      <point x="196" y="411"/>
      <point x="207" y="397"/>
      <point x="229" y="380" type="curve" smooth="yes"/>
      <point x="272.091" y="348.15"/>
      <point x="375.054" y="325"/>
      <point x="450" y="325" type="curve"/>
      <point x="450" y="317"/>
      <point x="446" y="255"/>
      <point x="446" y="191" type="curve" smooth="yes"/>
      <point x="446" y="107"/>
      <point x="447" y="45"/>
    </contour>
  </outline>
</glyph>
<glyph name="afii10019" format="2">
  <advance width="519"/>
  <unicode hex="0412"/>
  <anchor x="408" y="680" name="Yerik"/>
  <anchor x="289" y="680" name="Above"/>
  <outline>
    <contour>
      <point x="29" y="0" type="line"/>
      <point x="29" y="21" type="line"/>
      <point x="79" y="21" type="line"/>
      <point x="79" y="411" type="line" smooth="yes"/>
      <point x="79" y="494.81"/>
      <point x="79.8595" y="523.543"/>
      <point x="117" y="571" type="curve" smooth="yes"/>
      <point x="153" y="619"/>
      <point x="225" y="637"/>
      <point x="293" y="637" type="curve" smooth="yes"/>
      <point x="394" y="637"/>
      <point x="458" y="602"/>
      <point x="458" y="530" type="curve" smooth="yes"/>
      <point x="458" y="509"/>
      <point x="450" y="487"/>
      <point x="435" y="466" type="curve" smooth="yes"/>
      <point x="420" y="445"/>
      <point x="397" y="435"/>
      <point x="366" y="435" type="curve" smooth="yes"/>
      <point x="335" y="435"/>
      <point x="323" y="438"/>
      <point x="288" y="459" type="curve"/>
      <point x="207" y="328" type="line"/>
      <point x="283" y="268"/>
      <point x="347" y="225"/>
      <point x="446" y="208" type="curve"/>
      <point x="446" y="21" type="line"/>
      <point x="489" y="21" type="line"/>
      <point x="489" y="0" type="line"/>
    </contour>
    <contour>
      <point x="194" y="351" type="line"/>
      <point x="200" y="350" type="line"/>
      <point x="277" y="482" type="line"/>
      <point x="289" y="477"/>
      <point x="303" y="472"/>
      <point x="318" y="472" type="curve" smooth="yes"/>
      <point x="357" y="472"/>
      <point x="374" y="499"/>
      <point x="374" y="535" type="curve" smooth="yes"/>
      <point x="374" y="576"/>
      <point x="342" y="614"/>
      <point x="285" y="614" type="curve" smooth="yes"/>
      <point x="245" y="614"/>
      <point x="220" y="600"/>
      <point x="209" y="573" type="curve" smooth="yes"/>
      <point x="199" y="546"/>
      <point x="194" y="510"/>
      <point x="194" y="465" type="curve" smooth="yes"/>
    </contour>
    <contour>
      <point x="342" y="21" type="line"/>
      <point x="342" y="219" type="line"/>
      <point x="297" y="240"/>
      <point x="245" y="269"/>
      <point x="198" y="312" type="curve"/>
      <point x="194" y="309" type="line"/>
      <point x="194" y="63" type="line" smooth="yes"/>
      <point x="194" y="43"/>
      <point x="198" y="31"/>
      <point x="206" y="27" type="curve" smooth="yes"/>
      <point x="214" y="23"/>
      <point x="234" y="21"/>
      <point x="265" y="21" type="curve" smooth="yes"/>
    </contour>
  </outline>
</glyph>
<glyph name="afii10020" format="2">
  <advance width="420"/>
  <unicode hex="0413"/>
  <anchor x="338" y="680" name="Yerik"/>
  <anchor x="227" y="680" name="Above"/>
  <outline>
    <contour>
      <point x="270" y="607" type="curve"/>
      <point x="209" y="607" type="line"/>
      <point x="209" y="21" type="line"/>
      <point x="260" y="21" type="line"/>
      <point x="260" y="0" type="line"/>
      <point x="42" y="0" type="line"/>
      <point x="42" y="21" type="line"/>
      <point x="95" y="21" type="line"/>
      <point x="95" y="607" type="line"/>
      <point x="42" y="607" type="line"/>
      <point x="42" y="628" type="line"/>
      <point x="397" y="628" type="line"/>
      <point x="373.677" y="586.736"/>
      <point x="372.014" y="573.771"/>
      <point x="365" y="520" type="curve" smooth="yes"/>
      <point x="362" y="497"/>
      <point x="361" y="483"/>
      <point x="361" y="478" type="curve" smooth="yes"/>
      <point x="361" y="470"/>
      <point x="359" y="466"/>
      <point x="356" y="466" type="curve" smooth="yes"/>
      <point x="350" y="466"/>
      <point x="336" y="483"/>
      <point x="315" y="518" type="curve" smooth="yes"/>
      <point x="294" y="553"/>
      <point x="279" y="583"/>
    </contour>
  </outline>
</glyph>
<glyph name="afii10021" format="2">
  <advance width="574"/>
  <unicode hex="0414"/>
  <anchor x="508" y="680" name="Yerik"/>
  <anchor x="419" y="680" name="Above"/>
  <outline>
    <contour>
      <point x="370" y="607" type="line"/>
      <point x="322" y="607" type="line"/>
      <point x="322" y="628" type="line"/>
      <point x="535" y="628" type="line"/>
      <point x="535" y="607" type="line"/>
      <point x="483" y="607" type="line"/>
      <point x="483" y="21" type="line"/>
      <point x="513" y="21" type="line" smooth="yes"/>
      <point x="544" y="21"/>
      <point x="545" y="21"/>
      <point x="545" y="12" type="curve" smooth="yes"/>
      <point x="545" y="11" type="line" smooth="yes"/>
      <point x="545" y="7"/>
      <point x="535" y="4"/>
      <point x="504" y="-46" type="curve" smooth="yes"/>
      <point x="495" y="-63"/>
      <point x="488" y="-80"/>
      <point x="484" y="-97" type="curve" smooth="yes"/>
      <point x="478" y="-128"/>
      <point x="478" y="-130"/>
      <point x="475" y="-130" type="curve" smooth="yes"/>
      <point x="474" y="-130" type="line" smooth="yes"/>
      <point x="467" y="-130"/>
      <point x="457" y="-115"/>
      <point x="446" y="-86" type="curve" smooth="yes"/>
      <point x="435" y="-57"/>
      <point x="428" y="-38"/>
      <point x="426" y="-30" type="curve" smooth="yes"/>
      <point x="422" y="-15"/>
      <point x="419" y="-2"/>
      <point x="412" y="-1" type="curve" smooth="yes"/>
      <point x="375" y="0" type="line"/>
      <point x="142" y="0" type="line"/>
      <point x="134" y="-29"/>
      <point x="127" y="-52"/>
      <point x="116" y="-87" type="curve" smooth="yes"/>
      <point x="105" y="-123"/>
      <point x="101" y="-130"/>
      <point x="94" y="-130" type="curve" smooth="yes"/>
      <point x="83" y="-130"/>
      <point x="79" y="-90"/>
      <point x="60" y="-47" type="curve" smooth="yes"/>
      <point x="51" y="-26"/>
      <point x="41" y="-11"/>
      <point x="31" y="-3" type="curve" smooth="yes"/>
      <point x="12" y="13"/>
      <point x="16" y="11"/>
      <point x="15" y="14" type="curve" smooth="yes"/>
      <point x="15" y="19"/>
      <point x="26" y="21"/>
      <point x="47" y="21" type="curve" smooth="yes"/>
      <point x="116" y="21" type="line"/>
      <point x="100" y="52"/>
      <point x="88" y="88"/>
      <point x="88" y="121" type="curve" smooth="yes"/>
      <point x="88" y="188"/>
      <point x="121" y="235"/>
      <point x="202" y="296" type="curve" smooth="yes"/>
      <point x="243" y="327"/>
      <point x="278" y="354"/>
      <point x="307" y="378" type="curve" smooth="yes"/>
      <point x="336" y="403"/>
      <point x="350" y="428"/>
      <point x="350" y="454" type="curve" smooth="yes"/>
      <point x="350" y="465"/>
      <point x="345" y="471"/>
      <point x="336" y="471" type="curve" smooth="yes"/>
      <point x="329" y="471"/>
      <point x="323" y="467"/>
      <point x="322" y="460" type="curve"/>
      <point x="317" y="448" type="line" smooth="yes"/>
      <point x="309" y="430"/>
      <point x="295" y="421"/>
      <point x="275" y="421" type="curve" smooth="yes"/>
      <point x="246" y="421"/>
      <point x="219" y="446"/>
      <point x="219" y="482" type="curve" smooth="yes"/>
      <point x="219" y="517"/>
      <point x="245" y="552"/>
      <point x="284" y="552" type="curve" smooth="yes"/>
      <point x="289" y="552" type="line" smooth="yes"/>
      <point x="333" y="552"/>
      <point x="349" y="492"/>
      <point x="360" y="492" type="curve" smooth="yes"/>
      <point x="367" y="492"/>
      <point x="370" y="493"/>
      <point x="370" y="520" type="curve" smooth="yes"/>
    </contour>
    <contour>
      <point x="252" y="20" type="curve" smooth="yes"/>
      <point x="370" y="20" type="line"/>
      <point x="370" y="403" type="line" smooth="yes"/>
      <point x="370" y="412"/>
      <point x="368" y="416"/>
      <point x="363" y="416" type="curve" smooth="yes"/>
      <point x="358" y="416"/>
      <point x="350" y="398"/>
      <point x="327" y="369" type="curve" smooth="yes"/>
      <point x="316" y="355"/>
      <point x="297" y="332"/>
      <point x="270" y="300" type="curve" smooth="yes"/>
      <point x="215" y="236"/>
      <point x="177" y="184"/>
      <point x="177" y="104" type="curve" smooth="yes"/>
      <point x="177" y="65"/>
      <point x="189" y="30"/>
      <point x="200" y="25" type="curve" smooth="yes"/>
      <point x="212" y="20"/>
      <point x="232" y="20"/>
    </contour>
  </outline>
</glyph>
<glyph name="afii10028" format="2">
  <advance width="556"/>
  <unicode hex="041A"/>
  <anchor x="408" y="680" name="Yerik"/>
  <anchor x="280" y="680" name="Above"/>
  <outline>
    <contour>
      <point x="198" y="21" type="line"/>
      <point x="248" y="21" type="line"/>
      <point x="248" y="0" type="line"/>
      <point x="34" y="0" type="line"/>
      <point x="34" y="21" type="line"/>
      <point x="84" y="21" type="line"/>
      <point x="84" y="607" type="line"/>
      <point x="34" y="607" type="line"/>
      <point x="34" y="628" type="line"/>
      <point x="248" y="628" type="line"/>
      <point x="248" y="607" type="line"/>
      <point x="198" y="607" type="line"/>
      <point x="198" y="351" type="line"/>
      <point x="268.981" y="351"/>
      <point x="290.832" y="360.542"/>
      <point x="323" y="397" type="curve" smooth="yes"/>
      <point x="352" y="432"/>
      <point x="357" y="488"/>
      <point x="357" y="580" type="curve" smooth="yes"/>
      <point x="357" y="605"/>
      <point x="356" y="607"/>
      <point x="329" y="607" type="curve" smooth="yes"/>
      <point x="303" y="607" type="line"/>
      <point x="303" y="628" type="line"/>
      <point x="520" y="628" type="line"/>
      <point x="520" y="607" type="line"/>
      <point x="480" y="607" type="line"/>
      <point x="469" y="606"/>
      <point x="463" y="601"/>
      <point x="463" y="592" type="curve" smooth="yes"/>
      <point x="463" y="498"/>
      <point x="454" y="436"/>
      <point x="436" y="406" type="curve" smooth="yes"/>
      <point x="419" y="376"/>
      <point x="377" y="356"/>
      <point x="311" y="345" type="curve"/>
      <point x="311" y="336" type="line"/>
      <point x="388" y="321"/>
      <point x="436" y="300"/>
      <point x="456" y="272" type="curve" smooth="yes"/>
      <point x="476" y="244"/>
      <point x="486" y="174"/>
      <point x="486" y="62" type="curve" smooth="yes"/>
      <point x="486" y="59"/>
      <point x="486" y="56"/>
      <point x="486" y="53" type="curve" smooth="yes"/>
      <point x="486" y="22"/>
      <point x="487" y="21"/>
      <point x="508" y="21" type="curve" smooth="yes"/>
      <point x="534" y="21" type="line"/>
      <point x="534" y="0" type="line"/>
      <point x="306" y="0" type="line"/>
      <point x="306" y="21" type="line"/>
      <point x="354" y="22" type="line"/>
      <point x="361" y="24"/>
      <point x="366" y="28"/>
      <point x="367" y="34" type="curve" smooth="yes"/>
      <point x="370" y="47"/>
      <point x="371" y="87"/>
      <point x="371" y="114" type="curve" smooth="yes"/>
      <point x="371" y="197"/>
      <point x="359" y="254"/>
      <point x="336" y="283" type="curve" smooth="yes"/>
      <point x="313" y="313"/>
      <point x="267" y="328"/>
      <point x="198" y="328" type="curve"/>
    </contour>
  </outline>
</glyph>
<glyph name="afii10030" format="2">
  <advance width="759"/>
  <unicode hex="041C"/>
  <anchor x="628" y="680" name="Yerik"/>
  <anchor x="475" y="680" name="Above"/>
  <outline>
    <contour>
      <point x="22" y="0" type="line"/>
      <point x="22" y="21" type="line"/>
      <point x="67" y="21" type="line"/>
      <point x="52" y="56"/>
      <point x="45" y="74"/>
      <point x="45" y="118" type="curve" smooth="yes"/>
      <point x="45" y="157"/>
      <point x="57" y="191"/>
      <point x="80" y="218" type="curve" smooth="yes"/>
      <point x="104" y="245"/>
      <point x="139" y="282"/>
      <point x="186" y="327" type="curve" smooth="yes"/>
      <point x="233" y="373"/>
      <point x="262" y="406"/>
      <point x="273" y="427" type="curve" smooth="yes"/>
      <point x="284" y="448"/>
      <point x="289" y="473"/>
      <point x="289" y="503" type="curve" smooth="yes"/>
      <point x="289" y="607" type="line"/>
      <point x="242" y="607" type="line"/>
      <point x="242" y="628" type="line"/>
      <point x="454" y="628" type="line"/>
      <point x="454" y="607" type="line"/>
      <point x="408" y="607" type="line"/>
      <point x="408" y="195" type="line"/>
      <point x="408" y="195"/>
      <point x="408.018" y="189.088"/>
      <point x="409.833" y="188.25" type="curve" smooth="yes"/>
      <point x="413.083" y="186.75"/>
      <point x="415" y="191"/>
      <point x="415" y="191" type="curve"/>
      <point x="563" y="500" type="line"/>
      <point x="563" y="607" type="line"/>
      <point x="508" y="607" type="line"/>
      <point x="508" y="628" type="line"/>
      <point x="725" y="628" type="line"/>
      <point x="725" y="607" type="line"/>
      <point x="677" y="607" type="line"/>
      <point x="677" y="21" type="line"/>
      <point x="725" y="21" type="line"/>
      <point x="725" y="0" type="line"/>
      <point x="513" y="0" type="line"/>
      <point x="513" y="21" type="line"/>
      <point x="563" y="21" type="line"/>
      <point x="563" y="430" type="line"/>
      <point x="563" y="430"/>
      <point x="563.208" y="434"/>
      <point x="560.5" y="435.2" type="curve" smooth="yes"/>
      <point x="557.493" y="436.532"/>
      <point x="555" y="432"/>
      <point x="555" y="432" type="curve"/>
      <point x="423" y="160" type="line" smooth="yes"/>
      <point x="418.336" y="148.69"/>
      <point x="407" y="132.284"/>
      <point x="407" y="119" type="curve" smooth="yes"/>
      <point x="408" y="90" type="line"/>
      <point x="408" y="21" type="line"/>
      <point x="450" y="21" type="line"/>
      <point x="450" y="0" type="line"/>
      <point x="246" y="0" type="line"/>
      <point x="246" y="21" type="line"/>
      <point x="289" y="21" type="line"/>
      <point x="289" y="368" type="line" smooth="yes"/>
      <point x="289" y="397"/>
      <point x="288" y="400"/>
      <point x="281" y="400" type="curve" smooth="yes"/>
      <point x="272" y="400"/>
      <point x="251" y="366"/>
      <point x="208" y="290" type="curve" smooth="yes"/>
      <point x="167" y="214"/>
      <point x="151" y="159"/>
      <point x="151" y="115" type="curve" smooth="yes"/>
      <point x="151" y="67"/>
      <point x="170" y="30"/>
      <point x="213" y="21" type="curve"/>
      <point x="213" y="0" type="line"/>
    </contour>
  </outline>
</glyph>
<glyph name="afii10031" format="2">
  <advance width="556"/>
  <unicode hex="041D"/>
  <anchor x="408" y="680" name="Yerik"/>
  <anchor x="277" y="680" name="Above"/>
  <outline>
    <contour>
      <point x="31" y="0" type="line"/>
      <point x="31" y="21" type="line"/>
      <point x="86" y="21" type="line"/>
      <point x="86" y="607" type="line"/>
      <point x="31" y="607" type="line"/>
      <point x="31" y="628" type="line"/>
      <point x="255" y="628" type="line"/>
      <point x="255" y="607" type="line"/>
      <point x="200" y="607" type="line"/>
      <point x="200" y="339" type="line"/>
      <point x="355" y="297" type="line"/>
      <point x="355" y="607" type="line"/>
      <point x="300" y="607" type="line"/>
      <point x="300" y="628" type="line"/>
      <point x="525" y="628" type="line"/>
      <point x="525" y="607" type="line"/>
      <point x="469" y="607" type="line"/>
      <point x="469" y="21" type="line"/>
      <point x="525" y="21" type="line"/>
      <point x="525" y="0" type="line"/>
      <point x="300" y="0" type="line"/>
      <point x="300" y="21" type="line"/>
      <point x="355" y="21" type="line"/>
      <point x="355" y="272" type="line"/>
      <point x="200" y="315" type="line"/>
      <point x="200" y="21" type="line"/>
      <point x="255" y="21" type="line"/>
      <point x="255" y="0" type="line"/>
    </contour>
  </outline>
</glyph>
<glyph name="afii10032" format="2">
  <advance width="481"/>
  <unicode hex="041E"/>
  <anchor x="377" y="680" name="Yerik"/>
  <anchor x="279" y="680" name="Above"/>
  <outline>
    <contour>
      <point x="277" y="640" type="curve" smooth="yes"/>
      <point x="292" y="640"/>
      <point x="294" y="636"/>
      <point x="294" y="628" type="curve" smooth="yes"/>
      <point x="291" y="597" type="line"/>
      <point x="291" y="574"/>
      <point x="301" y="551"/>
      <point x="352" y="487" type="curve" smooth="yes"/>
      <point x="378" y="455"/>
      <point x="398" y="430"/>
      <point x="413" y="411" type="curve" smooth="yes"/>
      <point x="442" y="374"/>
      <point x="461" y="325"/>
      <point x="461" y="265" type="curve" smooth="yes"/>
      <point x="461" y="213"/>
      <point x="445" y="163"/>
      <point x="413" y="114" type="curve" smooth="yes"/>
      <point x="381" y="66"/>
      <point x="345" y="35"/>
      <point x="305" y="21" type="curve" smooth="yes"/>
      <point x="226" y="-7"/>
      <point x="188" y="-12"/>
      <point x="173" y="-12" type="curve" smooth="yes"/>
      <point x="162" y="-12"/>
      <point x="157" y="-9"/>
      <point x="157" y="-3" type="curve"/>
      <point x="164" y="14" type="line" smooth="yes"/>
      <point x="167" y="20"/>
      <point x="168" y="26"/>
      <point x="168" y="32" type="curve" smooth="yes"/>
      <point x="168" y="47"/>
      <point x="164" y="60"/>
      <point x="157" y="73" type="curve" smooth="yes"/>
      <point x="150" y="86"/>
      <point x="131" y="114"/>
      <point x="100" y="159" type="curve" smooth="yes"/>
      <point x="69" y="204"/>
      <point x="50" y="240"/>
      <point x="42" y="266" type="curve" smooth="yes"/>
      <point x="34" y="293"/>
      <point x="30" y="321"/>
      <point x="30" y="352" type="curve" smooth="yes"/>
      <point x="30" y="445"/>
      <point x="58" y="517"/>
      <point x="115" y="566" type="curve" smooth="yes"/>
      <point x="172" y="615"/>
      <point x="226" y="640"/>
    </contour>
    <contour>
      <point x="152" y="293" type="curve" smooth="yes"/>
      <point x="196" y="161" type="line" smooth="yes"/>
      <point x="201" y="144"/>
      <point x="208" y="115"/>
      <point x="208" y="90" type="curve" smooth="yes"/>
      <point x="208" y="57"/>
      <point x="202" y="46"/>
      <point x="181" y="9" type="curve"/>
      <point x="224" y="9"/>
      <point x="263" y="28"/>
      <point x="298" y="67" type="curve" smooth="yes"/>
      <point x="333" y="106"/>
      <point x="350" y="156"/>
      <point x="350" y="216" type="curve" smooth="yes"/>
      <point x="350" y="254"/>
      <point x="346" y="287"/>
      <point x="337" y="315" type="curve" smooth="yes"/>
      <point x="324.762" y="353.073"/>
      <point x="280.018" y="477.675"/>
      <point x="271" y="516" type="curve" smooth="yes"/>
      <point x="268" y="533"/>
      <point x="266" y="548"/>
      <point x="266" y="562" type="curve" smooth="yes"/>
      <point x="266" y="581"/>
      <point x="267" y="587"/>
      <point x="275" y="619" type="curve"/>
      <point x="237" y="619"/>
      <point x="203" y="602"/>
      <point x="173" y="569" type="curve" smooth="yes"/>
      <point x="143" y="536"/>
      <point x="128" y="490"/>
      <point x="128" y="431" type="curve" smooth="yes"/>
      <point x="128" y="396"/>
      <point x="131" y="358"/>
    </contour>
  </outline>
</glyph>
<glyph name="afii10034" format="2">
  <advance width="519"/>
  <unicode hex="0420"/>
  <anchor x="438" y="680" name="Yerik"/>
  <anchor x="319" y="680" name="Above"/>
  <outline>
    <contour>
      <point x="193" y="483" type="curve" smooth="yes"/>
      <point x="193" y="329" type="line" smooth="yes"/>
      <point x="194" y="323"/>
      <point x="196" y="320"/>
      <point x="198" y="320" type="curve" smooth="yes"/>
      <point x="201" y="320"/>
      <point x="203" y="321"/>
      <point x="214" y="332" type="curve" smooth="yes"/>
      <point x="234.379" y="357.621"/>
      <point x="254.696" y="383.304"/>
      <point x="275" y="409" type="curve" smooth="yes"/>
      <point x="278" y="413"/>
      <point x="281" y="415"/>
      <point x="284" y="415" type="curve" smooth="yes"/>
      <point x="306" y="410" type="line" smooth="yes"/>
      <point x="333" y="403"/>
      <point x="337" y="402"/>
      <point x="345" y="402" type="curve" smooth="yes"/>
      <point x="367" y="402"/>
      <point x="382" y="413"/>
      <point x="389" y="436" type="curve" smooth="yes"/>
      <point x="397" y="459"/>
      <point x="401" y="481"/>
      <point x="401" y="502" type="curve" smooth="yes"/>
      <point x="401" y="543"/>
      <point x="391" y="572"/>
      <point x="371" y="587" type="curve" smooth="yes"/>
      <point x="351" y="603"/>
      <point x="330" y="611"/>
      <point x="308" y="611" type="curve" smooth="yes"/>
      <point x="261" y="611"/>
      <point x="217" y="588"/>
      <point x="205" y="572" type="curve" smooth="yes"/>
      <point x="199" y="565"/>
      <point x="195" y="556"/>
      <point x="194" y="547" type="curve" smooth="yes"/>
      <point x="193" y="538"/>
      <point x="193" y="516"/>
    </contour>
    <contour>
      <point x="27" y="0" type="line"/>
      <point x="27" y="21" type="line"/>
      <point x="78" y="21" type="line"/>
      <point x="78" y="436" type="line" smooth="yes"/>
      <point x="78" y="477"/>
      <point x="78" y="492"/>
      <point x="79" y="500" type="curve" smooth="yes"/>
      <point x="81.5137" y="520.112"/>
      <point x="91.9209" y="538.521"/>
      <point x="107.667" y="554.87" type="curve" smooth="yes"/>
      <point x="129.604" y="577.648"/>
      <point x="161.905" y="596.43"/>
      <point x="197.667" y="610.256" type="curve" smooth="yes"/>
      <point x="242.187" y="627.469"/>
      <point x="292.07" y="637"/>
      <point x="334" y="637" type="curve" smooth="yes"/>
      <point x="379" y="637"/>
      <point x="418" y="625"/>
      <point x="451" y="600" type="curve" smooth="yes"/>
      <point x="484" y="575"/>
      <point x="501" y="537"/>
      <point x="501" y="486" type="curve" smooth="yes"/>
      <point x="501" y="451"/>
      <point x="491" y="420"/>
      <point x="471" y="392" type="curve" smooth="yes"/>
      <point x="451" y="365"/>
      <point x="424" y="351"/>
      <point x="389" y="351" type="curve" smooth="yes"/>
      <point x="357" y="351"/>
      <point x="323" y="366"/>
      <point x="299" y="375" type="curve" smooth="yes"/>
      <point x="283" y="379" type="line" smooth="yes"/>
      <point x="279" y="377"/>
      <point x="277" y="375"/>
      <point x="276" y="374" type="curve" smooth="yes"/>
      <point x="260.525" y="357.808"/>
      <point x="247.311" y="339.356"/>
      <point x="233" y="322" type="curve" smooth="yes"/>
      <point x="206" y="288" type="line" smooth="yes"/>
      <point x="200" y="281"/>
      <point x="196" y="272"/>
      <point x="195" y="263" type="curve" smooth="yes"/>
      <point x="194" y="254"/>
      <point x="193" y="234"/>
      <point x="193" y="203" type="curve" smooth="yes"/>
      <point x="193" y="21" type="line"/>
      <point x="241" y="21" type="line"/>
      <point x="241" y="0" type="line"/>
    </contour>
  </outline>
</glyph>
<glyph name="afii10036" format="2">
  <advance width="611"/>
  <unicode hex="0422"/>
  <anchor x="498" y="680" name="Yerik"/>
  <anchor x="308" y="680" name="Above"/>
  <outline>
    <contour>
      <point x="177" y="607" type="line"/>
      <point x="129" y="482" type="line"/>
      <point x="121" y="458" type="line" smooth="yes"/>
      <point x="116" y="443"/>
      <point x="114" y="440"/>
      <point x="105" y="440" type="curve" smooth="yes"/>
      <point x="102" y="440"/>
      <point x="99" y="442"/>
      <point x="97" y="445" type="curve" smooth="yes"/>
      <point x="96" y="449"/>
      <point x="93" y="463"/>
      <point x="90" y="486" type="curve" smooth="yes"/>
      <point x="84.3177" y="531.458"/>
      <point x="67.7366" y="567.129"/>
      <point x="45" y="594" type="curve" smooth="yes"/>
      <point x="24" y="619"/>
      <point x="22" y="621"/>
      <point x="22" y="628" type="curve" smooth="yes"/>
      <point x="22" y="634"/>
      <point x="25" y="637"/>
      <point x="32" y="637" type="curve" smooth="yes"/>
      <point x="54" y="634" type="line" smooth="yes"/>
      <point x="83" y="631"/>
      <point x="120" y="628"/>
      <point x="140" y="628" type="curve" smooth="yes"/>
      <point x="263.333" y="628"/>
      <point x="386.667" y="628"/>
      <point x="510" y="628" type="curve" smooth="yes"/>
      <point x="530" y="628"/>
      <point x="557" y="630"/>
      <point x="564" y="630" type="curve" smooth="yes"/>
      <point x="582" y="632" type="line" smooth="yes"/>
      <point x="585" y="632"/>
      <point x="587" y="631"/>
      <point x="588" y="629" type="curve" smooth="yes"/>
      <point x="588" y="628"/>
      <point x="588" y="627"/>
      <point x="589" y="626" type="curve" smooth="yes"/>
      <point x="589" y="621"/>
      <point x="586" y="616"/>
      <point x="566" y="585" type="curve" smooth="yes"/>
      <point x="547.374" y="557.061"/>
      <point x="514" y="498.468"/>
      <point x="514" y="451" type="curve" smooth="yes"/>
      <point x="514" y="442"/>
      <point x="511" y="437"/>
      <point x="505" y="437" type="curve" smooth="yes"/>
      <point x="497" y="437"/>
      <point x="492" y="449"/>
      <point x="481" y="481" type="curve" smooth="yes"/>
      <point x="436" y="607" type="line"/>
      <point x="360" y="607" type="line"/>
      <point x="360" y="21" type="line"/>
      <point x="419" y="21" type="line"/>
      <point x="419" y="0" type="line"/>
      <point x="187" y="0" type="line"/>
      <point x="187" y="21" type="line"/>
      <point x="246" y="21" type="line"/>
      <point x="246" y="607" type="line"/>
    </contour>
  </outline>
</glyph>
<glyph name="afii10037" format="2">
  <advance width="528"/>
  <unicode hex="0423"/>
  <anchor x="440" y="680" name="Yerik"/>
  <anchor x="289" y="680" name="Above"/>
  <outline>
    <contour>
      <point x="315" y="148" type="curve" smooth="yes"/>
      <point x="315" y="118"/>
      <point x="315" y="66"/>
      <point x="327" y="40" type="curve" smooth="yes"/>
      <point x="332" y="31"/>
      <point x="339" y="26"/>
      <point x="347" y="24" type="curve" smooth="yes"/>
      <point x="353" y="22.2"/>
      <point x="359.72" y="21.84"/>
      <point x="366.728" y="21.84" type="curve" smooth="yes"/>
      <point x="371.4" y="21.84"/>
      <point x="376.2" y="22"/>
      <point x="381" y="22" type="curve"/>
      <point x="381" y="-0" type="line"/>
      <point x="218" y="-0" type="line"/>
      <point x="218" y="21" type="line"/>
      <point x="238" y="21"/>
      <point x="254" y="21"/>
      <point x="263" y="26" type="curve" smooth="yes"/>
      <point x="274" y="33"/>
      <point x="280" y="40"/>
      <point x="283" y="52" type="curve" smooth="yes"/>
      <point x="288" y="67"/>
      <point x="287" y="91"/>
      <point x="288" y="131" type="curve" smooth="yes"/>
      <point x="288" y="162"/>
      <point x="290" y="181"/>
      <point x="292" y="224" type="curve"/>
      <point x="125" y="224" type="line"/>
      <point x="125" y="338"/>
      <point x="119" y="417"/>
      <point x="108" y="460" type="curve" smooth="yes"/>
      <point x="97" y="504"/>
      <point x="78" y="560"/>
      <point x="50" y="628" type="curve"/>
      <point x="182" y="628" type="line"/>
      <point x="197" y="574"/>
      <point x="209" y="518"/>
      <point x="218" y="463" type="curve" smooth="yes"/>
      <point x="228" y="401"/>
      <point x="234" y="339"/>
      <point x="234" y="281" type="curve" smooth="yes"/>
      <point x="234" y="248" type="line"/>
      <point x="294" y="248" type="line"/>
      <point x="302" y="335"/>
      <point x="311" y="403"/>
      <point x="320" y="451" type="curve" smooth="yes"/>
      <point x="330" y="499"/>
      <point x="346" y="537"/>
      <point x="367" y="566" type="curve" smooth="yes"/>
      <point x="410" y="625"/>
      <point x="450" y="642"/>
      <point x="499" y="642" type="curve" smooth="yes"/>
      <point x="505" y="642"/>
      <point x="508" y="640"/>
      <point x="508" y="636" type="curve" smooth="yes"/>
      <point x="508" y="633"/>
      <point x="506" y="628"/>
      <point x="503" y="623" type="curve" smooth="yes"/>
      <point x="497" y="614"/>
      <point x="485" y="584"/>
      <point x="485" y="559" type="curve" smooth="yes"/>
      <point x="485" y="538"/>
      <point x="497" y="511"/>
      <point x="502" y="491" type="curve" smooth="yes"/>
      <point x="503" y="486"/>
      <point x="501" y="482"/>
      <point x="493" y="483" type="curve" smooth="yes"/>
      <point x="479" y="485"/>
      <point x="456" y="498"/>
      <point x="439" y="498" type="curve" smooth="yes"/>
      <point x="434" y="498" type="line" smooth="yes"/>
      <point x="344" y="498"/>
      <point x="338" y="402"/>
      <point x="325" y="304" type="curve" smooth="yes"/>
      <point x="318" y="254"/>
      <point x="315" y="179"/>
    </contour>
  </outline>
</glyph>
<glyph name="afii10038" format="2">
  <advance width="657"/>
  <unicode hex="0424"/>
  <anchor x="538" y="680" name="Yerik"/>
  <anchor x="329" y="680" name="Above"/>
  <outline>
    <contour>
      <point x="292" y="477" type="curve"/>
      <point x="298" y="479" type="line"/>
      <point x="298" y="548"/>
      <point x="273" y="579"/>
      <point x="242" y="594" type="curve" smooth="yes"/>
      <point x="213" y="610"/>
      <point x="213" y="612"/>
      <point x="213" y="620" type="curve" smooth="yes"/>
      <point x="213" y="627"/>
      <point x="220" y="628"/>
      <point x="233" y="628" type="curve" smooth="yes"/>
      <point x="423" y="628" type="line" smooth="yes"/>
      <point x="437" y="628"/>
      <point x="444" y="625"/>
      <point x="444" y="619" type="curve" smooth="yes"/>
      <point x="444" y="614"/>
      <point x="434" y="606"/>
      <point x="414" y="595" type="curve" smooth="yes"/>
      <point x="375" y="574"/>
      <point x="359" y="531"/>
      <point x="359" y="479" type="curve"/>
      <point x="365" y="477" type="line"/>
      <point x="378" y="490"/>
      <point x="390" y="500"/>
      <point x="401" y="508" type="curve" smooth="yes"/>
      <point x="412" y="517"/>
      <point x="432" y="521"/>
      <point x="459" y="521" type="curve" smooth="yes"/>
      <point x="502" y="521"/>
      <point x="543" y="505"/>
      <point x="580" y="473" type="curve" smooth="yes"/>
      <point x="617" y="441"/>
      <point x="636" y="390"/>
      <point x="636" y="320" type="curve" smooth="yes"/>
      <point x="636" y="256"/>
      <point x="628" y="211"/>
      <point x="595" y="170" type="curve" smooth="yes"/>
      <point x="562" y="129"/>
      <point x="510" y="106"/>
      <point x="459" y="106" type="curve" smooth="yes"/>
      <point x="415" y="106"/>
      <point x="397" y="118"/>
      <point x="365" y="150" type="curve"/>
      <point x="359" y="148" type="line"/>
      <point x="359" y="79"/>
      <point x="385" y="48"/>
      <point x="413" y="32" type="curve" smooth="yes"/>
      <point x="442" y="17"/>
      <point x="444" y="14"/>
      <point x="444" y="7" type="curve" smooth="yes"/>
      <point x="444" y="2"/>
      <point x="437" y="0"/>
      <point x="423" y="0" type="curve" smooth="yes"/>
      <point x="233" y="0" type="line" smooth="yes"/>
      <point x="217" y="0"/>
      <point x="213" y="1"/>
      <point x="213" y="8" type="curve" smooth="yes"/>
      <point x="213" y="13"/>
      <point x="223" y="21"/>
      <point x="242" y="32" type="curve" smooth="yes"/>
      <point x="282" y="53"/>
      <point x="298" y="96"/>
      <point x="298" y="148" type="curve"/>
      <point x="292" y="150" type="line"/>
      <point x="256" y="114"/>
      <point x="232" y="106"/>
      <point x="197" y="106" type="curve" smooth="yes"/>
      <point x="154" y="106"/>
      <point x="114" y="122"/>
      <point x="77" y="154" type="curve" smooth="yes"/>
      <point x="40" y="186"/>
      <point x="21" y="237"/>
      <point x="21" y="307" type="curve" smooth="yes"/>
      <point x="21" y="371"/>
      <point x="29" y="416"/>
      <point x="62" y="457" type="curve" smooth="yes"/>
      <point x="95" y="498"/>
      <point x="147" y="521"/>
      <point x="198" y="521" type="curve" smooth="yes"/>
      <point x="242" y="521"/>
      <point x="260" y="509"/>
    </contour>
    <contour>
      <point x="297" y="376" type="curve"/>
      <point x="297" y="443"/>
      <point x="289" y="490"/>
      <point x="229" y="490" type="curve" smooth="yes"/>
      <point x="192" y="490"/>
      <point x="167" y="471"/>
      <point x="154" y="434" type="curve" smooth="yes"/>
      <point x="141" y="397"/>
      <point x="135" y="357"/>
      <point x="135" y="314" type="curve" smooth="yes"/>
      <point x="135" y="269"/>
      <point x="141" y="228"/>
      <point x="154" y="191" type="curve" smooth="yes"/>
      <point x="167" y="155"/>
      <point x="192" y="137"/>
      <point x="229" y="137" type="curve" smooth="yes"/>
      <point x="258" y="137"/>
      <point x="277" y="148"/>
      <point x="285" y="170" type="curve" smooth="yes"/>
      <point x="293" y="192"/>
      <point x="297" y="219"/>
      <point x="297" y="251" type="curve"/>
      <point x="265" y="258"/>
      <point x="245" y="282"/>
      <point x="245" y="314" type="curve" smooth="yes"/>
      <point x="245" y="335"/>
      <point x="256" y="367"/>
    </contour>
    <contour>
      <point x="360" y="376" type="curve"/>
      <point x="392" y="369"/>
      <point x="412" y="345"/>
      <point x="412" y="314" type="curve" smooth="yes"/>
      <point x="412" y="291"/>
      <point x="401" y="260"/>
      <point x="360" y="251" type="curve"/>
      <point x="360" y="218"/>
      <point x="364" y="190"/>
      <point x="371" y="169" type="curve" smooth="yes"/>
      <point x="379" y="148"/>
      <point x="398" y="137"/>
      <point x="427" y="137" type="curve" smooth="yes"/>
      <point x="464" y="137"/>
      <point x="489" y="155"/>
      <point x="502" y="191" type="curve" smooth="yes"/>
      <point x="515" y="227"/>
      <point x="521" y="268"/>
      <point x="521" y="314" type="curve" smooth="yes"/>
      <point x="521" y="358"/>
      <point x="515" y="398"/>
      <point x="502" y="435" type="curve" smooth="yes"/>
      <point x="490" y="472"/>
      <point x="465" y="490"/>
      <point x="427" y="490" type="curve" smooth="yes"/>
      <point x="398" y="490"/>
      <point x="380" y="479"/>
      <point x="372" y="457" type="curve" smooth="yes"/>
      <point x="364" y="435"/>
      <point x="360" y="408"/>
    </contour>
  </outline>
</glyph>
<glyph name="afii10041" format="2">
  <advance width="537"/>
  <unicode hex="0427"/>
  <anchor x="399" y="680" name="Yerik"/>
  <anchor x="253" y="680" name="Above"/>
  <outline>
    <contour>
      <point x="334" y="268" type="curve"/>
      <point x="334" y="607" type="line"/>
      <point x="284" y="607" type="line"/>
      <point x="284" y="628" type="line"/>
      <point x="503" y="628" type="line"/>
      <point x="503" y="607" type="line"/>
      <point x="448" y="607" type="line"/>
      <point x="448" y="21" type="line"/>
      <point x="503" y="21" type="line"/>
      <point x="503" y="0" type="line"/>
      <point x="279" y="0" type="line"/>
      <point x="279" y="21" type="line"/>
      <point x="334" y="21" type="line"/>
      <point x="334" y="82"/>
      <point x="334" y="143"/>
      <point x="334" y="204" type="curve" smooth="yes"/>
      <point x="334" y="212"/>
      <point x="334" y="220"/>
      <point x="333" y="228" type="curve" smooth="yes"/>
      <point x="333" y="236"/>
      <point x="326" y="245"/>
      <point x="313" y="254" type="curve" smooth="yes"/>
      <point x="300" y="263"/>
      <point x="220" y="283"/>
      <point x="71" y="312" type="curve"/>
      <point x="73" y="332" type="line"/>
      <point x="75" y="412" type="line"/>
      <point x="73" y="607" type="line"/>
      <point x="23" y="607" type="line"/>
      <point x="23" y="628" type="line"/>
      <point x="229" y="628" type="line"/>
      <point x="229" y="607" type="line"/>
      <point x="177" y="607" type="line"/>
      <point x="177" y="378" type="line"/>
      <point x="178" y="321" type="line"/>
      <point x="181" y="312"/>
      <point x="192" y="310"/>
      <point x="229" y="302" type="curve" smooth="yes"/>
      <point x="266" y="294"/>
      <point x="297" y="284"/>
    </contour>
  </outline>
</glyph>
<glyph name="afii10042" format="2">
  <advance width="796"/>
  <unicode hex="0428"/>
  <anchor x="658" y="680" name="Yerik"/>
  <anchor x="397" y="680" name="Above"/>
  <outline>
    <contour>
      <point x="36" y="0" type="line"/>
      <point x="36" y="21" type="line"/>
      <point x="85" y="21" type="line"/>
      <point x="85" y="607" type="line"/>
      <point x="36" y="607" type="line"/>
      <point x="36" y="628" type="line"/>
      <point x="250" y="628" type="line"/>
      <point x="250" y="607" type="line"/>
      <point x="199" y="607" type="line"/>
      <point x="199" y="21" type="line"/>
      <point x="343" y="21" type="line"/>
      <point x="343" y="607" type="line"/>
      <point x="292" y="607" type="line"/>
      <point x="292" y="628" type="line"/>
      <point x="508" y="628" type="line"/>
      <point x="508" y="607" type="line"/>
      <point x="457" y="607" type="line"/>
      <point x="457" y="21" type="line"/>
      <point x="601" y="21" type="line"/>
      <point x="601" y="607" type="line"/>
      <point x="550" y="607" type="line"/>
      <point x="550" y="628" type="line"/>
      <point x="763" y="628" type="line"/>
      <point x="763" y="607" type="line"/>
      <point x="714" y="607" type="line"/>
      <point x="714" y="21" type="line"/>
      <point x="763" y="21" type="line"/>
      <point x="763" y="0" type="line"/>
    </contour>
  </outline>
</glyph>
<glyph name="afii10044" format="2">
  <advance width="515"/>
  <unicode hex="042A"/>
  <anchor x="408" y="680" name="Yerik"/>
  <anchor x="300" y="680" name="Above"/>
  <outline>
    <contour>
      <point x="495" y="0" type="line"/>
      <point x="57" y="0" type="line"/>
      <point x="254" y="606" type="line"/>
      <point x="205" y="606" type="line" smooth="yes"/>
      <point x="174" y="606"/>
      <point x="153" y="602"/>
      <point x="143" y="593" type="curve" smooth="yes"/>
      <point x="133" y="585"/>
      <point x="123" y="567"/>
      <point x="113" y="538" type="curve" smooth="yes"/>
      <point x="93" y="481"/>
      <point x="86" y="462"/>
      <point x="79" y="462" type="curve" smooth="yes"/>
      <point x="75" y="462"/>
      <point x="72" y="468"/>
      <point x="69" y="481" type="curve" smooth="yes"/>
      <point x="63" y="530"/>
      <point x="51" y="579"/>
      <point x="34" y="628" type="curve"/>
      <point x="420" y="628" type="line"/>
      <point x="420" y="607" type="line"/>
      <point x="374" y="607" type="line"/>
      <point x="183" y="20" type="line"/>
      <point x="346" y="20" type="line"/>
      <point x="271" y="247" type="line"/>
      <point x="278" y="266" type="line"/>
      <point x="427" y="266" type="line"/>
      <point x="427" y="244" type="line"/>
      <point x="379" y="244" type="line"/>
      <point x="437" y="70" type="line" smooth="yes"/>
      <point x="453" y="23"/>
      <point x="463" y="21"/>
      <point x="495" y="21" type="curve"/>
    </contour>
  </outline>
</glyph>
<glyph name="afii10045" format="2">
  <advance width="741"/>
  <unicode hex="042B"/>
  <anchor x="608" y="680" name="Yerik"/>
  <anchor x="379" y="680" name="Above"/>
  <outline>
    <contour>
      <point x="189" y="21" type="line"/>
      <point x="333" y="21" type="line"/>
      <point x="333" y="275" type="line" smooth="yes"/>
      <point x="333" y="302"/>
      <point x="332" y="313"/>
      <point x="318" y="317" type="curve" smooth="yes"/>
      <point x="300" y="323" type="line"/>
      <point x="259" y="338"/>
      <point x="225" y="357"/>
      <point x="193" y="382" type="curve"/>
      <point x="189" y="377" type="line"/>
    </contour>
    <contour>
      <point x="666" y="21" type="line"/>
      <point x="721" y="21" type="line"/>
      <point x="721" y="0" type="line"/>
      <point x="497" y="0" type="line"/>
      <point x="497" y="21" type="line"/>
      <point x="552" y="21" type="line"/>
      <point x="552" y="607" type="line"/>
      <point x="497" y="607" type="line"/>
      <point x="497" y="628" type="line"/>
      <point x="721" y="628" type="line"/>
      <point x="721" y="607" type="line"/>
      <point x="666" y="607" type="line"/>
    </contour>
    <contour>
      <point x="443" y="329" type="curve"/>
      <point x="443" y="313.357"/>
      <point x="440" y="222.815"/>
      <point x="440" y="208" type="curve" smooth="yes"/>
      <point x="440" y="131"/>
      <point x="440" y="81"/>
      <point x="441" y="60" type="curve" smooth="yes"/>
      <point x="442" y="39"/>
      <point x="446" y="19"/>
      <point x="451" y="0" type="curve"/>
      <point x="20" y="0" type="line"/>
      <point x="20" y="21" type="line"/>
      <point x="75" y="21" type="line"/>
      <point x="75" y="607" type="line"/>
      <point x="20" y="607" type="line"/>
      <point x="20" y="628" type="line"/>
      <point x="244" y="628" type="line"/>
      <point x="244" y="607" type="line"/>
      <point x="189" y="607" type="line"/>
      <point x="189" y="409" type="line"/>
      <point x="268" y="344"/>
      <point x="351" y="329"/>
    </contour>
  </outline>
</glyph>
<glyph name="afii10046" format="2">
  <advance width="500"/>
  <unicode hex="042C"/>
  <anchor x="403" y="680" name="Yerik"/>
  <anchor x="289" y="680" name="Above"/>
  <outline>
    <contour>
      <point x="196" y="21" type="line"/>
      <point x="340" y="21" type="line"/>
      <point x="340" y="275" type="line" smooth="yes"/>
      <point x="340" y="302"/>
      <point x="339" y="313"/>
      <point x="325" y="317" type="curve" smooth="yes"/>
      <point x="307" y="323" type="line"/>
      <point x="266" y="338"/>
      <point x="232" y="357"/>
      <point x="200" y="382" type="curve"/>
      <point x="196" y="377" type="line"/>
    </contour>
    <contour>
      <point x="196" y="607" type="line"/>
      <point x="196" y="409" type="line"/>
      <point x="275" y="344"/>
      <point x="357" y="329"/>
      <point x="449" y="329" type="curve"/>
      <point x="447" y="208" type="line"/>
      <point x="447" y="131"/>
      <point x="448" y="81"/>
      <point x="449" y="60" type="curve" smooth="yes"/>
      <point x="450" y="39"/>
      <point x="453" y="19"/>
      <point x="457" y="0" type="curve"/>
      <point x="31" y="0" type="line"/>
      <point x="31" y="21" type="line"/>
      <point x="82" y="21" type="line"/>
      <point x="82" y="607" type="line"/>
      <point x="31" y="607" type="line"/>
      <point x="31" y="628" type="line"/>
      <point x="243" y="628" type="line"/>
      <point x="243" y="607" type="line"/>
    </contour>
  </outline>
</glyph>
<glyph name="afii10048" format="2">
  <advance width="761"/>
  <unicode hex="042E"/>
  <anchor x="638" y="680" name="Yerik"/>
  <anchor x="350" y="680" name="Above"/>
  <outline>
    <contour>
      <point x="252" y="0" type="line"/>
      <point x="32" y="0" type="line"/>
      <point x="32" y="21" type="line"/>
      <point x="82" y="21" type="line"/>
      <point x="82" y="607" type="line"/>
      <point x="31" y="607" type="line"/>
      <point x="31" y="628" type="line"/>
      <point x="251" y="628" type="line"/>
      <point x="251" y="607" type="line"/>
      <point x="195" y="607" type="line"/>
      <point x="195" y="305" type="line"/>
      <point x="309" y="361" type="line"/>
      <point x="309" y="438"/>
      <point x="332" y="503"/>
      <point x="378" y="558" type="curve" smooth="yes"/>
      <point x="425" y="613"/>
      <point x="482" y="641"/>
      <point x="551" y="641" type="curve" smooth="yes"/>
      <point x="566" y="641"/>
      <point x="574" y="638"/>
      <point x="574" y="631" type="curve" smooth="yes"/>
      <point x="571" y="602" type="line"/>
      <point x="571" y="575"/>
      <point x="593" y="541"/>
      <point x="609" y="520" type="curve" smooth="yes"/>
      <point x="671" y="441" type="line"/>
      <point x="723" y="377"/>
      <point x="740" y="332"/>
      <point x="740" y="267" type="curve" smooth="yes"/>
      <point x="740" y="180"/>
      <point x="708" y="112"/>
      <point x="645" y="62" type="curve" smooth="yes"/>
      <point x="582" y="13"/>
      <point x="517" y="-12"/>
      <point x="452" y="-12" type="curve" smooth="yes"/>
      <point x="441" y="-12"/>
      <point x="436" y="-9"/>
      <point x="436" y="-4" type="curve" smooth="yes"/>
      <point x="436" y="-2" type="line" smooth="yes"/>
      <point x="436" y="3"/>
      <point x="444" y="0"/>
      <point x="447" y="33" type="curve" smooth="yes"/>
      <point x="447" y="46"/>
      <point x="443" y="61"/>
      <point x="435" y="76" type="curve" smooth="yes"/>
      <point x="427" y="91"/>
      <point x="409" y="119"/>
      <point x="381" y="159" type="curve" smooth="yes"/>
      <point x="354" y="199"/>
      <point x="335" y="231"/>
      <point x="324" y="256" type="curve" smooth="yes"/>
      <point x="314" y="281"/>
      <point x="309" y="308"/>
      <point x="309" y="337" type="curve"/>
      <point x="195" y="281" type="line"/>
      <point x="195" y="21" type="line"/>
      <point x="252" y="21" type="line"/>
    </contour>
    <contour>
      <point x="459" y="7" type="curve"/>
      <point x="516.495" y="14.4994"/>
      <point x="524.106" y="18.8101"/>
      <point x="563" y="54" type="curve" smooth="yes"/>
      <point x="606" y="94"/>
      <point x="629" y="154"/>
      <point x="629" y="217" type="curve" smooth="yes"/>
      <point x="629" y="276"/>
      <point x="617" y="326"/>
      <point x="585" y="417" type="curve" smooth="yes"/>
      <point x="569" y="462"/>
      <point x="558" y="495"/>
      <point x="553" y="515" type="curve" smooth="yes"/>
      <point x="548" y="535"/>
      <point x="545" y="551"/>
      <point x="545" y="563" type="curve" smooth="yes"/>
      <point x="545" y="578"/>
      <point x="548" y="591"/>
      <point x="557" y="623" type="curve"/>
      <point x="506" y="623"/>
      <point x="469" y="603"/>
      <point x="444" y="563" type="curve" smooth="yes"/>
      <point x="420" y="524"/>
      <point x="408" y="479"/>
      <point x="408" y="428" type="curve" smooth="yes"/>
      <point x="408" y="364"/>
      <point x="426" y="305"/>
      <point x="443" y="257" type="curve" smooth="yes"/>
      <point x="475" y="161" type="line" smooth="yes"/>
      <point x="483" y="137"/>
      <point x="487" y="106"/>
      <point x="487" y="87" type="curve" smooth="yes"/>
      <point x="487" y="58"/>
      <point x="479" y="39"/>
    </contour>
  </outline>
</glyph>
<glyph name="afii10068" format="2">
  <advance width="389"/>
  <unicode hex="0433"/>
  <anchor x="303" y="623" name="Yerik"/>
  <anchor x="197" y="623" name="Above"/>
  <outline>
    <contour>
      <point x="169" y="427" type="line"/>
      <point x="158.68" y="352.18"/>
      <point x="157" y="324.617"/>
      <point x="157" y="229" type="curve" smooth="yes"/>
      <point x="157" y="155"/>
      <point x="163" y="79"/>
      <point x="176" y="0" type="curve"/>
      <point x="65" y="0" type="line"/>
      <point x="56" y="71"/>
      <point x="52" y="159"/>
      <point x="52" y="239" type="curve" smooth="yes"/>
      <point x="52" y="346.207"/>
      <point x="53.2552" y="352.621"/>
      <point x="62" y="451" type="curve"/>
      <point x="159" y="451"/>
      <point x="256" y="451"/>
      <point x="353" y="451" type="curve" smooth="yes"/>
      <point x="364" y="451"/>
      <point x="369" y="449"/>
      <point x="369" y="444" type="curve"/>
      <point x="357" y="417" type="line"/>
      <point x="342" y="388"/>
      <point x="332" y="348"/>
      <point x="332" y="324" type="curve" smooth="yes"/>
      <point x="332" y="313"/>
      <point x="330" y="308"/>
      <point x="325" y="308" type="curve" smooth="yes"/>
      <point x="309" y="308"/>
      <point x="293" y="336"/>
      <point x="272" y="383" type="curve" smooth="yes"/>
      <point x="261" y="406"/>
      <point x="254" y="419"/>
      <point x="251" y="422" type="curve" smooth="yes"/>
      <point x="248" y="425"/>
      <point x="244" y="427"/>
      <point x="238" y="427" type="curve" smooth="yes"/>
    </contour>
  </outline>
</glyph>
<glyph name="afii10069" format="2">
  <advance width="500"/>
  <unicode hex="0434"/>
  <anchor x="387" y="623" name="Yerik"/>
  <anchor x="257" y="623" name="Above"/>
  <outline>
    <contour>
      <point x="355" y="0" type="line"/>
      <point x="139" y="0" type="line"/>
      <point x="117" y="-124" type="line"/>
      <point x="113" y="-149" type="line" smooth="yes"/>
      <point x="108" y="-177"/>
      <point x="108" y="-182"/>
      <point x="100" y="-182" type="curve" smooth="yes"/>
      <point x="95" y="-182"/>
      <point x="92" y="-178"/>
      <point x="90" y="-169" type="curve" smooth="yes"/>
      <point x="84" y="-149" type="line" smooth="yes"/>
      <point x="70" y="-102"/>
      <point x="59" y="-68"/>
      <point x="51" y="-46" type="curve" smooth="yes"/>
      <point x="44" y="-24"/>
      <point x="34" y="-2"/>
      <point x="21" y="21" type="curve"/>
      <point x="102" y="23" type="line"/>
      <point x="110" y="26"/>
      <point x="109" y="25"/>
      <point x="122" y="61" type="curve" smooth="yes"/>
      <point x="129" y="79"/>
      <point x="136" y="98"/>
      <point x="143" y="118" type="curve" smooth="yes"/>
      <point x="150" y="139"/>
      <point x="166" y="177"/>
      <point x="189" y="234" type="curve" smooth="yes"/>
      <point x="216" y="300" type="line"/>
      <point x="204" y="388" type="line"/>
      <point x="198" y="451" type="line"/>
      <point x="311" y="451" type="line"/>
      <point x="311" y="396"/>
      <point x="320" y="320"/>
      <point x="338" y="222" type="curve" smooth="yes"/>
      <point x="356" y="125"/>
      <point x="368" y="68"/>
      <point x="375" y="51" type="curve" smooth="yes"/>
      <point x="382" y="34"/>
      <point x="389" y="25"/>
      <point x="396" y="23" type="curve" smooth="yes"/>
      <point x="404" y="22"/>
      <point x="429" y="21"/>
      <point x="470" y="21" type="curve"/>
      <point x="448.265" y="-26.5987"/>
      <point x="428.013" y="-75.6799"/>
      <point x="407" y="-124" type="curve" smooth="yes"/>
      <point x="391" y="-160" type="line" smooth="yes"/>
      <point x="385" y="-175"/>
      <point x="380" y="-182"/>
      <point x="376" y="-182" type="curve" smooth="yes"/>
      <point x="368" y="-182"/>
      <point x="364" y="-168"/>
      <point x="364" y="-139" type="curve"/>
    </contour>
    <contour>
      <point x="136" y="21" type="curve"/>
      <point x="275" y="21" type="line"/>
      <point x="267.662" y="52.3282"/>
      <point x="260.303" y="83.6366"/>
      <point x="253" y="115" type="curve" smooth="yes"/>
      <point x="246.3" y="144.3"/>
      <point x="240.162" y="174.162"/>
      <point x="234" y="204" type="curve" smooth="yes"/>
      <point x="224" y="251" type="line"/>
      <point x="193.222" y="175.778"/>
      <point x="164.65" y="98.3495"/>
    </contour>
  </outline>
</glyph>
<glyph name="afii10072" format="2">
  <advance width="741"/>
  <unicode hex="0436"/>
  <anchor x="557" y="623" name="Yerik"/>
  <anchor x="358" y="623" name="Above"/>
  <outline>
    <contour>
      <point x="133" y="0" type="curve"/>
      <point x="30" y="0" type="line"/>
      <point x="33" y="27"/>
      <point x="39" y="52"/>
      <point x="47" y="75" type="curve" smooth="yes"/>
      <point x="55" y="98"/>
      <point x="73" y="126"/>
      <point x="102" y="159" type="curve" smooth="yes"/>
      <point x="161" y="227"/>
      <point x="224" y="260"/>
      <point x="308" y="296" type="curve"/>
      <point x="287" y="317"/>
      <point x="264" y="337"/>
      <point x="238" y="356" type="curve" smooth="yes"/>
      <point x="213" y="376"/>
      <point x="192" y="386"/>
      <point x="176" y="386" type="curve" smooth="yes"/>
      <point x="152" y="386"/>
      <point x="147" y="369"/>
      <point x="147" y="348" type="curve" smooth="yes"/>
      <point x="147" y="321"/>
      <point x="151" y="303"/>
      <point x="159" y="271" type="curve"/>
      <point x="60" y="242" type="line"/>
      <point x="49" y="278"/>
      <point x="38" y="333"/>
      <point x="38" y="370" type="curve" smooth="yes"/>
      <point x="38" y="385"/>
      <point x="41" y="404"/>
      <point x="47" y="426" type="curve" smooth="yes"/>
      <point x="54" y="448"/>
      <point x="78" y="459"/>
      <point x="119" y="459" type="curve" smooth="yes"/>
      <point x="186" y="459"/>
      <point x="240" y="415"/>
      <point x="307" y="352" type="curve"/>
      <point x="307" y="352"/>
      <point x="308.976" y="350.26"/>
      <point x="310.562" y="351.688" type="curve" smooth="yes"/>
      <point x="312.229" y="353.188"/>
      <point x="312" y="355"/>
      <point x="312" y="355" type="curve"/>
      <point x="312" y="365.333"/>
      <point x="312" y="375.667"/>
      <point x="312" y="386" type="curve" smooth="yes"/>
      <point x="312" y="406"/>
      <point x="310" y="428"/>
      <point x="307" y="451" type="curve"/>
      <point x="420" y="451" type="line"/>
      <point x="420" y="422"/>
      <point x="416" y="382"/>
      <point x="416" y="354" type="curve"/>
      <point x="416" y="354"/>
      <point x="415.958" y="351.021"/>
      <point x="419.208" y="349.896" type="curve" smooth="yes"/>
      <point x="421.974" y="348.939"/>
      <point x="425" y="352"/>
      <point x="425" y="352" type="curve"/>
      <point x="494" y="433"/>
      <point x="562" y="470"/>
      <point x="638" y="470" type="curve" smooth="yes"/>
      <point x="669" y="470"/>
      <point x="674" y="470"/>
      <point x="674" y="458" type="curve"/>
      <point x="668.07" y="433.093"/>
      <point x="665.012" y="427.05"/>
      <point x="657" y="395" type="curve" smooth="yes"/>
      <point x="646" y="355"/>
      <point x="646" y="331"/>
      <point x="633" y="331" type="curve" smooth="yes"/>
      <point x="624" y="331"/>
      <point x="610" y="349"/>
      <point x="591" y="372" type="curve" smooth="yes"/>
      <point x="572" y="396"/>
      <point x="557" y="405"/>
      <point x="540" y="405" type="curve" smooth="yes"/>
      <point x="513" y="405"/>
      <point x="470" y="370"/>
      <point x="425" y="315" type="curve"/>
      <point x="462" y="303"/>
      <point x="497" y="288"/>
      <point x="531" y="270" type="curve" smooth="yes"/>
      <point x="565" y="252"/>
      <point x="600" y="221"/>
      <point x="635" y="176" type="curve" smooth="yes"/>
      <point x="671" y="131"/>
      <point x="697" y="73"/>
      <point x="712" y="0" type="curve"/>
      <point x="589" y="0" type="line"/>
      <point x="579" y="64"/>
      <point x="558" y="117"/>
      <point x="526" y="160" type="curve" smooth="yes"/>
      <point x="494" y="203"/>
      <point x="463" y="224"/>
      <point x="434" y="224" type="curve" smooth="yes"/>
      <point x="421" y="224"/>
      <point x="417" y="209"/>
      <point x="417" y="190" type="curve" smooth="yes"/>
      <point x="417" y="166"/>
      <point x="417" y="144"/>
      <point x="417" y="122" type="curve" smooth="yes"/>
      <point x="417" y="84"/>
      <point x="418" y="46"/>
      <point x="422" y="0" type="curve"/>
      <point x="307" y="0" type="line"/>
      <point x="310" y="25"/>
      <point x="311" y="74"/>
      <point x="311" y="122" type="curve" smooth="yes"/>
      <point x="311" y="143.333"/>
      <point x="311" y="164.667"/>
      <point x="311" y="186" type="curve" smooth="yes"/>
      <point x="311" y="213"/>
      <point x="310" y="238"/>
      <point x="310" y="262" type="curve"/>
      <point x="201" y="217"/>
      <point x="133" y="127"/>
    </contour>
  </outline>
</glyph>
<glyph name="afii10073" format="2">
  <advance width="618"/>
  <unicode hex="0437"/>
  <anchor x="467" y="623" name="Yerik"/>
  <anchor x="307" y="623" name="Above"/>
  <outline>
    <contour>
      <point x="171" y="262" type="curve"/>
      <point x="57" y="272" type="line"/>
      <point x="64" y="348"/>
      <point x="92" y="399"/>
      <point x="142" y="424" type="curve" smooth="yes"/>
      <point x="192" y="449"/>
      <point x="248" y="462"/>
      <point x="309" y="462" type="curve" smooth="yes"/>
      <point x="457" y="462"/>
      <point x="548" y="408"/>
      <point x="548" y="317" type="curve" smooth="yes"/>
      <point x="548" y="284"/>
      <point x="536" y="257"/>
      <point x="512" y="236" type="curve" smooth="yes"/>
      <point x="488" y="215"/>
      <point x="462" y="205"/>
      <point x="435" y="205" type="curve"/>
      <point x="420.499" y="205.335" type="line"/>
      <point x="412.834" y="204.334"/>
      <point x="409" y="202"/>
      <point x="409" y="200" type="curve" smooth="yes"/>
      <point x="409" y="192"/>
      <point x="414" y="190"/>
      <point x="451" y="173" type="curve" smooth="yes"/>
      <point x="470" y="165"/>
      <point x="495" y="143"/>
      <point x="526" y="108" type="curve" smooth="yes"/>
      <point x="558" y="73"/>
      <point x="574" y="27"/>
      <point x="574" y="-29" type="curve" smooth="yes"/>
      <point x="574" y="-90"/>
      <point x="557" y="-142"/>
      <point x="523" y="-184" type="curve" smooth="yes"/>
      <point x="490" y="-226"/>
      <point x="444" y="-247"/>
      <point x="387" y="-247" type="curve" smooth="yes"/>
      <point x="343" y="-247"/>
      <point x="318" y="-238"/>
      <point x="266" y="-205" type="curve" smooth="yes"/>
      <point x="214" y="-173"/>
      <point x="177" y="-155"/>
      <point x="128" y="-155" type="curve" smooth="yes"/>
      <point x="105" y="-155"/>
      <point x="76" y="-170"/>
      <point x="40" y="-200" type="curve" smooth="yes"/>
      <point x="34" y="-206"/>
      <point x="29" y="-209"/>
      <point x="25" y="-209" type="curve" smooth="yes"/>
      <point x="16" y="-209"/>
      <point x="0" y="-182"/>
      <point x="0" y="-153" type="curve" smooth="yes"/>
      <point x="0" y="-109"/>
      <point x="28" y="-63"/>
      <point x="87" y="-63" type="curve" smooth="yes"/>
      <point x="139" y="-63"/>
      <point x="171" y="-86"/>
      <point x="226" y="-122" type="curve" smooth="yes"/>
      <point x="281" y="-158"/>
      <point x="330" y="-188"/>
      <point x="366" y="-188" type="curve" smooth="yes"/>
      <point x="419" y="-188"/>
      <point x="469" y="-143"/>
      <point x="469" y="-59" type="curve" smooth="yes"/>
      <point x="469" y="-9"/>
      <point x="456" y="29"/>
      <point x="429" y="54" type="curve" smooth="yes"/>
      <point x="403" y="79"/>
      <point x="368" y="102"/>
      <point x="325" y="122" type="curve"/>
      <point x="305.317" y="94.6834"/>
      <point x="285.836" y="67.1642"/>
      <point x="266" y="40" type="curve"/>
      <point x="263" y="34"/>
      <point x="259" y="31"/>
      <point x="255" y="31" type="curve" smooth="yes"/>
      <point x="252" y="31"/>
      <point x="248" y="33"/>
      <point x="243" y="38" type="curve"/>
      <point x="184" y="77" type="line" smooth="yes"/>
      <point x="175" y="82"/>
      <point x="175" y="84"/>
      <point x="174" y="87" type="curve" smooth="yes"/>
      <point x="175" y="91"/>
      <point x="178" y="96"/>
      <point x="179" y="97" type="curve" smooth="yes"/>
      <point x="215.241" y="146.491"/>
      <point x="249.809" y="197.613"/>
      <point x="285" y="248" type="curve"/>
      <point x="372" y="215" type="line"/>
      <point x="375" y="215"/>
      <point x="378" y="214"/>
      <point x="381" y="214" type="curve" smooth="yes"/>
      <point x="419" y="214"/>
      <point x="440" y="256"/>
      <point x="440" y="311" type="curve" smooth="yes"/>
      <point x="440" y="394"/>
      <point x="379" y="434"/>
      <point x="303" y="434" type="curve" smooth="yes"/>
      <point x="219" y="434"/>
      <point x="166" y="381"/>
      <point x="166" y="305" type="curve" smooth="yes"/>
      <point x="166" y="290"/>
      <point x="170" y="274"/>
    </contour>
  </outline>
</glyph>
<glyph name="afii10074" format="2">
  <advance width="500"/>
  <unicode hex="0438"/>
  <anchor x="367" y="623" name="Yerik"/>
  <anchor x="257" y="623" name="Above"/>
  <outline>
    <contour>
      <point x="173" y="239" type="line"/>
      <point x="173" y="220"/>
      <point x="171" y="123"/>
      <point x="171" y="104" type="curve" smooth="yes"/>
      <point x="173" y="0" type="line"/>
      <point x="68" y="0" type="line"/>
      <point x="68" y="0"/>
      <point x="66.92" y="51.48"/>
      <point x="66.92" y="112.536" type="curve" smooth="yes"/>
      <point x="66.92" y="153.24"/>
      <point x="67.4" y="198.2"/>
      <point x="69" y="235" type="curve" smooth="yes"/>
      <point x="73" y="320"/>
      <point x="73" y="378"/>
      <point x="89" y="451" type="curve"/>
      <point x="188" y="451" type="line"/>
      <point x="176" y="356"/>
      <point x="177" y="361"/>
      <point x="173" y="264" type="curve"/>
      <point x="322" y="332" type="line"/>
      <point x="322" y="353"/>
      <point x="329" y="428"/>
      <point x="329" y="451" type="curve"/>
      <point x="432" y="451" type="line"/>
      <point x="426.917" y="397.631"/>
      <point x="422.552" y="312.687"/>
      <point x="422.552" y="243.584" type="curve" smooth="yes"/>
      <point x="422.552" y="231.114"/>
      <point x="422.694" y="219.16"/>
      <point x="423" y="208" type="curve" smooth="yes"/>
      <point x="426" y="103"/>
      <point x="423" y="116"/>
      <point x="433" y="0" type="curve"/>
      <point x="325" y="0" type="line"/>
      <point x="323" y="42"/>
      <point x="320" y="97"/>
      <point x="319" y="154" type="curve" smooth="yes"/>
      <point x="318.809" y="162.785"/>
      <point x="318.727" y="172.191"/>
      <point x="318.727" y="181.965" type="curve" smooth="yes"/>
      <point x="318.727" y="223.371"/>
      <point x="320.191" y="271.403"/>
      <point x="321" y="307" type="curve"/>
    </contour>
  </outline>
</glyph>
<glyph name="afii10076" format="2">
  <advance width="537"/>
  <unicode hex="043A"/>
  <anchor x="397" y="623" name="Yerik"/>
  <anchor x="257" y="623" name="Above"/>
  <outline>
    <contour>
      <point x="170" y="113" type="curve"/>
      <point x="172" y="0" type="line"/>
      <point x="66" y="0" type="line"/>
      <point x="66" y="69.6347"/>
      <point x="68.6008" y="185.445"/>
      <point x="70" y="268" type="curve" smooth="yes"/>
      <point x="74" y="451" type="line"/>
      <point x="181" y="451" type="line"/>
      <point x="177.597" y="405.99"/>
      <point x="174.984" y="355.212"/>
      <point x="173.16" y="302" type="curve" smooth="yes"/>
      <point x="171.053" y="240.537"/>
      <point x="170" y="175.825"/>
    </contour>
    <contour>
      <point x="504" y="0" type="curve"/>
      <point x="395" y="0" type="line"/>
      <point x="387" y="1"/>
      <point x="383" y="4"/>
      <point x="383" y="9" type="curve" smooth="yes"/>
      <point x="385" y="39" type="line"/>
      <point x="385" y="93"/>
      <point x="373" y="131"/>
      <point x="349" y="154" type="curve" smooth="yes"/>
      <point x="326" y="177"/>
      <point x="303" y="192"/>
      <point x="281" y="199" type="curve" smooth="yes"/>
      <point x="237" y="215"/>
      <point x="229" y="216"/>
      <point x="229" y="227" type="curve" smooth="yes"/>
      <point x="229" y="243"/>
      <point x="237" y="267"/>
      <point x="252" y="298" type="curve" smooth="yes"/>
      <point x="268" y="330"/>
      <point x="286" y="360"/>
      <point x="306" y="389" type="curve" smooth="yes"/>
      <point x="347" y="446"/>
      <point x="387" y="487"/>
      <point x="463" y="487" type="curve" smooth="yes"/>
      <point x="480" y="487"/>
      <point x="489" y="483"/>
      <point x="489" y="476" type="curve" smooth="yes"/>
      <point x="488" y="465"/>
      <point x="450" y="435"/>
      <point x="450" y="408" type="curve" smooth="yes"/>
      <point x="450" y="391.103"/>
      <point x="455.997" y="376.013"/>
      <point x="459" y="361" type="curve" smooth="yes"/>
      <point x="459" y="356"/>
      <point x="457" y="354"/>
      <point x="452" y="354" type="curve"/>
      <point x="427.307" y="364.168"/>
      <point x="399.626" y="377"/>
      <point x="372" y="377" type="curve" smooth="yes"/>
      <point x="345" y="377"/>
      <point x="321" y="363"/>
      <point x="302" y="334" type="curve" smooth="yes"/>
      <point x="283" y="305"/>
      <point x="267.001" y="277.836"/>
      <point x="253.001" y="248.836" type="curve"/>
      <point x="253.001" y="248.836"/>
      <point x="251.174" y="244.645"/>
      <point x="256.164" y="244.334" type="curve" smooth="yes"/>
      <point x="258.831" y="244.168"/>
      <point x="261" y="244"/>
      <point x="261" y="244" type="curve"/>
      <point x="318" y="244"/>
      <point x="368" y="228"/>
      <point x="409" y="197" type="curve" smooth="yes"/>
      <point x="451" y="166"/>
      <point x="483" y="100"/>
    </contour>
  </outline>
</glyph>
<glyph name="afii10077" format="2">
  <advance width="444"/>
  <unicode hex="043B"/>
  <anchor x="327" y="623" name="Yerik"/>
  <anchor x="266" y="623" name="Above"/>
  <outline>
    <contour>
      <point x="242" y="451" type="curve"/>
      <point x="358" y="451" type="line"/>
      <point x="358" y="338.614"/>
      <point x="375.534" y="186.281"/>
      <point x="394" y="96" type="curve" smooth="yes"/>
      <point x="406.33" y="41.7467"/>
      <point x="408.5" y="32.667"/>
      <point x="413" y="13" type="curve" smooth="yes"/>
      <point x="415.008" y="4.22656"/>
      <point x="405" y="-1"/>
      <point x="394" y="-1" type="curve" smooth="yes"/>
      <point x="357" y="-1"/>
      <point x="312" y="-1"/>
      <point x="305" y="3" type="curve" smooth="yes"/>
      <point x="302" y="5"/>
      <point x="297" y="26"/>
      <point x="290" y="66" type="curve" smooth="yes"/>
      <point x="280.667" y="119.33"/>
      <point x="274.865" y="161.394"/>
      <point x="269.141" y="204.9" type="curve" smooth="yes"/>
      <point x="265.386" y="233.449"/>
      <point x="261.664" y="262.618"/>
      <point x="257" y="296" type="curve"/>
      <point x="257" y="296"/>
      <point x="255.667" y="299.833"/>
      <point x="251" y="298" type="curve"/>
      <point x="242.57" y="290.764"/>
      <point x="236.454" y="281.212"/>
      <point x="230" y="272" type="curve" smooth="yes"/>
      <point x="194.283" y="219.2"/>
      <point x="141" y="126.792"/>
      <point x="141" y="47" type="curve" smooth="yes"/>
      <point x="141" y="31"/>
      <point x="144" y="15"/>
      <point x="151" y="0" type="curve"/>
      <point x="49" y="0" type="line" smooth="yes"/>
      <point x="40" y="0"/>
      <point x="35" y="4"/>
      <point x="35" y="12" type="curve" smooth="yes"/>
      <point x="35" y="27"/>
      <point x="60" y="72"/>
      <point x="109" y="148" type="curve" smooth="yes"/>
      <point x="159" y="224"/>
      <point x="195" y="275"/>
      <point x="218" y="301" type="curve" smooth="yes"/>
      <point x="241" y="328"/>
      <point x="253" y="343"/>
      <point x="253" y="348" type="curve" smooth="yes"/>
      <point x="253" y="361"/>
      <point x="248" y="395"/>
      <point x="248" y="400" type="curve" smooth="yes"/>
      <point x="246" y="417"/>
      <point x="244" y="434"/>
    </contour>
  </outline>
</glyph>
<glyph name="afii10081" format="2">
  <advance width="519"/>
  <unicode hex="043F"/>
  <anchor x="367" y="623" name="Yerik"/>
  <anchor x="257" y="623" name="Above"/>
  <outline>
    <contour>
      <point x="164" y="242" type="curve" smooth="yes"/>
      <point x="164" y="191.944"/>
      <point x="165.898" y="151.148"/>
      <point x="168.619" y="116" type="curve" smooth="yes"/>
      <point x="172.144" y="70.4739"/>
      <point x="177.05" y="34.4235"/>
      <point x="181" y="0" type="curve"/>
      <point x="69" y="0" type="line"/>
      <point x="63.5075" y="62.2485"/>
      <point x="58" y="161.434"/>
      <point x="58" y="228" type="curve" smooth="yes"/>
      <point x="58" y="280.124"/>
      <point x="64.3849" y="406.543"/>
      <point x="67" y="451" type="curve"/>
      <point x="455" y="451" type="line"/>
      <point x="449" y="414"/>
      <point x="441" y="341.561"/>
      <point x="441" y="234" type="curve" smooth="yes"/>
      <point x="441" y="135.451"/>
      <point x="444.041" y="85.7816"/>
      <point x="460" y="0" type="curve"/>
      <point x="345" y="0" type="line"/>
      <point x="335.381" y="100.039"/>
      <point x="333" y="135.872"/>
      <point x="333" y="237" type="curve" smooth="yes"/>
      <point x="333" y="310"/>
      <point x="336" y="357"/>
      <point x="343" y="425" type="curve"/>
      <point x="175" y="425" type="line"/>
      <point x="168" y="365"/>
      <point x="164" y="322"/>
    </contour>
  </outline>
</glyph>
<glyph name="afii10082" format="2">
  <advance width="352"/>
  <unicode hex="0440"/>
  <anchor x="247" y="623" name="Yerik"/>
  <anchor x="187" y="623" name="Above"/>
  <outline>
    <contour>
      <point x="289" y="457" type="line"/>
      <point x="284" y="428"/>
      <point x="280" y="404"/>
      <point x="280" y="367" type="curve" smooth="yes"/>
      <point x="280" y="352"/>
      <point x="282" y="317"/>
      <point x="287" y="260" type="curve" smooth="yes"/>
      <point x="292" y="204"/>
      <point x="295" y="175"/>
      <point x="295" y="174" type="curve" smooth="yes"/>
      <point x="295" y="104.065"/>
      <point x="267.3" y="19.3126"/>
      <point x="213" y="8" type="curve" smooth="yes"/>
      <point x="190" y="3"/>
      <point x="177" y="0"/>
      <point x="176" y="-3" type="curve" smooth="yes"/>
      <point x="175" y="-6"/>
      <point x="175" y="-14"/>
      <point x="175" y="-27" type="curve" smooth="yes"/>
      <point x="175" y="-94"/>
      <point x="168" y="-137"/>
      <point x="139" y="-181" type="curve" smooth="yes"/>
      <point x="111" y="-226"/>
      <point x="82" y="-249"/>
      <point x="67" y="-249" type="curve" smooth="yes"/>
      <point x="60" y="-249"/>
      <point x="56" y="-245"/>
      <point x="56" y="-238" type="curve" smooth="yes"/>
      <point x="56" y="-237"/>
      <point x="55" y="-235"/>
      <point x="68" y="-215" type="curve" smooth="yes"/>
      <point x="83" y="-195"/>
      <point x="87" y="-159"/>
      <point x="87" y="-112" type="curve" smooth="yes"/>
      <point x="87" y="-16.6298"/>
      <point x="80.7421" y="1.45723"/>
      <point x="69" y="86" type="curve" smooth="yes"/>
      <point x="65" y="122"/>
      <point x="63" y="149"/>
      <point x="63" y="167" type="curve" smooth="yes"/>
      <point x="63" y="286"/>
      <point x="111" y="365"/>
      <point x="158" y="408" type="curve" smooth="yes"/>
      <point x="206" y="452"/>
      <point x="236" y="457"/>
      <point x="277" y="457" type="curve" smooth="yes"/>
    </contour>
    <contour>
      <point x="232" y="240" type="curve"/>
      <point x="206" y="319" type="line"/>
      <point x="155" y="304"/>
      <point x="123" y="287"/>
      <point x="123" y="231" type="curve" smooth="yes"/>
      <point x="123" y="189.647"/>
      <point x="149.706" y="139.845"/>
      <point x="157" y="99" type="curve"/>
      <point x="205" y="106"/>
      <point x="245" y="120"/>
      <point x="245" y="179" type="curve" smooth="yes"/>
      <point x="245" y="203"/>
      <point x="239" y="223"/>
    </contour>
  </outline>
</glyph>
<glyph name="afii10083" format="2">
  <advance width="333"/>
  <unicode hex="0441"/>
  <anchor x="247" y="623" name="Yerik"/>
  <anchor x="187" y="623" name="Above"/>
  <outline>
    <contour>
      <point x="70" y="-14" type="curve"/>
      <point x="70" y="6.20952"/>
      <point x="75" y="81.4425"/>
      <point x="75" y="101" type="curve" smooth="yes"/>
      <point x="71" y="280" type="line"/>
      <point x="71" y="357"/>
      <point x="89" y="406"/>
      <point x="124" y="428" type="curve" smooth="yes"/>
      <point x="160" y="450"/>
      <point x="212" y="461"/>
      <point x="279" y="461" type="curve"/>
      <point x="279" y="435.333"/>
      <point x="279" y="409.667"/>
      <point x="279" y="384" type="curve" smooth="yes"/>
      <point x="279" y="368"/>
      <point x="278" y="358"/>
      <point x="276" y="355" type="curve" smooth="yes"/>
      <point x="275" y="352"/>
      <point x="261" y="348"/>
      <point x="235" y="345" type="curve" smooth="yes"/>
      <point x="210" y="342"/>
      <point x="192" y="330"/>
      <point x="182" y="309" type="curve" smooth="yes"/>
      <point x="172" y="288"/>
      <point x="167" y="238"/>
      <point x="167" y="159" type="curve" smooth="yes"/>
      <point x="167" y="150"/>
      <point x="167" y="140"/>
      <point x="167" y="132" type="curve" smooth="yes"/>
      <point x="167" y="111"/>
      <point x="169" y="95"/>
      <point x="182" y="95" type="curve" smooth="yes"/>
      <point x="191" y="95"/>
      <point x="208" y="106"/>
      <point x="229" y="129" type="curve" smooth="yes"/>
      <point x="250" y="152"/>
      <point x="258" y="161"/>
      <point x="267" y="161" type="curve" smooth="yes"/>
      <point x="276" y="161"/>
      <point x="281" y="154"/>
      <point x="281" y="141" type="curve" smooth="yes"/>
      <point x="281" y="117"/>
      <point x="259" y="61"/>
      <point x="220" y="25" type="curve" smooth="yes"/>
      <point x="180.486" y="-12.4343"/>
      <point x="146.657" y="-14"/>
    </contour>
  </outline>
</glyph>
<glyph name="afii10084" format="2">
  <advance width="630"/>
  <unicode hex="0442"/>
  <anchor x="517" y="623" name="Yerik"/>
  <anchor x="337" y="623" name="Above"/>
  <outline>
    <contour>
      <point x="154" y="319" type="line" smooth="yes"/>
      <point x="154" y="301"/>
      <point x="157" y="213"/>
      <point x="157" y="199" type="curve"/>
      <point x="52" y="199" type="line"/>
      <point x="52" y="406" type="line" smooth="yes"/>
      <point x="52" y="413"/>
      <point x="51" y="418"/>
      <point x="48" y="421" type="curve" smooth="yes"/>
      <point x="43" y="426"/>
      <point x="19" y="433"/>
      <point x="19" y="442" type="curve" smooth="yes"/>
      <point x="19" y="450"/>
      <point x="24" y="451"/>
      <point x="32" y="451" type="curve" smooth="yes"/>
      <point x="565" y="451" type="line" smooth="yes"/>
      <point x="610" y="451"/>
      <point x="612" y="451"/>
      <point x="612" y="440" type="curve" smooth="yes"/>
      <point x="612" y="433"/>
      <point x="609" y="426"/>
      <point x="594" y="394" type="curve" smooth="yes"/>
      <point x="561" y="320" type="line" smooth="yes"/>
      <point x="557" y="312"/>
      <point x="552" y="302"/>
      <point x="544" y="302" type="curve" smooth="yes"/>
      <point x="533" y="302"/>
      <point x="525" y="321"/>
      <point x="504" y="374" type="curve" smooth="yes"/>
      <point x="493" y="401"/>
      <point x="486" y="416"/>
      <point x="481" y="420" type="curve" smooth="yes"/>
      <point x="477" y="425"/>
      <point x="470" y="427"/>
      <point x="460" y="427" type="curve" smooth="yes"/>
      <point x="386" y="427" type="line"/>
      <point x="382" y="356"/>
      <point x="382" y="264"/>
      <point x="382" y="227" type="curve" smooth="yes"/>
      <point x="382" y="95"/>
      <point x="387" y="33"/>
      <point x="391" y="0" type="curve"/>
      <point x="282" y="0" type="line"/>
      <point x="279" y="93"/>
      <point x="278" y="146"/>
      <point x="277" y="240" type="curve" smooth="yes"/>
      <point x="276.857" y="250.429"/>
      <point x="276.796" y="261.694"/>
      <point x="276.796" y="273.344" type="curve" smooth="yes"/>
      <point x="276.796" y="343.245"/>
      <point x="279" y="427"/>
      <point x="279" y="427" type="curve"/>
      <point x="154" y="427" type="line"/>
    </contour>
  </outline>
</glyph>
<glyph name="afii10088" format="2">
  <advance width="556"/>
  <unicode hex="0446"/>
  <anchor x="397" y="623" name="Yerik"/>
  <anchor x="257" y="623" name="Above"/>
  <outline>
    <contour>
      <point x="330" y="451" type="curve"/>
      <point x="443" y="451" type="line"/>
      <point x="428" y="343"/>
      <point x="424" y="274"/>
      <point x="424" y="163" type="curve" smooth="yes"/>
      <point x="424" y="141"/>
      <point x="425" y="73"/>
      <point x="425" y="60" type="curve" smooth="yes"/>
      <point x="425" y="22"/>
      <point x="442" y="18"/>
      <point x="486" y="18" type="curve" smooth="yes"/>
      <point x="512" y="18" type="line" smooth="yes"/>
      <point x="523" y="18"/>
      <point x="537" y="16"/>
      <point x="537" y="1" type="curve" smooth="yes"/>
      <point x="537" y="-17"/>
      <point x="506" y="-145"/>
      <point x="502" y="-162" type="curve" smooth="yes"/>
      <point x="487" y="-241" type="line"/>
      <point x="484" y="-246"/>
      <point x="481" y="-249"/>
      <point x="477" y="-249" type="curve" smooth="yes"/>
      <point x="457" y="-249"/>
      <point x="446" y="-175"/>
      <point x="446" y="-60" type="curve" smooth="yes"/>
      <point x="446" y="-31"/>
      <point x="444" y="-13"/>
      <point x="439" y="-8" type="curve" smooth="yes"/>
      <point x="434" y="-3"/>
      <point x="418" y="0"/>
      <point x="390" y="0" type="curve" smooth="yes"/>
      <point x="116" y="0" type="line" smooth="yes"/>
      <point x="76" y="0"/>
      <point x="69" y="2"/>
      <point x="67" y="33" type="curve" smooth="yes"/>
      <point x="64.5" y="63.5"/>
      <point x="63.5" y="101"/>
      <point x="63.5" y="142.375" type="curve" smooth="yes"/>
      <point x="63.5" y="183.75"/>
      <point x="64.5" y="229"/>
      <point x="66" y="275" type="curve" smooth="yes"/>
      <point x="68" y="367"/>
      <point x="74" y="449"/>
      <point x="74" y="451" type="curve"/>
      <point x="187" y="451" type="line"/>
      <point x="179" y="385"/>
      <point x="176" y="267"/>
      <point x="174" y="193" type="curve" smooth="yes"/>
      <point x="174" y="98"/>
      <point x="178" y="41"/>
      <point x="186" y="30" type="curve" smooth="yes"/>
      <point x="194" y="21"/>
      <point x="200" y="18"/>
      <point x="231" y="18" type="curve" smooth="yes"/>
      <point x="290" y="18" type="line" smooth="yes"/>
      <point x="318" y="18"/>
      <point x="320" y="24"/>
      <point x="320" y="64" type="curve" smooth="yes"/>
      <point x="320" y="120"/>
      <point x="320" y="176"/>
      <point x="320" y="230" type="curve" smooth="yes"/>
      <point x="321" y="307"/>
      <point x="323" y="381"/>
    </contour>
  </outline>
</glyph>
<glyph name="afii10091" format="2">
  <advance width="778"/>
  <unicode hex="0449"/>
  <anchor x="657" y="623" name="Yerik"/>
  <anchor x="397" y="623" name="Above"/>
  <outline>
    <contour>
      <point x="61" y="160" type="curve" smooth="yes"/>
      <point x="61" y="277"/>
      <point x="65" y="344"/>
      <point x="69" y="451" type="curve"/>
      <point x="181" y="451" type="line"/>
      <point x="170" y="356"/>
      <point x="166" y="296"/>
      <point x="166" y="189" type="curve" smooth="yes"/>
      <point x="166" y="137"/>
      <point x="168" y="109"/>
      <point x="170" y="51" type="curve" smooth="yes"/>
      <point x="171" y="31"/>
      <point x="174" y="20"/>
      <point x="211" y="20" type="curve" smooth="yes"/>
      <point x="308" y="20" type="line"/>
      <point x="324" y="21"/>
      <point x="324" y="24"/>
      <point x="324" y="64" type="curve" smooth="yes"/>
      <point x="324" y="94"/>
      <point x="324" y="193"/>
      <point x="328" y="285" type="curve" smooth="yes"/>
      <point x="330" y="358"/>
      <point x="337" y="427"/>
      <point x="338" y="451" type="curve"/>
      <point x="442" y="451" type="line"/>
      <point x="434" y="358"/>
      <point x="430" y="250"/>
      <point x="430" y="143" type="curve" smooth="yes"/>
      <point x="430" y="135.308"/>
      <point x="429.811" y="122.882"/>
      <point x="429.811" y="108.926" type="curve" smooth="yes"/>
      <point x="429.811" y="77.5266"/>
      <point x="430.769" y="38.3846"/>
      <point x="437" y="28" type="curve" smooth="yes"/>
      <point x="440" y="23"/>
      <point x="455" y="20"/>
      <point x="480" y="20" type="curve" smooth="yes"/>
      <point x="514" y="20"/>
      <point x="547" y="20"/>
      <point x="581" y="20" type="curve" smooth="yes"/>
      <point x="590" y="21"/>
      <point x="594" y="27"/>
      <point x="594" y="37" type="curve" smooth="yes"/>
      <point x="591" y="82" type="line"/>
      <point x="591" y="104"/>
      <point x="587" y="167"/>
      <point x="587" y="193" type="curve" smooth="yes"/>
      <point x="587" y="278"/>
      <point x="591" y="352"/>
      <point x="606" y="451" type="curve"/>
      <point x="700" y="451" type="line" smooth="yes"/>
      <point x="710" y="451"/>
      <point x="715" y="448"/>
      <point x="715" y="443" type="curve" smooth="yes"/>
      <point x="706" y="393" type="line" smooth="yes"/>
      <point x="695" y="332"/>
      <point x="691" y="275"/>
      <point x="691" y="203" type="curve" smooth="yes"/>
      <point x="691" y="94"/>
      <point x="696" y="53"/>
      <point x="702" y="0" type="curve"/>
      <point x="512" y="0" type="line" smooth="yes"/>
      <point x="489" y="0"/>
      <point x="455" y="0"/>
      <point x="444" y="-3" type="curve" smooth="yes"/>
      <point x="435" y="-6"/>
      <point x="434" y="-19"/>
      <point x="434" y="-30" type="curve" smooth="yes"/>
      <point x="434" y="-85"/>
      <point x="428" y="-145"/>
      <point x="415" y="-184" type="curve" smooth="yes"/>
      <point x="402" y="-224"/>
      <point x="391" y="-249"/>
      <point x="375" y="-249" type="curve" smooth="yes"/>
      <point x="368" y="-249"/>
      <point x="365" y="-245"/>
      <point x="365" y="-236" type="curve" smooth="yes"/>
      <point x="368" y="-191" type="line"/>
      <point x="368" y="-136"/>
      <point x="363" y="-73"/>
      <point x="344" y="-37" type="curve" smooth="yes"/>
      <point x="326" y="-1"/>
      <point x="321" y="0"/>
      <point x="268" y="0" type="curve" smooth="yes"/>
      <point x="64" y="0" type="line"/>
      <point x="64" y="67"/>
      <point x="62" y="112"/>
    </contour>
  </outline>
</glyph>
<glyph name="afii10094" format="2">
  <advance width="463"/>
  <unicode hex="044C"/>
  <anchor x="367" y="623" name="Yerik"/>
  <anchor x="257" y="623" name="Above"/>
  <outline>
    <contour>
      <point x="63" y="0" type="line"/>
      <point x="63" y="104.306"/>
      <point x="81.7385" y="361.666"/>
      <point x="94" y="451" type="curve"/>
      <point x="202" y="451" type="line"/>
      <point x="196.762" y="416.95"/>
      <point x="179" y="255.529"/>
      <point x="179" y="215" type="curve"/>
      <point x="250" y="246" type="line" smooth="yes"/>
      <point x="257.417" y="248.781"/>
      <point x="309.975" y="273"/>
      <point x="319" y="273" type="curve" smooth="yes"/>
      <point x="325" y="273"/>
      <point x="332" y="266"/>
      <point x="339" y="253" type="curve" smooth="yes"/>
      <point x="349.116" y="236.562"/>
      <point x="371.576" y="185.896"/>
      <point x="393.498" y="134" type="curve" smooth="yes"/>
      <point x="415.635" y="81.5964"/>
      <point x="437.223" y="27.9383"/>
      <point x="445" y="7" type="curve"/>
      <point x="441" y="0" type="line"/>
    </contour>
    <contour>
      <point x="177" y="173" type="curve" smooth="yes"/>
      <point x="173.5" y="107"/>
      <point x="172" y="52.7361"/>
      <point x="172" y="21" type="curve"/>
      <point x="264" y="21" type="line" smooth="yes"/>
      <point x="311" y="21"/>
      <point x="311" y="22"/>
      <point x="311" y="34" type="curve"/>
      <point x="305.104" y="59.0591"/>
      <point x="295.563" y="86.9547"/>
      <point x="284.773" y="114" type="curve" smooth="yes"/>
      <point x="274.296" y="140.26"/>
      <point x="262.641" y="165.718"/>
      <point x="252" y="187" type="curve" smooth="yes"/>
      <point x="247" y="199"/>
      <point x="241" y="211"/>
      <point x="230" y="211" type="curve" smooth="yes"/>
      <point x="223" y="211"/>
      <point x="217" y="207"/>
      <point x="210" y="204" type="curve" smooth="yes"/>
      <point x="194" y="196" type="line" smooth="yes"/>
      <point x="183" y="191"/>
      <point x="177.53" y="182.986"/>
    </contour>
  </outline>
</glyph>
<glyph name="afii10095" format="2">
  <advance width="556"/>
  <unicode hex="044D"/>
  <anchor x="457" y="623" name="Yerik"/>
  <anchor x="307" y="623" name="Above"/>
  <outline>
    <contour>
      <point x="155" y="-127" type="line"/>
      <point x="196.577" y="-162.638"/>
      <point x="241.475" y="-191"/>
      <point x="269" y="-191" type="curve" smooth="yes"/>
      <point x="292" y="-191"/>
      <point x="319" y="-174"/>
      <point x="349" y="-140" type="curve" smooth="yes"/>
      <point x="379" y="-106"/>
      <point x="404" y="-48"/>
      <point x="425" y="35" type="curve"/>
      <point x="424" y="35"/>
      <point x="402" y="49"/>
      <point x="358" y="78" type="curve" smooth="yes"/>
      <point x="313" y="107"/>
      <point x="283" y="122"/>
      <point x="268" y="122" type="curve" smooth="yes"/>
      <point x="252" y="122"/>
      <point x="239" y="110"/>
      <point x="212" y="73" type="curve" smooth="yes"/>
      <point x="185" y="37"/>
      <point x="179" y="29"/>
      <point x="163" y="29" type="curve"/>
      <point x="144" y="31" type="line" smooth="yes"/>
      <point x="130" y="33"/>
      <point x="116" y="33"/>
      <point x="99" y="33" type="curve" smooth="yes"/>
      <point x="88" y="33"/>
      <point x="75" y="33"/>
      <point x="59" y="33" type="curve" smooth="yes"/>
      <point x="46" y="33"/>
      <point x="33" y="36"/>
      <point x="33" y="45" type="curve" smooth="yes"/>
      <point x="33" y="50"/>
      <point x="47" y="66"/>
      <point x="55" y="73" type="curve" smooth="yes"/>
      <point x="58" y="76"/>
      <point x="70" y="89"/>
      <point x="89" y="112" type="curve" smooth="yes"/>
      <point x="143" y="182"/>
      <point x="165" y="216"/>
      <point x="187" y="216" type="curve" smooth="yes"/>
      <point x="189" y="216"/>
      <point x="190" y="216"/>
      <point x="192" y="216" type="curve" smooth="yes"/>
      <point x="208" y="216"/>
      <point x="220" y="211"/>
      <point x="253" y="191" type="curve" smooth="yes"/>
      <point x="285" y="171"/>
      <point x="337" y="132"/>
      <point x="389" y="95" type="curve" smooth="yes"/>
      <point x="431" y="65" type="line"/>
      <point x="438" y="102"/>
      <point x="442" y="132"/>
      <point x="442" y="163" type="curve" smooth="yes"/>
      <point x="442" y="229"/>
      <point x="426" y="284"/>
      <point x="393" y="327" type="curve" smooth="yes"/>
      <point x="360" y="370"/>
      <point x="324" y="392"/>
      <point x="287" y="392" type="curve" smooth="yes"/>
      <point x="248" y="392"/>
      <point x="210" y="366"/>
      <point x="210" y="329" type="curve" smooth="yes"/>
      <point x="210" y="317"/>
      <point x="204" y="313"/>
      <point x="192" y="316" type="curve" smooth="yes"/>
      <point x="66" y="344" type="line" smooth="yes"/>
      <point x="55" y="346"/>
      <point x="50" y="350"/>
      <point x="50" y="355" type="curve" smooth="yes"/>
      <point x="50" y="359"/>
      <point x="55" y="365"/>
      <point x="65" y="372" type="curve"/>
      <point x="80" y="386" type="line"/>
      <point x="111" y="418"/>
      <point x="158" y="452"/>
      <point x="234" y="452" type="curve" smooth="yes"/>
      <point x="258" y="452"/>
      <point x="285" y="447"/>
      <point x="314" y="437" type="curve" smooth="yes"/>
      <point x="343" y="428"/>
      <point x="378" y="405"/>
      <point x="421" y="370" type="curve" smooth="yes"/>
      <point x="506" y="299"/>
      <point x="540" y="215"/>
      <point x="540" y="120" type="curve" smooth="yes"/>
      <point x="540" y="26.9498"/>
      <point x="499.518" y="-87.3965"/>
      <point x="463" y="-144" type="curve" smooth="yes"/>
      <point x="423" y="-208"/>
      <point x="388" y="-244"/>
      <point x="324" y="-244" type="curve" smooth="yes"/>
      <point x="280" y="-244"/>
      <point x="218" y="-221"/>
      <point x="138" y="-150" type="curve"/>
    </contour>
  </outline>
</glyph>
<glyph name="uni0450" format="2">
  <advance width="315"/>
  <unicode hex="0450"/>
  <anchor x="177" y="925" name="Yerik"/>
  <anchor x="177" y="923" name="Above"/>
  <outline>
    <contour>
      <point x="62" y="-1" type="line"/>
      <point x="62" y="265" type="line" smooth="yes"/>
      <point x="62" y="374"/>
      <point x="74" y="418"/>
      <point x="121" y="438" type="curve" smooth="yes"/>
      <point x="171" y="462"/>
      <point x="191" y="462"/>
      <point x="265" y="462" type="curve"/>
      <point x="265" y="399" type="line"/>
      <point x="264" y="393"/>
      <point x="251" y="388"/>
      <point x="224" y="385" type="curve" smooth="yes"/>
      <point x="171" y="380"/>
      <point x="150" y="350"/>
      <point x="150" y="287" type="curve" smooth="yes"/>
      <point x="150" y="259" type="line"/>
      <point x="255" y="299" type="line"/>
      <point x="255" y="237" type="line" smooth="yes"/>
      <point x="255" y="213"/>
      <point x="251" y="208"/>
      <point x="216" y="195" type="curve" smooth="yes"/>
      <point x="151" y="172" type="line"/>
      <point x="151" y="78" type="line"/>
      <point x="170" y="87"/>
      <point x="188" y="97"/>
      <point x="207" y="106" type="curve" smooth="yes"/>
      <point x="218" y="111"/>
      <point x="224" y="114"/>
      <point x="227" y="114" type="curve" smooth="yes"/>
      <point x="234" y="114"/>
      <point x="238" y="109"/>
      <point x="238" y="100" type="curve" smooth="yes"/>
      <point x="238" y="83"/>
      <point x="225" y="61"/>
      <point x="199" y="35" type="curve" smooth="yes"/>
      <point x="174" y="10"/>
      <point x="139" y="-3"/>
      <point x="95" y="-3" type="curve"/>
    </contour>
    <contour>
      <point x="112" y="687" type="curve" smooth="yes"/>
      <point x="65" y="761" type="line" smooth="yes"/>
      <point x="48" y="789"/>
      <point x="38" y="806"/>
      <point x="38" y="809" type="curve" smooth="yes"/>
      <point x="38" y="816"/>
      <point x="42" y="817"/>
      <point x="49" y="817" type="curve" smooth="yes"/>
      <point x="74" y="815" type="line"/>
      <point x="107" y="811"/>
      <point x="110" y="810"/>
      <point x="118" y="795" type="curve" smooth="yes"/>
      <point x="134" y="764"/>
      <point x="150" y="733"/>
      <point x="166" y="703" type="curve"/>
      <point x="180" y="673" type="line"/>
      <point x="199" y="637" type="line"/>
      <point x="201" y="630" type="line"/>
      <point x="201" y="625"/>
      <point x="196" y="623"/>
      <point x="185" y="623" type="curve" smooth="yes"/>
      <point x="169" y="623"/>
      <point x="158" y="626"/>
      <point x="151" y="632" type="curve" smooth="yes"/>
      <point x="144" y="638"/>
      <point x="131" y="656"/>
    </contour>
  </outline>
</glyph>
<glyph name="afii10071" format="2">
  <advance width="315"/>
  <unicode hex="0451"/>
  <anchor x="157" y="743" name="Yerik"/>
  <anchor x="157" y="743" name="Above"/>
  <outline>
    <contour>
      <point x="54" y="540" type="line"/>
      <point x="36" y="651" type="line"/>
      <point x="123" y="651" type="line"/>
      <point x="143" y="540" type="line"/>
    </contour>
    <contour>
      <point x="201" y="540" type="line"/>
      <point x="181" y="651" type="line"/>
      <point x="270" y="651" type="line"/>
      <point x="287" y="540" type="line"/>
    </contour>
    <contour>
      <point x="62" y="-1" type="line"/>
      <point x="62" y="265" type="line" smooth="yes"/>
      <point x="62" y="374"/>
      <point x="74" y="418"/>
      <point x="121" y="438" type="curve" smooth="yes"/>
      <point x="171" y="462"/>
      <point x="191" y="462"/>
      <point x="265" y="462" type="curve"/>
      <point x="265" y="399" type="line"/>
      <point x="264" y="393"/>
      <point x="251" y="388"/>
      <point x="224" y="385" type="curve" smooth="yes"/>
      <point x="171" y="380"/>
      <point x="150" y="350"/>
      <point x="150" y="287" type="curve" smooth="yes"/>
      <point x="150" y="259" type="line"/>
      <point x="255" y="299" type="line"/>
      <point x="255" y="237" type="line" smooth="yes"/>
      <point x="255" y="213"/>
      <point x="251" y="208"/>
      <point x="216" y="195" type="curve" smooth="yes"/>
      <point x="151" y="172" type="line"/>
      <point x="151" y="78" type="line"/>
      <point x="170" y="87"/>
      <point x="188" y="97"/>
      <point x="207" y="106" type="curve" smooth="yes"/>
      <point x="218" y="111"/>
      <point x="224" y="114"/>
      <point x="227" y="114" type="curve" smooth="yes"/>
      <point x="234" y="114"/>
      <point x="238" y="109"/>
      <point x="238" y="100" type="curve" smooth="yes"/>
      <point x="238" y="83"/>
      <point x="225" y="61"/>
      <point x="199" y="35" type="curve" smooth="yes"/>
      <point x="174" y="10"/>
      <point x="139" y="-3"/>
      <point x="95" y="-3" type="curve"/>
    </contour>
  </outline>
</glyph>
<glyph name="afii10100" format="2">
  <advance width="389"/>
  <unicode hex="0453"/>
  <anchor x="187" y="893" name="Yerik"/>
  <anchor x="187" y="893" name="Above"/>
  <outline>
    <contour>
      <point x="214" y="655" type="curve"/>
      <point x="207" y="642" type="line" smooth="yes"/>
      <point x="200" y="627"/>
      <point x="183" y="624"/>
      <point x="162" y="624" type="curve" smooth="yes"/>
      <point x="158" y="626"/>
      <point x="156" y="628"/>
      <point x="156" y="630" type="curve" smooth="yes"/>
      <point x="158" y="638" type="line"/>
      <point x="170.831" y="671.169"/>
      <point x="182.723" y="705.277"/>
      <point x="195" y="739" type="curve" smooth="yes"/>
      <point x="202.507" y="759.826"/>
      <point x="210.124" y="780.543"/>
      <point x="218" y="801" type="curve" smooth="yes"/>
      <point x="221" y="808"/>
      <point x="225" y="811"/>
      <point x="230" y="812" type="curve" smooth="yes"/>
      <point x="277" y="817" type="line" smooth="yes"/>
      <point x="282" y="817"/>
      <point x="285" y="815"/>
      <point x="285" y="810" type="curve"/>
      <point x="263.401" y="756.266"/>
      <point x="237.343" y="706.99"/>
    </contour>
    <contour>
      <point x="169" y="427" type="line"/>
      <point x="158.68" y="352.18"/>
      <point x="157" y="324.617"/>
      <point x="157" y="229" type="curve" smooth="yes"/>
      <point x="157" y="155"/>
      <point x="163" y="79"/>
      <point x="176" y="0" type="curve"/>
      <point x="65" y="0" type="line"/>
      <point x="56" y="71"/>
      <point x="52" y="159"/>
      <point x="52" y="239" type="curve" smooth="yes"/>
      <point x="52" y="346.207"/>
      <point x="53.2552" y="352.621"/>
      <point x="62" y="451" type="curve"/>
      <point x="159" y="451"/>
      <point x="256" y="451"/>
      <point x="353" y="451" type="curve" smooth="yes"/>
      <point x="364" y="451"/>
      <point x="369" y="449"/>
      <point x="369" y="444" type="curve"/>
      <point x="357" y="417" type="line"/>
      <point x="342" y="388"/>
      <point x="332" y="348"/>
      <point x="332" y="324" type="curve" smooth="yes"/>
      <point x="332" y="313"/>
      <point x="330" y="308"/>
      <point x="325" y="308" type="curve" smooth="yes"/>
      <point x="309" y="308"/>
      <point x="293" y="336"/>
      <point x="272" y="383" type="curve" smooth="yes"/>
      <point x="261" y="406"/>
      <point x="254" y="419"/>
      <point x="251" y="422" type="curve" smooth="yes"/>
      <point x="248" y="425"/>
      <point x="244" y="427"/>
      <point x="238" y="427" type="curve" smooth="yes"/>
    </contour>
  </outline>
</glyph>
<glyph name="afii10104" format="2">
  <advance width="278"/>
  <unicode hex="0457"/>
  <anchor x="137" y="743" name="Yerik"/>
  <anchor x="137" y="743" name="Above"/>
  <outline>
    <contour>
      <point x="198" y="0" type="curve"/>
      <point x="85" y="0" type="line"/>
      <point x="85" y="15"/>
      <point x="84" y="43"/>
      <point x="82" y="85" type="curve" smooth="yes"/>
      <point x="81" y="128"/>
      <point x="80" y="159"/>
      <point x="80" y="179" type="curve" smooth="yes"/>
      <point x="80" y="238"/>
      <point x="81" y="287"/>
      <point x="83" y="326" type="curve" smooth="yes"/>
      <point x="85" y="365"/>
      <point x="88" y="407"/>
      <point x="92" y="451" type="curve"/>
      <point x="203" y="451" type="line"/>
      <point x="198" y="400"/>
      <point x="195" y="358"/>
      <point x="194" y="327" type="curve" smooth="yes"/>
      <point x="193" y="296"/>
      <point x="192" y="255"/>
      <point x="192" y="202" type="curve" smooth="yes"/>
      <point x="192" y="162"/>
      <point x="193" y="121"/>
      <point x="195" y="79" type="curve" smooth="yes"/>
      <point x="197" y="37"/>
      <point x="198" y="11"/>
    </contour>
    <contour>
      <point x="31" y="540" type="line"/>
      <point x="13" y="651" type="line"/>
      <point x="100" y="651" type="line"/>
      <point x="120" y="540" type="line"/>
    </contour>
    <contour>
      <point x="178" y="540" type="line"/>
      <point x="158" y="651" type="line"/>
      <point x="247" y="651" type="line"/>
      <point x="264" y="540" type="line"/>
    </contour>
  </outline>
</glyph>
<glyph name="afii10105" format="2">
  <advance width="278"/>
  <unicode hex="0458"/>
  <anchor x="137" y="743" name="Yerik"/>
  <anchor x="137" y="743" name="Above"/>
  <outline>
    <contour>
      <point x="192" y="202" type="curve" smooth="yes"/>
      <point x="192" y="130.899"/>
      <point x="199" y="37.2229"/>
      <point x="199" y="-29" type="curve" smooth="yes"/>
      <point x="199" y="-34"/>
      <point x="199" y="-39"/>
      <point x="199" y="-44" type="curve" smooth="yes"/>
      <point x="197" y="-93"/>
      <point x="187" y="-132"/>
      <point x="157" y="-177" type="curve" smooth="yes"/>
      <point x="130" y="-217"/>
      <point x="84" y="-244"/>
      <point x="4" y="-244" type="curve" smooth="yes"/>
      <point x="-40" y="-244"/>
      <point x="-98" y="-220"/>
      <point x="-152" y="-160" type="curve"/>
      <point x="-135" y="-137" type="line"/>
      <point x="-102.95" y="-164.471"/>
      <point x="-60.788" y="-192.927"/>
      <point x="-20" y="-194" type="curve" smooth="yes"/>
      <point x="-19" y="-194"/>
      <point x="-18" y="-194"/>
      <point x="-17" y="-194" type="curve" smooth="yes"/>
      <point x="54.2978" y="-194"/>
      <point x="86" y="-106.29"/>
      <point x="86" y="-27" type="curve" smooth="yes"/>
      <point x="86" y="11.685"/>
      <point x="80" y="134.571"/>
      <point x="80" y="179" type="curve" smooth="yes"/>
      <point x="80" y="293.115"/>
      <point x="82.9386" y="351.325"/>
      <point x="92" y="451" type="curve"/>
      <point x="203" y="451" type="line"/>
      <point x="192.517" y="344.071"/>
      <point x="192" y="316.204"/>
    </contour>
    <contour>
      <point x="91" y="540" type="line"/>
      <point x="73" y="651" type="line"/>
      <point x="180" y="651" type="line"/>
      <point x="200" y="540" type="line"/>
    </contour>
  </outline>
</glyph>
<glyph name="uni045D" format="2">
  <advance width="500"/>
  <unicode hex="045D"/>
  <anchor x="227" y="883" name="Yerik"/>
  <anchor x="227" y="883" name="Above"/>
  <outline>
    <contour>
      <point x="194" y="687" type="curve" smooth="yes"/>
      <point x="147" y="761" type="line" smooth="yes"/>
      <point x="130" y="789"/>
      <point x="120" y="806"/>
      <point x="120" y="809" type="curve" smooth="yes"/>
      <point x="120" y="816"/>
      <point x="124" y="817"/>
      <point x="131" y="817" type="curve" smooth="yes"/>
      <point x="156" y="815" type="line"/>
      <point x="189" y="811"/>
      <point x="192" y="810"/>
      <point x="200" y="795" type="curve" smooth="yes"/>
      <point x="216" y="764"/>
      <point x="232" y="733"/>
      <point x="248" y="703" type="curve"/>
      <point x="262" y="673" type="line"/>
      <point x="281" y="637" type="line"/>
      <point x="283" y="630" type="line"/>
      <point x="283" y="625"/>
      <point x="278" y="623"/>
      <point x="267" y="623" type="curve" smooth="yes"/>
      <point x="251" y="623"/>
      <point x="240" y="626"/>
      <point x="233" y="632" type="curve" smooth="yes"/>
      <point x="226" y="638"/>
      <point x="213" y="656"/>
    </contour>
    <contour>
      <point x="173" y="239" type="line"/>
      <point x="173" y="220"/>
      <point x="171" y="123"/>
      <point x="171" y="104" type="curve" smooth="yes"/>
      <point x="173" y="0" type="line"/>
      <point x="68" y="0" type="line"/>
      <point x="68" y="0"/>
      <point x="66.92" y="51.48"/>
      <point x="66.92" y="112.536" type="curve" smooth="yes"/>
      <point x="66.92" y="153.24"/>
      <point x="67.4" y="198.2"/>
      <point x="69" y="235" type="curve" smooth="yes"/>
      <point x="73" y="320"/>
      <point x="73" y="378"/>
      <point x="89" y="451" type="curve"/>
      <point x="188" y="451" type="line"/>
      <point x="176" y="356"/>
      <point x="177" y="361"/>
      <point x="173" y="264" type="curve"/>
      <point x="322" y="332" type="line"/>
      <point x="322" y="353"/>
      <point x="329" y="428"/>
      <point x="329" y="451" type="curve"/>
      <point x="432" y="451" type="line"/>
      <point x="426.917" y="397.631"/>
      <point x="422.552" y="312.687"/>
      <point x="422.552" y="243.584" type="curve" smooth="yes"/>
      <point x="422.552" y="231.114"/>
      <point x="422.694" y="219.16"/>
      <point x="423" y="208" type="curve" smooth="yes"/>
      <point x="426" y="103"/>
      <point x="423" y="116"/>
      <point x="433" y="0" type="curve"/>
      <point x="325" y="0" type="line"/>
      <point x="323" y="42"/>
      <point x="320" y="97"/>
      <point x="319" y="154" type="curve" smooth="yes"/>
      <point x="318.809" y="162.785"/>
      <point x="318.727" y="172.191"/>
      <point x="318.727" y="181.965" type="curve" smooth="yes"/>
      <point x="318.727" y="223.371"/>
      <point x="320.191" y="271.403"/>
      <point x="321" y="307" type="curve"/>
    </contour>
  </outline>
</glyph>
<glyph name="afii10110" format="2">
  <advance width="500"/>
  <unicode hex="045E"/>
  <anchor x="257" y="803" name="Yerik"/>
  <anchor x="257" y="803" name="Above"/>
  <outline>
    <contour>
      <point x="219" y="-1" type="curve"/>
      <point x="91" y="-1" type="line"/>
      <point x="72" y="123"/>
      <point x="55" y="216"/>
      <point x="42" y="278" type="curve" smooth="yes"/>
      <point x="29" y="340"/>
      <point x="20" y="380"/>
      <point x="13" y="399" type="curve" smooth="yes"/>
      <point x="0" y="436"/>
      <point x="1" y="434"/>
      <point x="0" y="439" type="curve" smooth="yes"/>
      <point x="0" y="451"/>
      <point x="10" y="451"/>
      <point x="34" y="451" type="curve" smooth="yes"/>
      <point x="111" y="450" type="line"/>
      <point x="135" y="362"/>
      <point x="152" y="286"/>
      <point x="167" y="186" type="curve" smooth="yes"/>
      <point x="190" y="44" type="line" smooth="yes"/>
      <point x="193" y="28"/>
      <point x="197" y="17"/>
      <point x="208" y="17" type="curve" smooth="yes"/>
      <point x="217" y="17"/>
      <point x="222" y="24"/>
      <point x="222" y="39" type="curve" smooth="yes"/>
      <point x="233" y="122" type="line" smooth="yes"/>
      <point x="246" y="223"/>
      <point x="268" y="305"/>
      <point x="300" y="367" type="curve" smooth="yes"/>
      <point x="332" y="429"/>
      <point x="383" y="460"/>
      <point x="454" y="460" type="curve" smooth="yes"/>
      <point x="470" y="460"/>
      <point x="476" y="459"/>
      <point x="476" y="452" type="curve" smooth="yes"/>
      <point x="473" y="447"/>
      <point x="470" y="444"/>
      <point x="467" y="441" type="curve" smooth="yes"/>
      <point x="460" y="437"/>
      <point x="446" y="416"/>
      <point x="446" y="392" type="curve" smooth="yes"/>
      <point x="446" y="379"/>
      <point x="450" y="364"/>
      <point x="457" y="339" type="curve"/>
      <point x="396" y="339"/>
      <point x="353" y="321"/>
      <point x="329" y="285" type="curve" smooth="yes"/>
      <point x="305" y="249"/>
      <point x="286" y="180"/>
      <point x="273" y="77" type="curve" smooth="yes"/>
      <point x="260" y="-26"/>
      <point x="249" y="-106"/>
      <point x="239" y="-163" type="curve" smooth="yes"/>
      <point x="230" y="-221"/>
      <point x="215" y="-250"/>
      <point x="196" y="-250" type="curve" smooth="yes"/>
      <point x="189" y="-250"/>
      <point x="185" y="-247"/>
      <point x="185" y="-240" type="curve" smooth="yes"/>
      <point x="190" y="-218" type="line" smooth="yes"/>
      <point x="193.752" y="-201.489"/>
      <point x="198.5" y="-181"/>
      <point x="203.5" y="-144" type="curve" smooth="yes"/>
      <point x="210.763" y="-90.2529"/>
      <point x="214.292" y="-48.0831"/>
    </contour>
    <contour>
      <point x="235" y="541" type="curve" smooth="yes"/>
      <point x="174" y="541"/>
      <point x="150" y="572"/>
      <point x="150" y="613" type="curve" smooth="yes"/>
      <point x="150" y="636"/>
      <point x="157" y="659"/>
      <point x="172" y="682" type="curve" smooth="yes"/>
      <point x="187" y="705"/>
      <point x="200" y="717"/>
      <point x="210" y="717" type="curve" smooth="yes"/>
      <point x="215" y="716"/>
      <point x="220" y="714"/>
      <point x="220" y="707" type="curve"/>
      <point x="217" y="697" type="line"/>
      <point x="207" y="675" type="line" smooth="yes"/>
      <point x="203" y="666"/>
      <point x="201" y="657"/>
      <point x="201" y="648" type="curve" smooth="yes"/>
      <point x="201" y="621"/>
      <point x="219" y="609"/>
      <point x="239" y="609" type="curve" smooth="yes"/>
      <point x="268" y="609"/>
      <point x="301" y="636"/>
      <point x="301" y="688" type="curve" smooth="yes"/>
      <point x="301" y="706"/>
      <point x="305" y="715"/>
      <point x="313" y="715" type="curve" smooth="yes"/>
      <point x="326" y="715"/>
      <point x="330" y="682"/>
      <point x="330" y="665" type="curve" smooth="yes"/>
      <point x="330" y="623"/>
      <point x="319" y="592"/>
      <point x="297" y="571" type="curve" smooth="yes"/>
      <point x="276" y="551"/>
      <point x="255" y="541"/>
    </contour>
  </outline>
</glyph>
<glyph name="afii10193" format="2">
  <advance width="500"/>
  <unicode hex="045F"/>
  <anchor x="367" y="623" name="Yerik"/>
  <anchor x="257" y="623" name="Above"/>
  <outline>
    <contour>
      <point x="189" y="451" type="line"/>
      <point x="172" y="332"/>
      <point x="168" y="151"/>
      <point x="168" y="107" type="curve" smooth="yes"/>
      <point x="168" y="75"/>
      <point x="168" y="43"/>
      <point x="168" y="23" type="curve"/>
      <point x="323" y="23" type="line"/>
      <point x="323" y="58"/>
      <point x="318" y="96"/>
      <point x="318" y="171" type="curve" smooth="yes"/>
      <point x="318" y="224"/>
      <point x="318" y="346"/>
      <point x="330" y="451" type="curve"/>
      <point x="433" y="451" type="line"/>
      <point x="433" y="344"/>
      <point x="428" y="237"/>
      <point x="428" y="174" type="curve" smooth="yes"/>
      <point x="428" y="119"/>
      <point x="432" y="62"/>
      <point x="432" y="0" type="curve"/>
      <point x="375" y="0" type="line" smooth="yes"/>
      <point x="297" y="0"/>
      <point x="297" y="0"/>
      <point x="297" y="-30" type="curve" smooth="yes"/>
      <point x="297" y="-168"/>
      <point x="261" y="-249"/>
      <point x="238" y="-249" type="curve" smooth="yes"/>
      <point x="231" y="-249"/>
      <point x="231" y="-245"/>
      <point x="231" y="-236" type="curve" smooth="yes"/>
      <point x="231" y="-191" type="line"/>
      <point x="231" y="-136"/>
      <point x="226" y="-73"/>
      <point x="207" y="-37" type="curve" smooth="yes"/>
      <point x="188" y="-1"/>
      <point x="184" y="0"/>
      <point x="131" y="0" type="curve" smooth="yes"/>
      <point x="67" y="0" type="line"/>
      <point x="67" y="203"/>
      <point x="72" y="288"/>
      <point x="90" y="451" type="curve"/>
    </contour>
  </outline>
</glyph>
<glyph name="uni0461" format="2">
  <advance width="778"/>
  <unicode hex="0461"/>
  <anchor x="637" y="623" name="Yerik"/>
  <anchor x="397" y="623" name="Above"/>
  <outline>
    <contour>
      <point x="69" y="451" type="curve"/>
      <point x="183" y="451" type="line"/>
      <point x="163" y="392"/>
      <point x="147" y="327"/>
      <point x="147" y="254" type="curve" smooth="yes"/>
      <point x="147" y="199"/>
      <point x="157" y="150"/>
      <point x="178" y="109" type="curve" smooth="yes"/>
      <point x="199" y="68"/>
      <point x="221" y="48"/>
      <point x="245" y="48" type="curve" smooth="yes"/>
      <point x="257" y="48"/>
      <point x="273" y="58"/>
      <point x="293" y="77" type="curve" smooth="yes"/>
      <point x="314" y="96"/>
      <point x="330" y="113"/>
      <point x="343" y="127" type="curve"/>
      <point x="315" y="188"/>
      <point x="308" y="223"/>
      <point x="308" y="270" type="curve" smooth="yes"/>
      <point x="308" y="341"/>
      <point x="323" y="391"/>
      <point x="346" y="451" type="curve"/>
      <point x="481" y="451" type="line"/>
      <point x="459" y="412"/>
      <point x="442" y="379"/>
      <point x="431" y="350" type="curve" smooth="yes"/>
      <point x="420" y="321"/>
      <point x="415" y="287"/>
      <point x="415" y="246" type="curve" smooth="yes"/>
      <point x="415" y="188"/>
      <point x="428" y="140"/>
      <point x="455" y="102" type="curve" smooth="yes"/>
      <point x="482" y="65"/>
      <point x="505" y="46"/>
      <point x="526" y="46" type="curve" smooth="yes"/>
      <point x="545" y="46"/>
      <point x="567" y="63"/>
      <point x="594" y="98" type="curve" smooth="yes"/>
      <point x="621" y="133"/>
      <point x="635" y="179"/>
      <point x="635" y="237" type="curve" smooth="yes"/>
      <point x="635" y="263"/>
      <point x="632" y="290"/>
      <point x="625" y="319" type="curve" smooth="yes"/>
      <point x="619" y="348"/>
      <point x="606" y="385"/>
      <point x="585" y="432" type="curve" smooth="yes"/>
      <point x="577" y="451" type="line"/>
      <point x="702" y="451" type="line"/>
      <point x="718" y="400"/>
      <point x="728" y="357"/>
      <point x="728" y="302" type="curve" smooth="yes"/>
      <point x="728" y="219"/>
      <point x="703" y="147"/>
      <point x="653" y="84" type="curve" smooth="yes"/>
      <point x="604" y="21"/>
      <point x="554" y="-10"/>
      <point x="505" y="-10" type="curve" smooth="yes"/>
      <point x="488" y="-10"/>
      <point x="466" y="-3"/>
      <point x="438" y="11" type="curve" smooth="yes"/>
      <point x="411" y="26"/>
      <point x="383" y="55"/>
      <point x="355" y="100" type="curve"/>
      <point x="292" y="36"/>
      <point x="235" y="-11"/>
      <point x="200" y="-11" type="curve" smooth="yes"/>
      <point x="171" y="-11"/>
      <point x="137" y="16"/>
      <point x="99" y="70" type="curve" smooth="yes"/>
      <point x="61" y="124"/>
      <point x="42" y="193"/>
      <point x="42" y="277" type="curve" smooth="yes"/>
      <point x="42" y="344"/>
      <point x="52" y="392"/>
    </contour>
  </outline>
</glyph>
<glyph name="afii10194" format="2">
  <advance width="630"/>
  <unicode hex="0463"/>
  <anchor x="497" y="623" name="Yerik"/>
  <anchor x="497" y="623" name="Above"/>
  <outline>
    <contour>
      <point x="40" y="322" type="curve" smooth="yes"/>
      <point x="40" y="356"/>
      <point x="36" y="421"/>
      <point x="36" y="451" type="curve"/>
      <point x="275" y="451" type="line"/>
      <point x="278" y="498"/>
      <point x="285.5" y="568"/>
      <point x="290.5" y="622" type="curve" smooth="yes"/>
      <point x="298.5" y="697"/>
      <point x="305" y="754"/>
      <point x="310" y="784" type="curve"/>
      <point x="416" y="784" type="line"/>
      <point x="411" y="744"/>
      <point x="401.5" y="676"/>
      <point x="394.5" y="612" type="curve" smooth="yes"/>
      <point x="388.5" y="553"/>
      <point x="379" y="451"/>
      <point x="379" y="451" type="curve"/>
      <point x="566" y="451" type="line" smooth="yes"/>
      <point x="587" y="451"/>
      <point x="597" y="448"/>
      <point x="597" y="441" type="curve"/>
      <point x="592" y="428" type="line"/>
      <point x="565" y="384"/>
      <point x="567" y="385"/>
      <point x="546" y="337" type="curve" smooth="yes"/>
      <point x="537" y="316"/>
      <point x="531" y="306"/>
      <point x="526" y="306" type="curve" smooth="yes"/>
      <point x="521" y="306"/>
      <point x="521" y="306"/>
      <point x="513" y="330" type="curve" smooth="yes"/>
      <point x="486" y="406" type="line" smooth="yes"/>
      <point x="481" y="420"/>
      <point x="475" y="427"/>
      <point x="468" y="428" type="curve" smooth="yes"/>
      <point x="462" y="429"/>
      <point x="449" y="430"/>
      <point x="428" y="430" type="curve" smooth="yes"/>
      <point x="376" y="430" type="line"/>
      <point x="376" y="430"/>
      <point x="370.227" y="354.909"/>
      <point x="367" y="307" type="curve" smooth="yes"/>
      <point x="364.809" y="274.467"/>
      <point x="361" y="188"/>
      <point x="361" y="188" type="curve"/>
      <point x="471" y="222" type="line"/>
      <point x="491" y="226" type="line"/>
      <point x="500" y="226"/>
      <point x="503" y="220"/>
      <point x="505" y="216" type="curve" smooth="yes"/>
      <point x="518" y="190"/>
      <point x="533" y="157"/>
      <point x="547" y="125" type="curve" smooth="yes"/>
      <point x="561" y="90"/>
      <point x="575" y="56"/>
      <point x="586" y="32" type="curve" smooth="yes"/>
      <point x="588" y="26"/>
      <point x="592" y="13"/>
      <point x="592" y="6" type="curve" smooth="yes"/>
      <point x="592" y="-2"/>
      <point x="585" y="-7"/>
      <point x="570" y="-8" type="curve" smooth="yes"/>
      <point x="442" y="-11" type="line"/>
      <point x="360" y="-11"/>
      <point x="321" y="-9"/>
      <point x="249" y="0" type="curve"/>
      <point x="249" y="35"/>
      <point x="253.5" y="154"/>
      <point x="261.5" y="275" type="curve" smooth="yes"/>
      <point x="269.5" y="396"/>
      <point x="273" y="420"/>
      <point x="273" y="430" type="curve"/>
      <point x="175" y="430" type="line" smooth="yes"/>
      <point x="155" y="430"/>
      <point x="148" y="428"/>
      <point x="148" y="404" type="curve" smooth="yes"/>
      <point x="145" y="273" type="line" smooth="yes"/>
      <point x="145" y="232"/>
      <point x="144" y="208"/>
      <point x="143" y="200" type="curve" smooth="yes"/>
      <point x="141.211" y="184.789"/>
      <point x="126.612" y="183.989"/>
      <point x="110.666" y="183.989" type="curve" smooth="yes"/>
      <point x="108.789" y="183.989"/>
      <point x="106.895" y="184"/>
      <point x="105" y="184" type="curve" smooth="yes"/>
      <point x="36" y="184" type="line"/>
      <point x="36" y="217"/>
      <point x="40" y="283"/>
    </contour>
    <contour>
      <point x="382" y="172" type="line"/>
      <point x="360" y="166" type="line"/>
      <point x="357" y="79" type="line"/>
      <point x="357" y="29" type="line" smooth="yes"/>
      <point x="357" y="22"/>
      <point x="359" y="17"/>
      <point x="364" y="16" type="curve" smooth="yes"/>
      <point x="373" y="13"/>
      <point x="417" y="13"/>
      <point x="450" y="13" type="curve" smooth="yes"/>
      <point x="470" y="13"/>
      <point x="478" y="18"/>
      <point x="478" y="26" type="curve" smooth="yes"/>
      <point x="478" y="29"/>
      <point x="478" y="33"/>
      <point x="477" y="36" type="curve" smooth="yes"/>
      <point x="471" y="50"/>
      <point x="457" y="83"/>
      <point x="443" y="114" type="curve" smooth="yes"/>
      <point x="428" y="148"/>
      <point x="412" y="179"/>
      <point x="405" y="179" type="curve"/>
      <point x="390" y="175" type="line"/>
    </contour>
  </outline>
</glyph>
<glyph name="uni0464" format="2">
  <advance width="806"/>
  <unicode hex="0464"/>
  <anchor x="638" y="680" name="Yerik"/>
  <anchor x="350" y="680" name="Above"/>
  <outline>
    <contour>
      <point x="560" y="165" type="line"/>
      <point x="599.953" y="143.848"/>
      <point x="676.486" y="114.665"/>
      <point x="727" y="100" type="curve"/>
      <point x="721" y="79" type="line"/>
      <point x="709" y="83"/>
      <point x="692" y="89"/>
      <point x="689" y="89" type="curve" smooth="yes"/>
      <point x="684" y="89"/>
      <point x="683" y="88"/>
      <point x="650" y="48" type="curve" smooth="yes"/>
      <point x="618" y="9"/>
      <point x="539" y="-15"/>
      <point x="463" y="-15" type="curve" smooth="yes"/>
      <point x="410" y="-15"/>
      <point x="383" y="-7"/>
      <point x="352" y="5" type="curve"/>
      <point x="380" y="26"/>
      <point x="391" y="53"/>
      <point x="391" y="78" type="curve" smooth="yes"/>
      <point x="391" y="102"/>
      <point x="382" y="145"/>
      <point x="350" y="217" type="curve" smooth="yes"/>
      <point x="335" y="254"/>
      <point x="323" y="284"/>
      <point x="314" y="307" type="curve" smooth="yes"/>
      <point x="310.725" y="315.733"/>
      <point x="308.112" y="325.26"/>
      <point x="306.113" y="335.582" type="curve"/>
      <point x="195" y="281" type="line"/>
      <point x="195" y="21" type="line"/>
      <point x="252" y="21" type="line"/>
      <point x="252" y="0" type="line"/>
      <point x="32" y="0" type="line"/>
      <point x="32" y="21" type="line"/>
      <point x="82" y="21" type="line"/>
      <point x="82" y="607" type="line"/>
      <point x="31" y="607" type="line"/>
      <point x="31" y="628" type="line"/>
      <point x="251" y="628" type="line"/>
      <point x="251" y="607" type="line"/>
      <point x="195" y="607" type="line"/>
      <point x="195" y="305" type="line"/>
      <point x="302.847" y="357.978" type="line"/>
      <point x="301.597" y="370.09"/>
      <point x="301" y="383.098"/>
      <point x="301" y="397" type="curve" smooth="yes"/>
      <point x="301" y="452"/>
      <point x="319" y="506"/>
      <point x="354" y="559" type="curve" smooth="yes"/>
      <point x="389" y="612"/>
      <point x="454" y="639"/>
      <point x="549" y="639" type="curve" smooth="yes"/>
      <point x="662" y="639"/>
      <point x="719" y="596"/>
      <point x="740" y="524" type="curve"/>
      <point x="771" y="518" type="line"/>
      <point x="770" y="496" type="line"/>
      <point x="754" y="499" type="line"/>
      <point x="719" y="504"/>
      <point x="693" y="506"/>
      <point x="676" y="506" type="curve" smooth="yes"/>
      <point x="648" y="506"/>
      <point x="624" y="502"/>
      <point x="597" y="497" type="curve"/>
      <point x="593" y="519" type="line"/>
      <point x="632" y="527" type="line"/>
      <point x="624" y="594"/>
      <point x="595" y="620"/>
      <point x="538" y="620" type="curve" smooth="yes"/>
      <point x="509" y="620"/>
      <point x="480" y="609"/>
      <point x="450" y="587" type="curve" smooth="yes"/>
      <point x="421" y="566"/>
      <point x="406" y="525"/>
      <point x="406" y="465" type="curve" smooth="yes"/>
      <point x="406" y="439"/>
      <point x="408" y="416"/>
      <point x="412" y="395" type="curve" smooth="yes"/>
      <point x="418" y="372"/>
      <point x="423" y="352"/>
      <point x="426" y="336" type="curve" smooth="yes"/>
      <point x="430" y="311" type="line"/>
      <point x="483" y="383"/>
      <point x="533" y="432"/>
      <point x="614" y="432" type="curve" smooth="yes"/>
      <point x="705" y="432"/>
      <point x="746" y="376"/>
      <point x="746" y="245" type="curve"/>
      <point x="780" y="245" type="line"/>
      <point x="780" y="223" type="line"/>
      <point x="604" y="223" type="line"/>
      <point x="605" y="245" type="line"/>
      <point x="644" y="245" type="line"/>
      <point x="647" y="286" type="line"/>
      <point x="647" y="347"/>
      <point x="618" y="380"/>
      <point x="577" y="380" type="curve" smooth="yes"/>
      <point x="536" y="380"/>
      <point x="501" y="350"/>
      <point x="476" y="325" type="curve"/>
      <point x="440" y="284" type="line"/>
      <point x="437" y="279"/>
      <point x="436" y="274"/>
      <point x="436" y="268" type="curve" smooth="yes"/>
      <point x="439" y="245" type="line" smooth="yes"/>
      <point x="442" y="226"/>
      <point x="445" y="189"/>
      <point x="445" y="173" type="curve" smooth="yes"/>
      <point x="445" y="100"/>
      <point x="427" y="61"/>
      <point x="398" y="17" type="curve"/>
      <point x="410" y="14"/>
      <point x="420" y="13"/>
      <point x="436" y="13" type="curve" smooth="yes"/>
      <point x="480" y="13"/>
      <point x="516" y="28"/>
      <point x="543" y="57" type="curve" smooth="yes"/>
      <point x="571" y="86"/>
      <point x="585" y="107"/>
      <point x="585" y="120" type="curve" smooth="yes"/>
      <point x="585" y="125.098"/>
      <point x="562.418" y="137.476"/>
      <point x="551" y="144" type="curve"/>
    </contour>
  </outline>
</glyph>
<glyph name="uni0469" format="2">
  <advance width="833"/>
  <unicode hex="0469"/>
  <anchor x="507" y="623" name="Above"/>
  <anchor x="717" y="623" name="Yerik"/>
  <outline>
    <contour>
      <point x="556" y="180" type="curve" smooth="yes"/>
      <point x="556" y="155.75"/>
      <point x="555.938" y="136.812"/>
      <point x="555.938" y="120.938" type="curve" smooth="yes"/>
      <point x="555.938" y="73.3125"/>
      <point x="556.5" y="53.25"/>
      <point x="561" y="0" type="curve"/>
      <point x="456" y="0" type="line"/>
      <point x="457" y="13"/>
      <point x="458" y="24"/>
      <point x="460" y="34" type="curve" smooth="yes"/>
      <point x="460" y="43"/>
      <point x="461" y="58"/>
      <point x="461" y="77" type="curve" smooth="yes"/>
      <point x="462" y="165" type="line" smooth="yes"/>
      <point x="462" y="166.84"/>
      <point x="462.006" y="168.558"/>
      <point x="462.006" y="170.163" type="curve" smooth="yes"/>
      <point x="462.006" y="188.614"/>
      <point x="461.16" y="192"/>
      <point x="440" y="192" type="curve" smooth="yes"/>
      <point x="403" y="192" type="line"/>
      <point x="363" y="147"/>
      <point x="345" y="91"/>
      <point x="345" y="0" type="curve"/>
      <point x="247" y="0" type="line"/>
      <point x="247" y="49"/>
      <point x="255" y="90"/>
      <point x="270" y="124" type="curve" smooth="yes"/>
      <point x="285" y="158"/>
      <point x="325" y="205"/>
      <point x="390" y="265" type="curve"/>
      <point x="162" y="265" type="line"/>
      <point x="162" y="204"/>
      <point x="162" y="102"/>
      <point x="168" y="0" type="curve"/>
      <point x="55" y="0" type="line"/>
      <point x="55" y="16"/>
      <point x="50" y="153"/>
      <point x="50" y="171" type="curve" smooth="yes"/>
      <point x="50" y="304"/>
      <point x="51" y="342"/>
      <point x="63" y="451" type="curve"/>
      <point x="173" y="451" type="line"/>
      <point x="167" y="412"/>
      <point x="163" y="340"/>
      <point x="163" y="293" type="curve"/>
      <point x="408" y="293" type="line"/>
      <point x="446" y="333"/>
      <point x="453" y="376"/>
      <point x="453" y="451" type="curve"/>
      <point x="578" y="451" type="line"/>
      <point x="584" y="411"/>
      <point x="591" y="381"/>
      <point x="600" y="360" type="curve" smooth="yes"/>
      <point x="609" y="340"/>
      <point x="632" y="307"/>
      <point x="670" y="262" type="curve" smooth="yes"/>
      <point x="707" y="217"/>
      <point x="736" y="176"/>
      <point x="757" y="142" type="curve" smooth="yes"/>
      <point x="778" y="106"/>
      <point x="793" y="59"/>
      <point x="804" y="0" type="curve"/>
      <point x="689" y="0" type="line"/>
      <point x="689" y="25"/>
      <point x="684" y="53"/>
      <point x="674" y="82" type="curve" smooth="yes"/>
      <point x="663" y="111"/>
      <point x="640" y="148"/>
      <point x="605" y="192" type="curve"/>
      <point x="578" y="192" type="line" smooth="yes"/>
      <point x="567" y="192"/>
      <point x="561" y="192"/>
      <point x="559" y="190" type="curve" smooth="yes"/>
      <point x="557" y="190"/>
      <point x="556" y="186"/>
    </contour>
    <contour>
      <point x="415" y="215" type="curve"/>
      <point x="592" y="215" type="line"/>
      <point x="574" y="238" type="line" smooth="yes"/>
      <point x="555" y="261"/>
      <point x="524" y="302"/>
      <point x="509" y="331" type="curve" smooth="yes"/>
      <point x="507" y="335"/>
      <point x="502" y="344"/>
      <point x="496" y="344" type="curve" smooth="yes"/>
      <point x="486" y="339"/>
      <point x="489" y="337"/>
      <point x="480" y="318" type="curve" smooth="yes"/>
      <point x="468" y="280"/>
      <point x="441" y="248"/>
    </contour>
  </outline>
</glyph>
<glyph name="uni046B" format="2">
  <advance width="741"/>
  <unicode hex="046B"/>
  <anchor x="357" y="623" name="Above"/>
  <anchor x="627" y="623" name="Yerik"/>
  <outline>
    <contour>
      <point x="472" y="451" type="line" smooth="yes"/>
      <point x="481.143" y="451"/>
      <point x="489.125" y="451.58"/>
      <point x="495.503" y="451.58" type="curve" smooth="yes"/>
      <point x="505.868" y="451.58"/>
      <point x="512" y="450.048"/>
      <point x="512" y="442" type="curve" smooth="yes"/>
      <point x="512" y="437"/>
      <point x="506" y="428"/>
      <point x="495" y="417" type="curve" smooth="yes"/>
      <point x="398" y="312" type="line"/>
      <point x="499" y="297"/>
      <point x="568" y="261"/>
      <point x="624" y="188" type="curve" smooth="yes"/>
      <point x="655" y="146"/>
      <point x="676" y="112"/>
      <point x="686" y="86" type="curve" smooth="yes"/>
      <point x="697" y="61"/>
      <point x="706" y="32"/>
      <point x="713" y="0" type="curve"/>
      <point x="586" y="0" type="line"/>
      <point x="576" y="72"/>
      <point x="566" y="111"/>
      <point x="530" y="156" type="curve" smooth="yes"/>
      <point x="498" y="197"/>
      <point x="470" y="221"/>
      <point x="415" y="234" type="curve"/>
      <point x="415" y="198"/>
      <point x="415" y="162"/>
      <point x="416" y="124" type="curve" smooth="yes"/>
      <point x="416" y="88"/>
      <point x="418" y="46"/>
      <point x="422" y="0" type="curve"/>
      <point x="308" y="0" type="line"/>
      <point x="310" y="11"/>
      <point x="311" y="73"/>
      <point x="311" y="87" type="curve" smooth="yes"/>
      <point x="311" y="141"/>
      <point x="311" y="194"/>
      <point x="311" y="248" type="curve"/>
      <point x="208" y="218"/>
      <point x="133" y="128"/>
      <point x="133" y="0" type="curve"/>
      <point x="29" y="0" type="line"/>
      <point x="50" y="91"/>
      <point x="88" y="160"/>
      <point x="144" y="206" type="curve" smooth="yes"/>
      <point x="200" y="254"/>
      <point x="259" y="285"/>
      <point x="322" y="301" type="curve"/>
      <point x="210" y="415" type="line" smooth="yes"/>
      <point x="203" y="420"/>
      <point x="191" y="431"/>
      <point x="191" y="441" type="curve" smooth="yes"/>
      <point x="191" y="448"/>
      <point x="201" y="451"/>
      <point x="222" y="451" type="curve" smooth="yes"/>
    </contour>
    <contour>
      <point x="451" y="419" type="curve" smooth="yes"/>
      <point x="451" y="428"/>
      <point x="433" y="428"/>
      <point x="425" y="428" type="curve" smooth="yes"/>
      <point x="272" y="428" type="line"/>
      <point x="266" y="427"/>
      <point x="263" y="424"/>
      <point x="263" y="418" type="curve" smooth="yes"/>
      <point x="263" y="415"/>
      <point x="266" y="410"/>
      <point x="272" y="404" type="curve" smooth="yes"/>
      <point x="362" y="314" type="line"/>
      <point x="439" y="399" type="line" smooth="yes"/>
      <point x="447" y="408"/>
      <point x="451" y="414"/>
    </contour>
  </outline>
</glyph>
<glyph name="uni046E" format="2">
  <advance width="574"/>
  <unicode hex="046E"/>
  <anchor x="482" y="800" name="Yerik"/>
  <anchor x="289" y="800" name="Above"/>
  <outline>
    <contour>
      <point x="172" y="-183" type="curve" smooth="yes"/>
      <point x="108.52" y="-183"/>
      <point x="63" y="-121.201"/>
      <point x="63" y="-57" type="curve" smooth="yes"/>
      <point x="63" y="15"/>
      <point x="109" y="60"/>
      <point x="162" y="60" type="curve" smooth="yes"/>
      <point x="185" y="60"/>
      <point x="217" y="51"/>
      <point x="242" y="40" type="curve" smooth="yes"/>
      <point x="269" y="29"/>
      <point x="303" y="15"/>
      <point x="318" y="15" type="curve" smooth="yes"/>
      <point x="353" y="15"/>
      <point x="376" y="31"/>
      <point x="387" y="62" type="curve" smooth="yes"/>
      <point x="398" y="93"/>
      <point x="403" y="131"/>
      <point x="403" y="174" type="curve" smooth="yes"/>
      <point x="403" y="282"/>
      <point x="374" y="328"/>
      <point x="310" y="328" type="curve" smooth="yes"/>
      <point x="249" y="328"/>
      <point x="216" y="273"/>
      <point x="216" y="194" type="curve"/>
      <point x="219" y="152" type="line"/>
      <point x="274" y="152" type="line"/>
      <point x="274" y="130" type="line"/>
      <point x="56" y="130" type="line"/>
      <point x="56" y="152" type="line"/>
      <point x="111" y="152" type="line"/>
      <point x="129" y="219"/>
      <point x="149" y="269"/>
      <point x="171" y="304" type="curve" smooth="yes"/>
      <point x="193" y="339"/>
      <point x="231" y="356"/>
      <point x="284" y="356" type="curve" smooth="yes"/>
      <point x="309" y="356" type="line" smooth="yes"/>
      <point x="334" y="356"/>
      <point x="338" y="357"/>
      <point x="353" y="374" type="curve" smooth="yes"/>
      <point x="370" y="393"/>
      <point x="377" y="448"/>
      <point x="377" y="492" type="curve" smooth="yes"/>
      <point x="377" y="565"/>
      <point x="362" y="622"/>
      <point x="299" y="622" type="curve" smooth="yes"/>
      <point x="242" y="622"/>
      <point x="216" y="573"/>
      <point x="216" y="428" type="curve"/>
      <point x="273" y="428" type="line"/>
      <point x="273" y="407" type="line"/>
      <point x="55" y="407" type="line"/>
      <point x="55" y="428" type="line"/>
      <point x="107" y="428" type="line"/>
      <point x="107" y="473"/>
      <point x="116" y="515"/>
      <point x="134" y="554" type="curve" smooth="yes"/>
      <point x="152" y="594"/>
      <point x="188" y="621"/>
      <point x="243" y="636" type="curve"/>
      <point x="209" y="715" type="line"/>
      <point x="205" y="722" type="line" smooth="yes"/>
      <point x="202.921" y="727.199"/>
      <point x="198.451" y="735.774"/>
      <point x="196" y="737" type="curve" smooth="yes"/>
      <point x="192" y="740"/>
      <point x="167" y="744"/>
      <point x="167" y="757" type="curve" smooth="yes"/>
      <point x="167" y="770"/>
      <point x="174" y="772"/>
      <point x="203" y="772" type="curve" smooth="yes"/>
      <point x="256" y="772" type="line"/>
      <point x="294" y="668" type="line"/>
      <point x="318" y="743"/>
      <point x="337" y="773"/>
      <point x="393" y="773" type="curve" smooth="yes"/>
      <point x="410" y="773"/>
      <point x="420" y="773"/>
      <point x="420" y="762" type="curve" smooth="yes"/>
      <point x="420" y="762"/>
      <point x="420" y="761"/>
      <point x="420" y="761" type="curve" smooth="yes"/>
      <point x="420" y="755"/>
      <point x="404" y="754"/>
      <point x="399" y="724" type="curve" smooth="yes"/>
      <point x="399" y="710.086"/>
      <point x="405.66" y="696.679"/>
      <point x="412" y="684" type="curve"/>
      <point x="409" y="680"/>
      <point x="406" y="678"/>
      <point x="405" y="678" type="curve" smooth="yes"/>
      <point x="395" y="681" type="line"/>
      <point x="378" y="689"/>
      <point x="363" y="695"/>
      <point x="351" y="695" type="curve" smooth="yes"/>
      <point x="322" y="695"/>
      <point x="311" y="667"/>
      <point x="306" y="639" type="curve"/>
      <point x="349" y="639"/>
      <point x="388" y="628"/>
      <point x="425" y="607" type="curve" smooth="yes"/>
      <point x="462" y="586"/>
      <point x="481" y="543"/>
      <point x="481" y="480" type="curve" smooth="yes"/>
      <point x="481" y="401"/>
      <point x="446" y="372"/>
      <point x="391" y="345" type="curve"/>
      <point x="482" y="312"/>
      <point x="517" y="259"/>
      <point x="517" y="176" type="curve" smooth="yes"/>
      <point x="517" y="115"/>
      <point x="498" y="69"/>
      <point x="461" y="38" type="curve" smooth="yes"/>
      <point x="424" y="7"/>
      <point x="384" y="-9"/>
      <point x="343" y="-9" type="curve" smooth="yes"/>
      <point x="305.299" y="-9"/>
      <point x="233.095" y="24"/>
      <point x="202" y="24" type="curve" smooth="yes"/>
      <point x="167" y="24"/>
      <point x="157" y="-4"/>
      <point x="157" y="-57" type="curve" smooth="yes"/>
      <point x="157" y="-114"/>
      <point x="173" y="-148"/>
      <point x="202" y="-148" type="curve" smooth="yes"/>
      <point x="209" y="-148"/>
      <point x="217" y="-146"/>
      <point x="225" y="-143" type="curve" smooth="yes"/>
      <point x="233" y="-140"/>
      <point x="250" y="-130"/>
      <point x="275" y="-114" type="curve" smooth="yes"/>
      <point x="327" y="-83"/>
      <point x="373" y="-60"/>
      <point x="426" y="-60" type="curve" smooth="yes"/>
      <point x="481" y="-60"/>
      <point x="528" y="-91"/>
      <point x="528" y="-142" type="curve" smooth="yes"/>
      <point x="528" y="-173"/>
      <point x="506" y="-203"/>
      <point x="473" y="-203" type="curve" smooth="yes"/>
      <point x="424" y="-203"/>
      <point x="417" y="-176"/>
      <point x="417" y="-141" type="curve" smooth="yes"/>
      <point x="417" y="-104"/>
      <point x="414" y="-93"/>
      <point x="378" y="-93" type="curve" smooth="yes"/>
      <point x="354" y="-93"/>
      <point x="331" y="-105"/>
      <point x="280" y="-137" type="curve" smooth="yes"/>
      <point x="231" y="-170"/>
      <point x="199" y="-183"/>
    </contour>
  </outline>
</glyph>
<glyph name="uni0470" format="2">
  <advance width="722"/>
  <unicode hex="0470"/>
  <anchor x="608" y="740" name="Yerik"/>
  <anchor x="340" y="800" name="Above"/>
  <outline>
    <contour>
      <point x="371" y="0" type="line"/>
      <point x="376" y="-35"/>
      <point x="392" y="-60"/>
      <point x="404" y="-77" type="curve" smooth="yes"/>
      <point x="416" y="-94"/>
      <point x="435" y="-111"/>
      <point x="460" y="-128" type="curve"/>
      <point x="432.639" y="-136.945"/>
      <point x="411.922" y="-146.444"/>
      <point x="394.5" y="-162.032" type="curve" smooth="yes"/>
      <point x="378.811" y="-176.069"/>
      <point x="365.793" y="-195.044"/>
      <point x="353" y="-223" type="curve"/>
      <point x="338" y="-196"/>
      <point x="323" y="-176"/>
      <point x="310" y="-163" type="curve" smooth="yes"/>
      <point x="297" y="-151"/>
      <point x="276" y="-139"/>
      <point x="248" y="-128" type="curve"/>
      <point x="269.513" y="-113.18"/>
      <point x="286.684" y="-97.9028"/>
      <point x="299.512" y="-79" type="curve" smooth="yes"/>
      <point x="313.517" y="-58.3627"/>
      <point x="322.346" y="-33.4038"/>
      <point x="326" y="0" type="curve"/>
      <point x="272.333" y="-0"/>
      <point x="218.667" y="0"/>
      <point x="165" y="0" type="curve"/>
      <point x="165" y="140.402"/>
      <point x="145.262" y="277.015"/>
      <point x="114" y="407" type="curve" smooth="yes"/>
      <point x="95" y="486"/>
      <point x="70" y="560"/>
      <point x="38" y="627" type="curve"/>
      <point x="164" y="627" type="line"/>
      <point x="207" y="500"/>
      <point x="271" y="363"/>
      <point x="271" y="40" type="curve" smooth="yes"/>
      <point x="271" y="33"/>
      <point x="271" y="25"/>
      <point x="271" y="18" type="curve"/>
      <point x="326" y="18" type="line"/>
      <point x="302" y="563" type="line"/>
      <point x="302" y="594"/>
      <point x="297" y="633"/>
      <point x="297" y="650" type="curve" smooth="yes"/>
      <point x="293" y="690"/>
      <point x="288" y="700"/>
      <point x="261" y="700" type="curve" smooth="yes"/>
      <point x="252" y="700"/>
      <point x="239" y="697"/>
      <point x="232" y="696" type="curve"/>
      <point x="232" y="718" type="line"/>
      <point x="463" y="766" type="line"/>
      <point x="464" y="746" type="line"/>
      <point x="442.177" y="740.999"/>
      <point x="428.209" y="736.825"/>
      <point x="419.464" y="730" type="curve" smooth="yes"/>
      <point x="408.974" y="721.814"/>
      <point x="406" y="709.814"/>
      <point x="406" y="688" type="curve"/>
      <point x="396.004" y="465.329"/>
      <point x="387.43" y="241.237"/>
      <point x="378" y="18" type="curve"/>
      <point x="423" y="18" type="line"/>
      <point x="438" y="146"/>
      <point x="447" y="229"/>
      <point x="452" y="266" type="curve" smooth="yes"/>
      <point x="457" y="303"/>
      <point x="463" y="344"/>
      <point x="472" y="387" type="curve" smooth="yes"/>
      <point x="481" y="431"/>
      <point x="495" y="475"/>
      <point x="513" y="520" type="curve" smooth="yes"/>
      <point x="550" y="611"/>
      <point x="606" y="635"/>
      <point x="675" y="635" type="curve" smooth="yes"/>
      <point x="684" y="635"/>
      <point x="699" y="635"/>
      <point x="699" y="628" type="curve" smooth="yes"/>
      <point x="696" y="623"/>
      <point x="693" y="618"/>
      <point x="688" y="613" type="curve" smooth="yes"/>
      <point x="680" y="604"/>
      <point x="669" y="565"/>
      <point x="669" y="534" type="curve" smooth="yes"/>
      <point x="669" y="497"/>
      <point x="685" y="477"/>
      <point x="685" y="465" type="curve"/>
      <point x="683" y="460" type="line"/>
      <point x="676" y="463" type="line"/>
      <point x="648" y="478"/>
      <point x="630" y="486"/>
      <point x="605" y="486" type="curve" smooth="yes"/>
      <point x="581" y="486"/>
      <point x="561" y="477"/>
      <point x="546" y="458" type="curve" smooth="yes"/>
      <point x="531" y="439"/>
      <point x="520" y="421"/>
      <point x="514" y="402" type="curve" smooth="yes"/>
      <point x="486" y="329"/>
      <point x="473" y="236"/>
      <point x="453" y="84" type="curve"/>
      <point x="443" y="0" type="line"/>
    </contour>
  </outline>
</glyph>
<glyph name="uni0471" format="2">
  <advance width="667"/>
  <unicode hex="0471"/>
  <anchor x="537" y="623" name="Yerik"/>
  <anchor x="537" y="623" name="Above"/>
  <outline>
    <contour>
      <point x="243" y="67" type="curve"/>
      <point x="250" y="19" type="line"/>
      <point x="292" y="19" type="line"/>
      <point x="287.5" y="122"/>
      <point x="280.5" y="366"/>
      <point x="277" y="473" type="curve" smooth="yes"/>
      <point x="275.709" y="512.475"/>
      <point x="275.185" y="580.864"/>
      <point x="268" y="612" type="curve" smooth="yes"/>
      <point x="264" y="639"/>
      <point x="260" y="644"/>
      <point x="239" y="644" type="curve" smooth="yes"/>
      <point x="231" y="644"/>
      <point x="221" y="640"/>
      <point x="212" y="639" type="curve"/>
      <point x="208" y="659" type="line"/>
      <point x="434" y="703" type="line"/>
      <point x="439" y="682" type="line"/>
      <point x="410" y="677"/>
      <point x="392" y="671"/>
      <point x="385" y="665" type="curve" smooth="yes"/>
      <point x="379" y="660"/>
      <point x="373" y="628"/>
      <point x="367" y="570" type="curve" smooth="yes"/>
      <point x="354.188" y="423.943"/>
      <point x="346" y="197.275"/>
      <point x="346" y="19" type="curve"/>
      <point x="389" y="19" type="line"/>
      <point x="404" y="134"/>
      <point x="418" y="221"/>
      <point x="431" y="279" type="curve" smooth="yes"/>
      <point x="456" y="395"/>
      <point x="503" y="468"/>
      <point x="603" y="468" type="curve" smooth="yes"/>
      <point x="623" y="468"/>
      <point x="639" y="465"/>
      <point x="639" y="456" type="curve" smooth="yes"/>
      <point x="637" y="449"/>
      <point x="610" y="418"/>
      <point x="610" y="390" type="curve"/>
      <point x="612.075" y="377.742"/>
      <point x="614.07" y="365.404"/>
      <point x="616" y="353" type="curve" smooth="yes"/>
      <point x="616" y="348"/>
      <point x="614" y="345"/>
      <point x="610" y="345" type="curve"/>
      <point x="599" y="349" type="line"/>
      <point x="581" y="358" type="line" smooth="yes"/>
      <point x="556" y="370"/>
      <point x="547" y="372"/>
      <point x="535" y="372" type="curve" smooth="yes"/>
      <point x="507" y="372"/>
      <point x="493" y="356"/>
      <point x="476" y="319" type="curve" smooth="yes"/>
      <point x="452.486" y="271.972"/>
      <point x="435.892" y="176.908"/>
      <point x="425" y="110" type="curve" smooth="yes"/>
      <point x="408" y="0" type="line"/>
      <point x="346" y="0" type="line"/>
      <point x="346" y="-187" type="line" smooth="yes"/>
      <point x="346" y="-219"/>
      <point x="348" y="-229"/>
      <point x="370" y="-229" type="curve"/>
      <point x="399" y="-225" type="line"/>
      <point x="401" y="-241" type="line"/>
      <point x="377" y="-248"/>
      <point x="365" y="-250"/>
      <point x="340" y="-250" type="curve" smooth="yes"/>
      <point x="303" y="-250"/>
      <point x="292" y="-241"/>
      <point x="292" y="-196" type="curve" smooth="yes"/>
      <point x="292" y="0" type="line"/>
      <point x="146" y="0" type="line"/>
      <point x="129" y="125"/>
      <point x="111" y="217"/>
      <point x="92" y="278" type="curve" smooth="yes"/>
      <point x="73" y="339"/>
      <point x="51" y="396"/>
      <point x="24" y="451" type="curve"/>
      <point x="145" y="451" type="line"/>
      <point x="193" y="330"/>
      <point x="219" y="214"/>
    </contour>
  </outline>
</glyph>
<glyph name="afii10148" format="2">
  <advance width="555"/>
  <unicode hex="0474"/>
  <anchor x="458" y="680" name="Yerik"/>
  <anchor x="289" y="680" name="Above"/>
  <outline>
    <contour>
      <point x="307" y="-2" type="line"/>
      <point x="106" y="30" type="line"/>
      <point x="106" y="128" type="line" smooth="yes"/>
      <point x="106" y="305"/>
      <point x="103" y="415"/>
      <point x="96" y="460" type="curve" smooth="yes"/>
      <point x="82.1041" y="549.331"/>
      <point x="77.5967" y="558.77"/>
      <point x="38" y="617" type="curve"/>
      <point x="38" y="628" type="line"/>
      <point x="168" y="628" type="line"/>
      <point x="184" y="577"/>
      <point x="195" y="530"/>
      <point x="201" y="487" type="curve" smooth="yes"/>
      <point x="208" y="444"/>
      <point x="211" y="383"/>
      <point x="211" y="302" type="curve" smooth="yes"/>
      <point x="210" y="46" type="line"/>
      <point x="278" y="34" type="line"/>
      <point x="278" y="156"/>
      <point x="283" y="254"/>
      <point x="294" y="328" type="curve" smooth="yes"/>
      <point x="305" y="402"/>
      <point x="320" y="465"/>
      <point x="339" y="516" type="curve" smooth="yes"/>
      <point x="358" y="567"/>
      <point x="382" y="601"/>
      <point x="412" y="616" type="curve" smooth="yes"/>
      <point x="442" y="631"/>
      <point x="474" y="639"/>
      <point x="509" y="639" type="curve" smooth="yes"/>
      <point x="520" y="639"/>
      <point x="531" y="637"/>
      <point x="531" y="628" type="curve" smooth="yes"/>
      <point x="531" y="626"/>
      <point x="529" y="622"/>
      <point x="525" y="617" type="curve" smooth="yes"/>
      <point x="500" y="590"/>
      <point x="492" y="580"/>
      <point x="492" y="547" type="curve"/>
      <point x="494" y="530" type="line"/>
      <point x="499" y="503" type="line" smooth="yes"/>
      <point x="500" y="498"/>
      <point x="499" y="486"/>
      <point x="494" y="486" type="curve" smooth="yes"/>
      <point x="487" y="489"/>
      <point x="488" y="488"/>
      <point x="477" y="496" type="curve" smooth="yes"/>
      <point x="468" y="504"/>
      <point x="439" y="513"/>
      <point x="426" y="513" type="curve" smooth="yes"/>
      <point x="387" y="513"/>
      <point x="363.875" y="474.073"/>
      <point x="341" y="387" type="curve" smooth="yes"/>
      <point x="325.5" y="328"/>
      <point x="308" y="199.971"/>
      <point x="308" y="65" type="curve"/>
    </contour>
  </outline>
</glyph>
<glyph name="afii10196" format="2">
  <advance width="519"/>
  <unicode hex="0475"/>
  <anchor x="417" y="623" name="Yerik"/>
  <anchor x="257" y="623" name="Above"/>
  <outline>
    <contour>
      <point x="273" y="0" type="curve"/>
      <point x="140" y="0" type="line"/>
      <point x="140" y="69"/>
      <point x="131" y="134"/>
      <point x="112" y="194" type="curve" smooth="yes"/>
      <point x="94" y="255"/>
      <point x="66" y="332"/>
      <point x="29" y="426" type="curve" smooth="yes"/>
      <point x="19" y="451" type="line"/>
      <point x="150" y="451" type="line"/>
      <point x="172" y="390"/>
      <point x="192" y="323"/>
      <point x="209" y="251" type="curve" smooth="yes"/>
      <point x="226" y="180"/>
      <point x="235" y="131"/>
      <point x="235" y="106" type="curve" smooth="yes"/>
      <point x="237" y="94"/>
      <point x="241" y="88"/>
      <point x="246" y="88" type="curve" smooth="yes"/>
      <point x="254" y="88"/>
      <point x="258" y="105"/>
      <point x="258" y="108" type="curve" smooth="yes"/>
      <point x="268" y="156" type="line"/>
      <point x="282" y="227" type="line" smooth="yes"/>
      <point x="301" y="322"/>
      <point x="325" y="384"/>
      <point x="354" y="414" type="curve" smooth="yes"/>
      <point x="383" y="444"/>
      <point x="424" y="459"/>
      <point x="477" y="459" type="curve" smooth="yes"/>
      <point x="485" y="459"/>
      <point x="495" y="459"/>
      <point x="495" y="451" type="curve" smooth="yes"/>
      <point x="495" y="446"/>
      <point x="491" y="444"/>
      <point x="482" y="435" type="curve" smooth="yes"/>
      <point x="474" y="427"/>
      <point x="465" y="402"/>
      <point x="465" y="374" type="curve" smooth="yes"/>
      <point x="465" y="365"/>
      <point x="466" y="358"/>
      <point x="467" y="354" type="curve" smooth="yes"/>
      <point x="470" y="343"/>
      <point x="467" y="337"/>
      <point x="460" y="337" type="curve" smooth="yes"/>
      <point x="451" y="339" type="line" smooth="yes"/>
      <point x="442" y="342"/>
      <point x="424" y="344"/>
      <point x="420" y="344" type="curve" smooth="yes"/>
      <point x="375" y="344"/>
      <point x="344" y="319"/>
      <point x="323" y="243" type="curve" smooth="yes"/>
      <point x="302" y="168"/>
      <point x="285" y="88"/>
    </contour>
  </outline>
</glyph>
<glyph name="uni0478" format="2">
  <advance width="994"/>
  <unicode hex="0478"/>
  <anchor x="897" y="623" name="Yerik"/>
  <anchor x="727" y="623" name="Above"/>
  <outline>
    <contour>
      <point x="722" y="0" type="curve"/>
      <point x="593" y="0" type="line"/>
      <point x="569" y="211"/>
      <point x="542" y="345"/>
      <point x="509" y="426" type="curve"/>
      <point x="505" y="444" type="line"/>
      <point x="505" y="449"/>
      <point x="513" y="451"/>
      <point x="530" y="451" type="curve" smooth="yes"/>
      <point x="596" y="451" type="line" smooth="yes"/>
      <point x="611" y="451"/>
      <point x="620" y="449"/>
      <point x="621" y="444" type="curve" smooth="yes"/>
      <point x="625" y="428" type="line"/>
      <point x="652" y="332"/>
      <point x="669" y="219"/>
      <point x="688" y="90" type="curve" smooth="yes"/>
      <point x="694" y="47" type="line"/>
      <point x="699" y="23"/>
      <point x="701" y="18"/>
      <point x="712" y="18" type="curve" smooth="yes"/>
      <point x="717" y="18"/>
      <point x="721" y="22"/>
      <point x="724" y="29" type="curve" smooth="yes"/>
      <point x="727" y="37"/>
      <point x="732" y="68"/>
      <point x="739" y="122" type="curve" smooth="yes"/>
      <point x="763" y="277"/>
      <point x="792" y="462"/>
      <point x="951" y="462" type="curve" smooth="yes"/>
      <point x="952" y="462"/>
      <point x="953" y="462"/>
      <point x="954" y="462" type="curve" smooth="yes"/>
      <point x="967" y="462"/>
      <point x="974" y="459"/>
      <point x="974" y="454" type="curve" smooth="yes"/>
      <point x="974" y="450"/>
      <point x="971" y="447"/>
      <point x="962" y="438" type="curve" smooth="yes"/>
      <point x="954" y="429"/>
      <point x="939" y="401"/>
      <point x="939" y="384" type="curve" smooth="yes"/>
      <point x="941" y="361"/>
      <point x="951" y="353"/>
      <point x="951" y="349" type="curve" smooth="yes"/>
      <point x="951" y="349"/>
      <point x="951" y="348"/>
      <point x="951" y="348" type="curve" smooth="yes"/>
      <point x="951" y="343"/>
      <point x="948" y="341"/>
      <point x="941" y="341" type="curve" smooth="yes"/>
      <point x="905" y="341"/>
      <point x="879" y="336"/>
      <point x="863" y="327" type="curve" smooth="yes"/>
      <point x="848" y="318"/>
      <point x="834" y="297"/>
      <point x="822" y="262" type="curve" smooth="yes"/>
      <point x="787.336" y="154.855"/>
      <point x="765.312" y="-25.4375"/>
      <point x="742" y="-142" type="curve" smooth="yes"/>
      <point x="737" y="-168"/>
      <point x="732" y="-189"/>
      <point x="727" y="-206" type="curve" smooth="yes"/>
      <point x="718" y="-241"/>
      <point x="712" y="-248"/>
      <point x="699" y="-248" type="curve" smooth="yes"/>
      <point x="690" y="-248"/>
      <point x="686" y="-244"/>
      <point x="686" y="-236" type="curve"/>
      <point x="690" y="-217" type="line"/>
      <point x="694" y="-206"/>
      <point x="699" y="-177"/>
      <point x="706" y="-132" type="curve" smooth="yes"/>
      <point x="713" y="-87"/>
      <point x="718" y="-43"/>
    </contour>
    <contour>
      <point x="282" y="640" type="curve" smooth="yes"/>
      <point x="297" y="640"/>
      <point x="299" y="636"/>
      <point x="299" y="628" type="curve" smooth="yes"/>
      <point x="296" y="597" type="line"/>
      <point x="296" y="574"/>
      <point x="306" y="551"/>
      <point x="357" y="487" type="curve" smooth="yes"/>
      <point x="383" y="455"/>
      <point x="403" y="430"/>
      <point x="418" y="411" type="curve" smooth="yes"/>
      <point x="447" y="374"/>
      <point x="466" y="325"/>
      <point x="466" y="265" type="curve" smooth="yes"/>
      <point x="466" y="213"/>
      <point x="450" y="163"/>
      <point x="418" y="114" type="curve" smooth="yes"/>
      <point x="386" y="66"/>
      <point x="350" y="35"/>
      <point x="310" y="21" type="curve" smooth="yes"/>
      <point x="231" y="-7"/>
      <point x="193" y="-12"/>
      <point x="178" y="-12" type="curve" smooth="yes"/>
      <point x="167" y="-12"/>
      <point x="162" y="-9"/>
      <point x="162" y="-3" type="curve"/>
      <point x="169" y="14" type="line" smooth="yes"/>
      <point x="172" y="20"/>
      <point x="173" y="26"/>
      <point x="173" y="32" type="curve" smooth="yes"/>
      <point x="173" y="47"/>
      <point x="169" y="60"/>
      <point x="162" y="73" type="curve" smooth="yes"/>
      <point x="155" y="86"/>
      <point x="136" y="114"/>
      <point x="105" y="159" type="curve" smooth="yes"/>
      <point x="74" y="204"/>
      <point x="55" y="240"/>
      <point x="47" y="266" type="curve" smooth="yes"/>
      <point x="39" y="293"/>
      <point x="35" y="321"/>
      <point x="35" y="352" type="curve" smooth="yes"/>
      <point x="35" y="445"/>
      <point x="63" y="517"/>
      <point x="120" y="566" type="curve" smooth="yes"/>
      <point x="177" y="615"/>
      <point x="231" y="640"/>
    </contour>
    <contour>
      <point x="157" y="293" type="curve" smooth="yes"/>
      <point x="201" y="161" type="line" smooth="yes"/>
      <point x="206" y="144"/>
      <point x="213" y="115"/>
      <point x="213" y="90" type="curve" smooth="yes"/>
      <point x="213" y="57"/>
      <point x="207" y="46"/>
      <point x="186" y="9" type="curve"/>
      <point x="229" y="9"/>
      <point x="268" y="28"/>
      <point x="303" y="67" type="curve" smooth="yes"/>
      <point x="338" y="106"/>
      <point x="355" y="156"/>
      <point x="355" y="216" type="curve" smooth="yes"/>
      <point x="355" y="254"/>
      <point x="351" y="287"/>
      <point x="342" y="315" type="curve" smooth="yes"/>
      <point x="329.762" y="353.073"/>
      <point x="285.018" y="477.675"/>
      <point x="276" y="516" type="curve" smooth="yes"/>
      <point x="273" y="533"/>
      <point x="271" y="548"/>
      <point x="271" y="562" type="curve" smooth="yes"/>
      <point x="271" y="581"/>
      <point x="272" y="587"/>
      <point x="280" y="619" type="curve"/>
      <point x="242" y="619"/>
      <point x="208" y="602"/>
      <point x="178" y="569" type="curve" smooth="yes"/>
      <point x="148" y="536"/>
      <point x="133" y="490"/>
      <point x="133" y="431" type="curve" smooth="yes"/>
      <point x="133" y="396"/>
      <point x="136" y="358"/>
    </contour>
  </outline>
</glyph>
